<?xml version="1.0" encoding="utf-8"?>
<svg xmlns="http://www.w3.org/2000/svg" xmlns:xlink="http://www.w3.org/1999/xlink" width="600" height="400" viewBox="0 0 2400 1600">
<defs>
  <clipPath id="clip720">
    <rect x="0" y="0" width="2400" height="1600"/>
  </clipPath>
</defs>
<path clip-path="url(#clip720)" d="M0 1600 L2400 1600 L2400 0 L0 0  Z" fill="#ffffff" fill-rule="evenodd" fill-opacity="1"/>
<defs>
  <clipPath id="clip721">
    <rect x="480" y="0" width="1681" height="1600"/>
  </clipPath>
</defs>
<defs>
  <clipPath id="clip722">
    <rect x="257" y="47" width="2096" height="1377"/>
  </clipPath>
</defs>
<path clip-path="url(#clip722)" d="M1047.55 1863.63 L1047.55 1334.77 L1355.94 1070.34 L1890.09 1223.01 L1890.09 1751.87 L1581.7 2016.3 L1047.55 1863.63  Z" fill="#ffffff" fill-rule="evenodd" fill-opacity="1"/>
<polyline clip-path="url(#clip722)" style="stroke:#000000; stroke-linecap:round; stroke-linejoin:round; stroke-width:2; stroke-opacity:0.1; fill:none" points="893.272,1189.6 1290.47,845.615 1290.47,157.647 "/>
<polyline clip-path="url(#clip722)" style="stroke:#000000; stroke-linecap:round; stroke-linejoin:round; stroke-width:2; stroke-opacity:0.1; fill:none" points="1026.81,1228.15 1424.01,884.163 1424.01,196.195 "/>
<polyline clip-path="url(#clip722)" style="stroke:#000000; stroke-linecap:round; stroke-linejoin:round; stroke-width:2; stroke-opacity:0.1; fill:none" points="1160.34,1266.7 1557.54,922.712 1557.54,234.744 "/>
<polyline clip-path="url(#clip722)" style="stroke:#000000; stroke-linecap:round; stroke-linejoin:round; stroke-width:2; stroke-opacity:0.1; fill:none" points="1293.88,1305.24 1691.08,961.26 1691.08,273.293 "/>
<polyline clip-path="url(#clip722)" style="stroke:#000000; stroke-linecap:round; stroke-linejoin:round; stroke-width:2; stroke-opacity:0.1; fill:none" points="1427.42,1343.79 1824.62,999.809 1824.62,311.841 "/>
<polyline clip-path="url(#clip720)" style="stroke:#000000; stroke-linecap:round; stroke-linejoin:round; stroke-width:4; stroke-opacity:1; fill:none" points="762.64,1151.89 1450.61,1350.49 "/>
<polyline clip-path="url(#clip720)" style="stroke:#000000; stroke-linecap:round; stroke-linejoin:round; stroke-width:4; stroke-opacity:1; fill:none" points="893.272,1189.6 898.038,1185.47 "/>
<polyline clip-path="url(#clip720)" style="stroke:#000000; stroke-linecap:round; stroke-linejoin:round; stroke-width:4; stroke-opacity:1; fill:none" points="1026.81,1228.15 1031.57,1224.02 "/>
<polyline clip-path="url(#clip720)" style="stroke:#000000; stroke-linecap:round; stroke-linejoin:round; stroke-width:4; stroke-opacity:1; fill:none" points="1160.34,1266.7 1165.11,1262.57 "/>
<polyline clip-path="url(#clip720)" style="stroke:#000000; stroke-linecap:round; stroke-linejoin:round; stroke-width:4; stroke-opacity:1; fill:none" points="1293.88,1305.24 1298.65,1301.12 "/>
<polyline clip-path="url(#clip720)" style="stroke:#000000; stroke-linecap:round; stroke-linejoin:round; stroke-width:4; stroke-opacity:1; fill:none" points="1427.42,1343.79 1432.18,1339.67 "/>
<path clip-path="url(#clip720)" d="M778.413 1217.74 L808.089 1217.74 L808.089 1221.68 L778.413 1221.68 L778.413 1217.74 Z" fill="#000000" fill-rule="nonzero" fill-opacity="1" /><path clip-path="url(#clip720)" d="M818.992 1230.63 L826.631 1230.63 L826.631 1204.27 L818.321 1205.94 L818.321 1201.68 L826.584 1200.01 L831.26 1200.01 L831.26 1230.63 L838.899 1230.63 L838.899 1234.57 L818.992 1234.57 L818.992 1230.63 Z" fill="#000000" fill-rule="nonzero" fill-opacity="1" /><path clip-path="url(#clip720)" d="M848.344 1228.69 L853.228 1228.69 L853.228 1234.57 L848.344 1234.57 L848.344 1228.69 Z" fill="#000000" fill-rule="nonzero" fill-opacity="1" /><path clip-path="url(#clip720)" d="M873.413 1203.09 Q869.802 1203.09 867.973 1206.65 Q866.168 1210.19 866.168 1217.32 Q866.168 1224.43 867.973 1228 Q869.802 1231.54 873.413 1231.54 Q877.047 1231.54 878.853 1228 Q880.681 1224.43 880.681 1217.32 Q880.681 1210.19 878.853 1206.65 Q877.047 1203.09 873.413 1203.09 M873.413 1199.38 Q879.223 1199.38 882.279 1203.99 Q885.357 1208.57 885.357 1217.32 Q885.357 1226.05 882.279 1230.66 Q879.223 1235.24 873.413 1235.24 Q867.603 1235.24 864.524 1230.66 Q861.468 1226.05 861.468 1217.32 Q861.468 1208.57 864.524 1203.99 Q867.603 1199.38 873.413 1199.38 Z" fill="#000000" fill-rule="nonzero" fill-opacity="1" /><path clip-path="url(#clip720)" d="M912.945 1256.29 L942.621 1256.29 L942.621 1260.22 L912.945 1260.22 L912.945 1256.29 Z" fill="#000000" fill-rule="nonzero" fill-opacity="1" /><path clip-path="url(#clip720)" d="M962.713 1241.64 Q959.102 1241.64 957.274 1245.2 Q955.468 1248.74 955.468 1255.87 Q955.468 1262.98 957.274 1266.54 Q959.102 1270.09 962.713 1270.09 Q966.348 1270.09 968.153 1266.54 Q969.982 1262.98 969.982 1255.87 Q969.982 1248.74 968.153 1245.2 Q966.348 1241.64 962.713 1241.64 M962.713 1237.93 Q968.523 1237.93 971.579 1242.54 Q974.658 1247.12 974.658 1255.87 Q974.658 1264.6 971.579 1269.21 Q968.523 1273.79 962.713 1273.79 Q956.903 1273.79 953.824 1269.21 Q950.769 1264.6 950.769 1255.87 Q950.769 1247.12 953.824 1242.54 Q956.903 1237.93 962.713 1237.93 Z" fill="#000000" fill-rule="nonzero" fill-opacity="1" /><path clip-path="url(#clip720)" d="M982.875 1267.24 L987.759 1267.24 L987.759 1273.12 L982.875 1273.12 L982.875 1267.24 Z" fill="#000000" fill-rule="nonzero" fill-opacity="1" /><path clip-path="url(#clip720)" d="M997.991 1238.56 L1016.35 1238.56 L1016.35 1242.49 L1002.27 1242.49 L1002.27 1250.97 Q1003.29 1250.62 1004.31 1250.46 Q1005.33 1250.27 1006.35 1250.27 Q1012.13 1250.27 1015.51 1253.44 Q1018.89 1256.61 1018.89 1262.03 Q1018.89 1267.61 1015.42 1270.71 Q1011.95 1273.79 1005.63 1273.79 Q1003.45 1273.79 1001.19 1273.42 Q998.94 1273.05 996.533 1272.31 L996.533 1267.61 Q998.616 1268.74 1000.84 1269.3 Q1003.06 1269.85 1005.54 1269.85 Q1009.54 1269.85 1011.88 1267.75 Q1014.22 1265.64 1014.22 1262.03 Q1014.22 1258.42 1011.88 1256.31 Q1009.54 1254.21 1005.54 1254.21 Q1003.66 1254.21 1001.79 1254.62 Q999.935 1255.04 997.991 1255.92 L997.991 1238.56 Z" fill="#000000" fill-rule="nonzero" fill-opacity="1" /><path clip-path="url(#clip720)" d="M1095.25 1280.19 Q1091.64 1280.19 1089.81 1283.75 Q1088.01 1287.29 1088.01 1294.42 Q1088.01 1301.53 1089.81 1305.09 Q1091.64 1308.63 1095.25 1308.63 Q1098.89 1308.63 1100.69 1305.09 Q1102.52 1301.53 1102.52 1294.42 Q1102.52 1287.29 1100.69 1283.75 Q1098.89 1280.19 1095.25 1280.19 M1095.25 1276.48 Q1101.06 1276.48 1104.12 1281.09 Q1107.2 1285.67 1107.2 1294.42 Q1107.2 1303.15 1104.12 1307.75 Q1101.06 1312.34 1095.25 1312.34 Q1089.44 1312.34 1086.37 1307.75 Q1083.31 1303.15 1083.31 1294.42 Q1083.31 1285.67 1086.37 1281.09 Q1089.44 1276.48 1095.25 1276.48 Z" fill="#000000" fill-rule="nonzero" fill-opacity="1" /><path clip-path="url(#clip720)" d="M1115.42 1305.79 L1120.3 1305.79 L1120.3 1311.67 L1115.42 1311.67 L1115.42 1305.79 Z" fill="#000000" fill-rule="nonzero" fill-opacity="1" /><path clip-path="url(#clip720)" d="M1140.49 1280.19 Q1136.87 1280.19 1135.05 1283.75 Q1133.24 1287.29 1133.24 1294.42 Q1133.24 1301.53 1135.05 1305.09 Q1136.87 1308.63 1140.49 1308.63 Q1144.12 1308.63 1145.93 1305.09 Q1147.75 1301.53 1147.75 1294.42 Q1147.75 1287.29 1145.93 1283.75 Q1144.12 1280.19 1140.49 1280.19 M1140.49 1276.48 Q1146.3 1276.48 1149.35 1281.09 Q1152.43 1285.67 1152.43 1294.42 Q1152.43 1303.15 1149.35 1307.75 Q1146.3 1312.34 1140.49 1312.34 Q1134.68 1312.34 1131.6 1307.75 Q1128.54 1303.15 1128.54 1294.42 Q1128.54 1285.67 1131.6 1281.09 Q1134.68 1276.48 1140.49 1276.48 Z" fill="#000000" fill-rule="nonzero" fill-opacity="1" /><path clip-path="url(#clip720)" d="M1229.79 1318.73 Q1226.17 1318.73 1224.35 1322.3 Q1222.54 1325.84 1222.54 1332.97 Q1222.54 1340.08 1224.35 1343.64 Q1226.17 1347.18 1229.79 1347.18 Q1233.42 1347.18 1235.23 1343.64 Q1237.05 1340.08 1237.05 1332.97 Q1237.05 1325.84 1235.23 1322.3 Q1233.42 1318.73 1229.79 1318.73 M1229.79 1315.03 Q1235.6 1315.03 1238.65 1319.64 Q1241.73 1324.22 1241.73 1332.97 Q1241.73 1341.7 1238.65 1346.3 Q1235.6 1350.89 1229.79 1350.89 Q1223.98 1350.89 1220.9 1346.3 Q1217.84 1341.7 1217.84 1332.97 Q1217.84 1324.22 1220.9 1319.64 Q1223.98 1315.03 1229.79 1315.03 Z" fill="#000000" fill-rule="nonzero" fill-opacity="1" /><path clip-path="url(#clip720)" d="M1249.95 1344.34 L1254.83 1344.34 L1254.83 1350.22 L1249.95 1350.22 L1249.95 1344.34 Z" fill="#000000" fill-rule="nonzero" fill-opacity="1" /><path clip-path="url(#clip720)" d="M1265.06 1315.66 L1283.42 1315.66 L1283.42 1319.59 L1269.35 1319.59 L1269.35 1328.06 Q1270.36 1327.72 1271.38 1327.55 Q1272.4 1327.37 1273.42 1327.37 Q1279.21 1327.37 1282.59 1330.54 Q1285.97 1333.71 1285.97 1339.13 Q1285.97 1344.71 1282.49 1347.81 Q1279.02 1350.89 1272.7 1350.89 Q1270.53 1350.89 1268.26 1350.52 Q1266.01 1350.15 1263.61 1349.41 L1263.61 1344.71 Q1265.69 1345.84 1267.91 1346.4 Q1270.13 1346.95 1272.61 1346.95 Q1276.61 1346.95 1278.95 1344.85 Q1281.29 1342.74 1281.29 1339.13 Q1281.29 1335.52 1278.95 1333.41 Q1276.61 1331.3 1272.61 1331.3 Q1270.73 1331.3 1268.86 1331.72 Q1267.01 1332.14 1265.06 1333.02 L1265.06 1315.66 Z" fill="#000000" fill-rule="nonzero" fill-opacity="1" /><path clip-path="url(#clip720)" d="M1353.14 1384.83 L1360.78 1384.83 L1360.78 1358.46 L1352.47 1360.13 L1352.47 1355.87 L1360.73 1354.2 L1365.41 1354.2 L1365.41 1384.83 L1373.04 1384.83 L1373.04 1388.76 L1353.14 1388.76 L1353.14 1384.83 Z" fill="#000000" fill-rule="nonzero" fill-opacity="1" /><path clip-path="url(#clip720)" d="M1382.49 1382.88 L1387.37 1382.88 L1387.37 1388.76 L1382.49 1388.76 L1382.49 1382.88 Z" fill="#000000" fill-rule="nonzero" fill-opacity="1" /><path clip-path="url(#clip720)" d="M1407.56 1357.28 Q1403.95 1357.28 1402.12 1360.85 Q1400.31 1364.39 1400.31 1371.52 Q1400.31 1378.63 1402.12 1382.19 Q1403.95 1385.73 1407.56 1385.73 Q1411.19 1385.73 1413 1382.19 Q1414.83 1378.63 1414.83 1371.52 Q1414.83 1364.39 1413 1360.85 Q1411.19 1357.28 1407.56 1357.28 M1407.56 1353.58 Q1413.37 1353.58 1416.42 1358.19 Q1419.5 1362.77 1419.5 1371.52 Q1419.5 1380.25 1416.42 1384.85 Q1413.37 1389.44 1407.56 1389.44 Q1401.75 1389.44 1398.67 1384.85 Q1395.61 1380.25 1395.61 1371.52 Q1395.61 1362.77 1398.67 1358.19 Q1401.75 1353.58 1407.56 1353.58 Z" fill="#000000" fill-rule="nonzero" fill-opacity="1" /><path clip-path="url(#clip720)" d="M922.25 1417.26 L922.25 1395.68 L928.106 1395.68 L928.106 1417.04 Q928.106 1422.1 930.08 1424.65 Q932.053 1427.16 936 1427.16 Q940.742 1427.16 943.479 1424.14 Q946.249 1421.11 946.249 1415.9 L946.249 1395.68 L952.105 1395.68 L952.105 1431.33 L946.249 1431.33 L946.249 1425.86 Q944.116 1429.1 941.283 1430.7 Q938.482 1432.25 934.758 1432.25 Q928.615 1432.25 925.433 1428.44 Q922.25 1424.62 922.25 1417.26 M936.986 1394.82 L936.986 1394.82 Z" fill="#000000" fill-rule="nonzero" fill-opacity="1" /><path clip-path="url(#clip720)" d="M963.627 1381.81 L977.122 1381.81 L977.122 1386.36 L969.483 1386.36 L969.483 1435.37 L977.122 1435.37 L977.122 1439.93 L963.627 1439.93 L963.627 1381.81 Z" fill="#000000" fill-rule="nonzero" fill-opacity="1" /><path clip-path="url(#clip720)" d="M991.541 1425.92 L1002.04 1425.92 L1002.04 1389.67 L990.617 1391.96 L990.617 1386.1 L1001.98 1383.81 L1008.41 1383.81 L1008.41 1425.92 L1018.91 1425.92 L1018.91 1431.33 L991.541 1431.33 L991.541 1425.92 Z" fill="#000000" fill-rule="nonzero" fill-opacity="1" /><path clip-path="url(#clip720)" d="M1044.76 1381.81 L1044.76 1439.93 L1031.26 1439.93 L1031.26 1435.37 L1038.87 1435.37 L1038.87 1386.36 L1031.26 1386.36 L1031.26 1381.81 L1044.76 1381.81 Z" fill="#000000" fill-rule="nonzero" fill-opacity="1" /><polyline clip-path="url(#clip722)" style="stroke:#000000; stroke-linecap:round; stroke-linejoin:round; stroke-width:2; stroke-opacity:0.1; fill:none" points="1492.26,1314.42 804.293,1115.82 804.293,427.848 "/>
<polyline clip-path="url(#clip722)" style="stroke:#000000; stroke-linecap:round; stroke-linejoin:round; stroke-width:2; stroke-opacity:0.1; fill:none" points="1568.59,1248.31 880.627,1049.71 880.627,361.741 "/>
<polyline clip-path="url(#clip722)" style="stroke:#000000; stroke-linecap:round; stroke-linejoin:round; stroke-width:2; stroke-opacity:0.1; fill:none" points="1644.93,1182.2 956.961,983.601 956.961,295.633 "/>
<polyline clip-path="url(#clip722)" style="stroke:#000000; stroke-linecap:round; stroke-linejoin:round; stroke-width:2; stroke-opacity:0.1; fill:none" points="1721.26,1116.09 1033.3,917.494 1033.3,229.526 "/>
<polyline clip-path="url(#clip722)" style="stroke:#000000; stroke-linecap:round; stroke-linejoin:round; stroke-width:2; stroke-opacity:0.1; fill:none" points="1797.6,1049.99 1109.63,851.386 1109.63,163.419 "/>
<polyline clip-path="url(#clip720)" style="stroke:#000000; stroke-linecap:round; stroke-linejoin:round; stroke-width:4; stroke-opacity:1; fill:none" points="1450.61,1350.49 1847.81,1006.5 "/>
<polyline clip-path="url(#clip720)" style="stroke:#000000; stroke-linecap:round; stroke-linejoin:round; stroke-width:4; stroke-opacity:1; fill:none" points="1492.26,1314.42 1484,1312.03 "/>
<polyline clip-path="url(#clip720)" style="stroke:#000000; stroke-linecap:round; stroke-linejoin:round; stroke-width:4; stroke-opacity:1; fill:none" points="1568.59,1248.31 1560.34,1245.92 "/>
<polyline clip-path="url(#clip720)" style="stroke:#000000; stroke-linecap:round; stroke-linejoin:round; stroke-width:4; stroke-opacity:1; fill:none" points="1644.93,1182.2 1636.67,1179.82 "/>
<polyline clip-path="url(#clip720)" style="stroke:#000000; stroke-linecap:round; stroke-linejoin:round; stroke-width:4; stroke-opacity:1; fill:none" points="1721.26,1116.09 1713.01,1113.71 "/>
<polyline clip-path="url(#clip720)" style="stroke:#000000; stroke-linecap:round; stroke-linejoin:round; stroke-width:4; stroke-opacity:1; fill:none" points="1797.6,1049.99 1789.34,1047.6 "/>
<path clip-path="url(#clip720)" d="M1522.95 1322.08 Q1519.34 1322.08 1517.51 1325.64 Q1515.71 1329.18 1515.71 1336.31 Q1515.71 1343.42 1517.51 1346.98 Q1519.34 1350.53 1522.95 1350.53 Q1526.59 1350.53 1528.39 1346.98 Q1530.22 1343.42 1530.22 1336.31 Q1530.22 1329.18 1528.39 1325.64 Q1526.59 1322.08 1522.95 1322.08 M1522.95 1318.37 Q1528.76 1318.37 1531.82 1322.98 Q1534.9 1327.56 1534.9 1336.31 Q1534.9 1345.04 1531.82 1349.65 Q1528.76 1354.23 1522.95 1354.23 Q1517.14 1354.23 1514.06 1349.65 Q1511.01 1345.04 1511.01 1336.31 Q1511.01 1327.56 1514.06 1322.98 Q1517.14 1318.37 1522.95 1318.37 Z" fill="#000000" fill-rule="nonzero" fill-opacity="1" /><path clip-path="url(#clip720)" d="M1543.11 1347.68 L1548 1347.68 L1548 1353.56 L1543.11 1353.56 L1543.11 1347.68 Z" fill="#000000" fill-rule="nonzero" fill-opacity="1" /><path clip-path="url(#clip720)" d="M1558.23 1319 L1576.59 1319 L1576.59 1322.93 L1562.51 1322.93 L1562.51 1331.41 Q1563.53 1331.06 1564.55 1330.9 Q1565.57 1330.71 1566.59 1330.71 Q1572.37 1330.71 1575.75 1333.88 Q1579.13 1337.05 1579.13 1342.47 Q1579.13 1348.05 1575.66 1351.15 Q1572.19 1354.23 1565.87 1354.23 Q1563.69 1354.23 1561.42 1353.86 Q1559.18 1353.49 1556.77 1352.75 L1556.77 1348.05 Q1558.85 1349.18 1561.08 1349.74 Q1563.3 1350.29 1565.78 1350.29 Q1569.78 1350.29 1572.12 1348.19 Q1574.46 1346.08 1574.46 1342.47 Q1574.46 1338.86 1572.12 1336.75 Q1569.78 1334.65 1565.78 1334.65 Q1563.9 1334.65 1562.03 1335.06 Q1560.17 1335.48 1558.23 1336.36 L1558.23 1319 Z" fill="#000000" fill-rule="nonzero" fill-opacity="1" /><path clip-path="url(#clip720)" d="M1588.01 1283.52 L1595.65 1283.52 L1595.65 1257.15 L1587.34 1258.82 L1587.34 1254.56 L1595.61 1252.89 L1600.28 1252.89 L1600.28 1283.52 L1607.92 1283.52 L1607.92 1287.45 L1588.01 1287.45 L1588.01 1283.52 Z" fill="#000000" fill-rule="nonzero" fill-opacity="1" /><path clip-path="url(#clip720)" d="M1617.36 1281.57 L1622.25 1281.57 L1622.25 1287.45 L1617.36 1287.45 L1617.36 1281.57 Z" fill="#000000" fill-rule="nonzero" fill-opacity="1" /><path clip-path="url(#clip720)" d="M1642.43 1255.97 Q1638.82 1255.97 1636.99 1259.53 Q1635.19 1263.08 1635.19 1270.21 Q1635.19 1277.31 1636.99 1280.88 Q1638.82 1284.42 1642.43 1284.42 Q1646.07 1284.42 1647.87 1280.88 Q1649.7 1277.31 1649.7 1270.21 Q1649.7 1263.08 1647.87 1259.53 Q1646.07 1255.97 1642.43 1255.97 M1642.43 1252.27 Q1648.24 1252.27 1651.3 1256.87 Q1654.38 1261.46 1654.38 1270.21 Q1654.38 1278.93 1651.3 1283.54 Q1648.24 1288.12 1642.43 1288.12 Q1636.62 1288.12 1633.54 1283.54 Q1630.49 1278.93 1630.49 1270.21 Q1630.49 1261.46 1633.54 1256.87 Q1636.62 1252.27 1642.43 1252.27 Z" fill="#000000" fill-rule="nonzero" fill-opacity="1" /><path clip-path="url(#clip720)" d="M1664.35 1217.41 L1671.99 1217.41 L1671.99 1191.04 L1663.68 1192.71 L1663.68 1188.45 L1671.94 1186.78 L1676.62 1186.78 L1676.62 1217.41 L1684.25 1217.41 L1684.25 1221.34 L1664.35 1221.34 L1664.35 1217.41 Z" fill="#000000" fill-rule="nonzero" fill-opacity="1" /><path clip-path="url(#clip720)" d="M1693.7 1215.46 L1698.58 1215.46 L1698.58 1221.34 L1693.7 1221.34 L1693.7 1215.46 Z" fill="#000000" fill-rule="nonzero" fill-opacity="1" /><path clip-path="url(#clip720)" d="M1708.81 1186.78 L1727.17 1186.78 L1727.17 1190.72 L1713.1 1190.72 L1713.1 1199.19 Q1714.12 1198.84 1715.13 1198.68 Q1716.15 1198.5 1717.17 1198.5 Q1722.96 1198.5 1726.34 1201.67 Q1729.72 1204.84 1729.72 1210.26 Q1729.72 1215.83 1726.24 1218.94 Q1722.77 1222.01 1716.45 1222.01 Q1714.28 1222.01 1712.01 1221.64 Q1709.76 1221.27 1707.36 1220.53 L1707.36 1215.83 Q1709.44 1216.97 1711.66 1217.52 Q1713.88 1218.08 1716.36 1218.08 Q1720.37 1218.08 1722.7 1215.97 Q1725.04 1213.87 1725.04 1210.26 Q1725.04 1206.64 1722.7 1204.54 Q1720.37 1202.43 1716.36 1202.43 Q1714.49 1202.43 1712.61 1202.85 Q1710.76 1203.27 1708.81 1204.14 L1708.81 1186.78 Z" fill="#000000" fill-rule="nonzero" fill-opacity="1" /><path clip-path="url(#clip720)" d="M1745.63 1151.3 L1761.95 1151.3 L1761.95 1155.24 L1740.01 1155.24 L1740.01 1151.3 Q1742.67 1148.55 1747.26 1143.92 Q1751.86 1139.26 1753.04 1137.92 Q1755.29 1135.4 1756.17 1133.66 Q1757.07 1131.9 1757.07 1130.21 Q1757.07 1127.46 1755.13 1125.72 Q1753.2 1123.99 1750.1 1123.99 Q1747.9 1123.99 1745.45 1124.75 Q1743.02 1125.51 1740.24 1127.07 L1740.24 1122.34 Q1743.07 1121.21 1745.52 1120.63 Q1747.97 1120.05 1750.01 1120.05 Q1755.38 1120.05 1758.57 1122.74 Q1761.77 1125.42 1761.77 1129.91 Q1761.77 1132.04 1760.96 1133.96 Q1760.17 1135.86 1758.07 1138.45 Q1757.49 1139.13 1754.38 1142.34 Q1751.28 1145.54 1745.63 1151.3 Z" fill="#000000" fill-rule="nonzero" fill-opacity="1" /><path clip-path="url(#clip720)" d="M1771.77 1149.36 L1776.65 1149.36 L1776.65 1155.24 L1771.77 1155.24 L1771.77 1149.36 Z" fill="#000000" fill-rule="nonzero" fill-opacity="1" /><path clip-path="url(#clip720)" d="M1796.84 1123.75 Q1793.23 1123.75 1791.4 1127.32 Q1789.59 1130.86 1789.59 1137.99 Q1789.59 1145.1 1791.4 1148.66 Q1793.23 1152.2 1796.84 1152.2 Q1800.47 1152.2 1802.28 1148.66 Q1804.11 1145.1 1804.11 1137.99 Q1804.11 1130.86 1802.28 1127.32 Q1800.47 1123.75 1796.84 1123.75 M1796.84 1120.05 Q1802.65 1120.05 1805.7 1124.66 Q1808.78 1129.24 1808.78 1137.99 Q1808.78 1146.72 1805.7 1151.32 Q1802.65 1155.91 1796.84 1155.91 Q1791.03 1155.91 1787.95 1151.32 Q1784.89 1146.72 1784.89 1137.99 Q1784.89 1129.24 1787.95 1124.66 Q1791.03 1120.05 1796.84 1120.05 Z" fill="#000000" fill-rule="nonzero" fill-opacity="1" /><path clip-path="url(#clip720)" d="M1821.97 1085.19 L1838.29 1085.19 L1838.29 1089.13 L1816.34 1089.13 L1816.34 1085.19 Q1819.01 1082.44 1823.59 1077.81 Q1828.2 1073.16 1829.38 1071.81 Q1831.62 1069.29 1832.5 1067.55 Q1833.4 1065.8 1833.4 1064.11 Q1833.4 1061.35 1831.46 1059.62 Q1829.54 1057.88 1826.44 1057.88 Q1824.24 1057.88 1821.78 1058.64 Q1819.35 1059.41 1816.58 1060.96 L1816.58 1056.24 Q1819.4 1055.1 1821.85 1054.52 Q1824.31 1053.94 1826.34 1053.94 Q1831.71 1053.94 1834.91 1056.63 Q1838.1 1059.31 1838.1 1063.8 Q1838.1 1065.93 1837.29 1067.86 Q1836.51 1069.75 1834.4 1072.35 Q1833.82 1073.02 1830.72 1076.24 Q1827.62 1079.43 1821.97 1085.19 Z" fill="#000000" fill-rule="nonzero" fill-opacity="1" /><path clip-path="url(#clip720)" d="M1848.1 1083.25 L1852.99 1083.25 L1852.99 1089.13 L1848.1 1089.13 L1848.1 1083.25 Z" fill="#000000" fill-rule="nonzero" fill-opacity="1" /><path clip-path="url(#clip720)" d="M1863.22 1054.57 L1881.58 1054.57 L1881.58 1058.5 L1867.5 1058.5 L1867.5 1066.98 Q1868.52 1066.63 1869.54 1066.47 Q1870.56 1066.28 1871.58 1066.28 Q1877.36 1066.28 1880.74 1069.45 Q1884.12 1072.62 1884.12 1078.04 Q1884.12 1083.62 1880.65 1086.72 Q1877.18 1089.8 1870.86 1089.8 Q1868.68 1089.8 1866.41 1089.43 Q1864.17 1089.06 1861.76 1088.32 L1861.76 1083.62 Q1863.84 1084.75 1866.07 1085.31 Q1868.29 1085.86 1870.77 1085.86 Q1874.77 1085.86 1877.11 1083.76 Q1879.45 1081.65 1879.45 1078.04 Q1879.45 1074.43 1877.11 1072.32 Q1874.77 1070.22 1870.77 1070.22 Q1868.89 1070.22 1867.02 1070.63 Q1865.16 1071.05 1863.22 1071.93 L1863.22 1054.57 Z" fill="#000000" fill-rule="nonzero" fill-opacity="1" /><path clip-path="url(#clip720)" d="M1711.07 1344.57 L1711.07 1322.99 L1716.93 1322.99 L1716.93 1344.35 Q1716.93 1349.41 1718.9 1351.96 Q1720.88 1354.47 1724.82 1354.47 Q1729.57 1354.47 1732.3 1351.45 Q1735.07 1348.42 1735.07 1343.2 L1735.07 1322.99 L1740.93 1322.99 L1740.93 1358.64 L1735.07 1358.64 L1735.07 1353.17 Q1732.94 1356.41 1730.11 1358 Q1727.31 1359.56 1723.58 1359.56 Q1717.44 1359.56 1714.26 1355.74 Q1711.07 1351.92 1711.07 1344.57 M1725.81 1322.13 L1725.81 1322.13 Z" fill="#000000" fill-rule="nonzero" fill-opacity="1" /><path clip-path="url(#clip720)" d="M1752.45 1309.11 L1765.95 1309.11 L1765.95 1313.67 L1758.31 1313.67 L1758.31 1362.68 L1765.95 1362.68 L1765.95 1367.23 L1752.45 1367.23 L1752.45 1309.11 Z" fill="#000000" fill-rule="nonzero" fill-opacity="1" /><path clip-path="url(#clip720)" d="M1784.79 1353.23 L1807.23 1353.23 L1807.23 1358.64 L1777.05 1358.64 L1777.05 1353.23 Q1780.71 1349.44 1787.02 1343.08 Q1793.35 1336.68 1794.97 1334.83 Q1798.06 1331.36 1799.27 1328.98 Q1800.51 1326.56 1800.51 1324.23 Q1800.51 1320.45 1797.84 1318.06 Q1795.2 1315.67 1790.93 1315.67 Q1787.91 1315.67 1784.53 1316.72 Q1781.19 1317.77 1777.37 1319.9 L1777.37 1313.41 Q1781.25 1311.85 1784.63 1311.06 Q1788 1310.26 1790.8 1310.26 Q1798.19 1310.26 1802.58 1313.95 Q1806.97 1317.64 1806.97 1323.82 Q1806.97 1326.75 1805.86 1329.39 Q1804.78 1332 1801.88 1335.56 Q1801.08 1336.49 1796.82 1340.91 Q1792.55 1345.3 1784.79 1353.23 Z" fill="#000000" fill-rule="nonzero" fill-opacity="1" /><path clip-path="url(#clip720)" d="M1833.58 1309.11 L1833.58 1367.23 L1820.09 1367.23 L1820.09 1362.68 L1827.69 1362.68 L1827.69 1313.67 L1820.09 1313.67 L1820.09 1309.11 L1833.58 1309.11 Z" fill="#000000" fill-rule="nonzero" fill-opacity="1" /><polyline clip-path="url(#clip722)" style="stroke:#000000; stroke-linecap:round; stroke-linejoin:round; stroke-width:2; stroke-opacity:0.1; fill:none" points="762.64,1048.25 1159.84,704.264 1847.81,902.863 "/>
<polyline clip-path="url(#clip722)" style="stroke:#000000; stroke-linecap:round; stroke-linejoin:round; stroke-width:2; stroke-opacity:0.1; fill:none" points="762.64,879.908 1159.84,535.924 1847.81,734.523 "/>
<polyline clip-path="url(#clip722)" style="stroke:#000000; stroke-linecap:round; stroke-linejoin:round; stroke-width:2; stroke-opacity:0.1; fill:none" points="762.64,711.568 1159.84,367.584 1847.81,566.183 "/>
<polyline clip-path="url(#clip722)" style="stroke:#000000; stroke-linecap:round; stroke-linejoin:round; stroke-width:2; stroke-opacity:0.1; fill:none" points="762.64,543.228 1159.84,199.244 1847.81,397.843 "/>
<polyline clip-path="url(#clip720)" style="stroke:#000000; stroke-linecap:round; stroke-linejoin:round; stroke-width:4; stroke-opacity:1; fill:none" points="762.64,1151.89 762.64,463.92 "/>
<polyline clip-path="url(#clip720)" style="stroke:#000000; stroke-linecap:round; stroke-linejoin:round; stroke-width:4; stroke-opacity:1; fill:none" points="762.64,1048.25 767.406,1044.12 "/>
<polyline clip-path="url(#clip720)" style="stroke:#000000; stroke-linecap:round; stroke-linejoin:round; stroke-width:4; stroke-opacity:1; fill:none" points="762.64,879.908 767.406,875.78 "/>
<polyline clip-path="url(#clip720)" style="stroke:#000000; stroke-linecap:round; stroke-linejoin:round; stroke-width:4; stroke-opacity:1; fill:none" points="762.64,711.568 767.406,707.44 "/>
<polyline clip-path="url(#clip720)" style="stroke:#000000; stroke-linecap:round; stroke-linejoin:round; stroke-width:4; stroke-opacity:1; fill:none" points="762.64,543.228 767.406,539.1 "/>
<path clip-path="url(#clip720)" d="M626.41 1048.7 L656.086 1048.7 L656.086 1052.63 L626.41 1052.63 L626.41 1048.7 Z" fill="#000000" fill-rule="nonzero" fill-opacity="1" /><path clip-path="url(#clip720)" d="M676.178 1034.05 Q672.567 1034.05 670.738 1037.61 Q668.933 1041.15 668.933 1048.28 Q668.933 1055.39 670.738 1058.95 Q672.567 1062.5 676.178 1062.5 Q679.812 1062.5 681.618 1058.95 Q683.447 1055.39 683.447 1048.28 Q683.447 1041.15 681.618 1037.61 Q679.812 1034.05 676.178 1034.05 M676.178 1030.34 Q681.988 1030.34 685.044 1034.95 Q688.123 1039.53 688.123 1048.28 Q688.123 1057.01 685.044 1061.62 Q681.988 1066.2 676.178 1066.2 Q670.368 1066.2 667.289 1061.62 Q664.234 1057.01 664.234 1048.28 Q664.234 1039.53 667.289 1034.95 Q670.368 1030.34 676.178 1030.34 Z" fill="#000000" fill-rule="nonzero" fill-opacity="1" /><path clip-path="url(#clip720)" d="M696.34 1059.65 L701.224 1059.65 L701.224 1065.53 L696.34 1065.53 L696.34 1059.65 Z" fill="#000000" fill-rule="nonzero" fill-opacity="1" /><path clip-path="url(#clip720)" d="M724.257 1035.04 L712.451 1053.49 L724.257 1053.49 L724.257 1035.04 M723.03 1030.97 L728.909 1030.97 L728.909 1053.49 L733.84 1053.49 L733.84 1057.38 L728.909 1057.38 L728.909 1065.53 L724.257 1065.53 L724.257 1057.38 L708.655 1057.38 L708.655 1052.87 L723.03 1030.97 Z" fill="#000000" fill-rule="nonzero" fill-opacity="1" /><path clip-path="url(#clip720)" d="M628.493 880.359 L658.169 880.359 L658.169 884.294 L628.493 884.294 L628.493 880.359 Z" fill="#000000" fill-rule="nonzero" fill-opacity="1" /><path clip-path="url(#clip720)" d="M678.261 865.706 Q674.65 865.706 672.822 869.271 Q671.016 872.813 671.016 879.942 Q671.016 887.049 672.822 890.614 Q674.65 894.155 678.261 894.155 Q681.896 894.155 683.701 890.614 Q685.53 887.049 685.53 879.942 Q685.53 872.813 683.701 869.271 Q681.896 865.706 678.261 865.706 M678.261 862.003 Q684.072 862.003 687.127 866.609 Q690.206 871.192 690.206 879.942 Q690.206 888.669 687.127 893.276 Q684.072 897.859 678.261 897.859 Q672.451 897.859 669.373 893.276 Q666.317 888.669 666.317 879.942 Q666.317 871.192 669.373 866.609 Q672.451 862.003 678.261 862.003 Z" fill="#000000" fill-rule="nonzero" fill-opacity="1" /><path clip-path="url(#clip720)" d="M698.423 891.308 L703.308 891.308 L703.308 897.188 L698.423 897.188 L698.423 891.308 Z" fill="#000000" fill-rule="nonzero" fill-opacity="1" /><path clip-path="url(#clip720)" d="M717.521 893.253 L733.84 893.253 L733.84 897.188 L711.896 897.188 L711.896 893.253 Q714.558 890.498 719.141 885.868 Q723.747 881.216 724.928 879.873 Q727.173 877.35 728.053 875.614 Q728.956 873.855 728.956 872.165 Q728.956 869.41 727.011 867.674 Q725.09 865.938 721.988 865.938 Q719.789 865.938 717.335 866.702 Q714.905 867.466 712.127 869.017 L712.127 864.294 Q714.951 863.16 717.405 862.581 Q719.858 862.003 721.895 862.003 Q727.266 862.003 730.46 864.688 Q733.655 867.373 733.655 871.864 Q733.655 873.993 732.845 875.915 Q732.057 877.813 729.951 880.405 Q729.372 881.077 726.27 884.294 Q723.169 887.489 717.521 893.253 Z" fill="#000000" fill-rule="nonzero" fill-opacity="1" /><path clip-path="url(#clip720)" d="M676.664 697.367 Q673.053 697.367 671.224 700.931 Q669.419 704.473 669.419 711.603 Q669.419 718.709 671.224 722.274 Q673.053 725.815 676.664 725.815 Q680.298 725.815 682.104 722.274 Q683.933 718.709 683.933 711.603 Q683.933 704.473 682.104 700.931 Q680.298 697.367 676.664 697.367 M676.664 693.663 Q682.474 693.663 685.53 698.269 Q688.609 702.853 688.609 711.603 Q688.609 720.329 685.53 724.936 Q682.474 729.519 676.664 729.519 Q670.854 729.519 667.775 724.936 Q664.72 720.329 664.72 711.603 Q664.72 702.853 667.775 698.269 Q670.854 693.663 676.664 693.663 Z" fill="#000000" fill-rule="nonzero" fill-opacity="1" /><path clip-path="url(#clip720)" d="M696.826 722.968 L701.71 722.968 L701.71 728.848 L696.826 728.848 L696.826 722.968 Z" fill="#000000" fill-rule="nonzero" fill-opacity="1" /><path clip-path="url(#clip720)" d="M721.895 697.367 Q718.284 697.367 716.456 700.931 Q714.65 704.473 714.65 711.603 Q714.65 718.709 716.456 722.274 Q718.284 725.815 721.895 725.815 Q725.53 725.815 727.335 722.274 Q729.164 718.709 729.164 711.603 Q729.164 704.473 727.335 700.931 Q725.53 697.367 721.895 697.367 M721.895 693.663 Q727.706 693.663 730.761 698.269 Q733.84 702.853 733.84 711.603 Q733.84 720.329 730.761 724.936 Q727.706 729.519 721.895 729.519 Q716.085 729.519 713.007 724.936 Q709.951 720.329 709.951 711.603 Q709.951 702.853 713.007 698.269 Q716.085 693.663 721.895 693.663 Z" fill="#000000" fill-rule="nonzero" fill-opacity="1" /><path clip-path="url(#clip720)" d="M678.261 529.027 Q674.65 529.027 672.822 532.592 Q671.016 536.133 671.016 543.263 Q671.016 550.369 672.822 553.934 Q674.65 557.476 678.261 557.476 Q681.896 557.476 683.701 553.934 Q685.53 550.369 685.53 543.263 Q685.53 536.133 683.701 532.592 Q681.896 529.027 678.261 529.027 M678.261 525.323 Q684.072 525.323 687.127 529.93 Q690.206 534.513 690.206 543.263 Q690.206 551.99 687.127 556.596 Q684.072 561.179 678.261 561.179 Q672.451 561.179 669.373 556.596 Q666.317 551.99 666.317 543.263 Q666.317 534.513 669.373 529.93 Q672.451 525.323 678.261 525.323 Z" fill="#000000" fill-rule="nonzero" fill-opacity="1" /><path clip-path="url(#clip720)" d="M698.423 554.628 L703.308 554.628 L703.308 560.508 L698.423 560.508 L698.423 554.628 Z" fill="#000000" fill-rule="nonzero" fill-opacity="1" /><path clip-path="url(#clip720)" d="M717.521 556.573 L733.84 556.573 L733.84 560.508 L711.896 560.508 L711.896 556.573 Q714.558 553.818 719.141 549.189 Q723.747 544.536 724.928 543.193 Q727.173 540.67 728.053 538.934 Q728.956 537.175 728.956 535.485 Q728.956 532.73 727.011 530.994 Q725.09 529.258 721.988 529.258 Q719.789 529.258 717.335 530.022 Q714.905 530.786 712.127 532.337 L712.127 527.615 Q714.951 526.48 717.405 525.902 Q719.858 525.323 721.895 525.323 Q727.266 525.323 730.46 528.008 Q733.655 530.693 733.655 535.184 Q733.655 537.314 732.845 539.235 Q732.057 541.133 729.951 543.726 Q729.372 544.397 726.27 547.615 Q723.169 550.809 717.521 556.573 Z" fill="#000000" fill-rule="nonzero" fill-opacity="1" /><path clip-path="url(#clip720)" d="M554.886 869.158 L533.306 869.158 L533.306 863.302 L554.663 863.302 Q559.724 863.302 562.27 861.329 Q564.784 859.355 564.784 855.408 Q564.784 850.666 561.761 847.929 Q558.737 845.16 553.517 845.16 L533.306 845.16 L533.306 839.303 L568.954 839.303 L568.954 845.16 L563.479 845.16 Q566.726 847.292 568.317 850.125 Q569.877 852.926 569.877 856.65 Q569.877 862.793 566.057 865.975 Q562.238 869.158 554.886 869.158 M532.447 854.422 L532.447 854.422 Z" fill="#000000" fill-rule="nonzero" fill-opacity="1" /><path clip-path="url(#clip720)" d="M519.429 827.781 L519.429 814.286 L523.98 814.286 L523.98 821.925 L572.996 821.925 L572.996 814.286 L577.548 814.286 L577.548 827.781 L519.429 827.781 Z" fill="#000000" fill-rule="nonzero" fill-opacity="1" /><path clip-path="url(#clip720)" d="M543.332 781.503 Q544.319 776.887 547.438 774.309 Q550.557 771.699 555.14 771.699 Q562.174 771.699 566.026 776.537 Q569.877 781.375 569.877 790.287 Q569.877 793.279 569.272 796.462 Q568.699 799.613 567.522 802.987 L561.315 802.987 Q562.875 800.313 563.67 797.13 Q564.466 793.948 564.466 790.478 Q564.466 784.431 562.079 781.28 Q559.692 778.097 555.14 778.097 Q550.939 778.097 548.584 781.057 Q546.196 783.985 546.196 789.237 L546.196 794.775 L540.913 794.775 L540.913 788.982 Q540.913 784.24 539.035 781.725 Q537.125 779.211 533.561 779.211 Q529.9 779.211 527.959 781.821 Q525.985 784.399 525.985 789.237 Q525.985 791.879 526.558 794.902 Q527.131 797.926 528.341 801.555 L522.612 801.555 Q521.593 797.894 521.084 794.711 Q520.575 791.497 520.575 788.664 Q520.575 781.343 523.917 777.078 Q527.227 772.813 532.892 772.813 Q536.839 772.813 539.576 775.073 Q542.282 777.333 543.332 781.503 Z" fill="#000000" fill-rule="nonzero" fill-opacity="1" /><path clip-path="url(#clip720)" d="M519.429 746.65 L577.548 746.65 L577.548 760.146 L572.996 760.146 L572.996 752.539 L523.98 752.539 L523.98 760.146 L519.429 760.146 L519.429 746.65 Z" fill="#000000" fill-rule="nonzero" fill-opacity="1" /><polyline clip-path="url(#clip722)" style="stroke:#009af9; stroke-linecap:round; stroke-linejoin:round; stroke-width:4; stroke-opacity:1; fill:none" points="1621.74,1156.04 1618.04,1158.49 1614.22,1160.91 1610.28,1163.3 1606.21,1165.64 1602.02,1167.94 1597.72,1170.19 1593.29,1172.4 1588.75,1174.57 1584.1,1176.69 1579.33,1178.76 1574.45,1180.79 1569.47,1182.76 1564.37,1184.69 1559.18,1186.56 1553.88,1188.38 1548.48,1190.15 1542.98,1191.86 1537.38,1193.51 1531.69,1195.12 1525.91,1196.66 1520.04,1198.14 1514.09,1199.57 1508.05,1200.94 1501.92,1202.24 1495.72,1203.49 1489.44,1204.67 1483.08,1205.79 1476.65,1206.84 1470.15,1207.84 1463.59,1208.76 1456.95,1209.62 1450.26,1210.42 1443.51,1211.15 1436.7,1211.81 1429.83,1212.4 1422.92,1212.93 1415.95,1213.39 1408.94,1213.77 1401.89,1214.09 1394.79,1214.34 1387.66,1214.52 1380.49,1214.62 1373.29,1214.66 1366.06,1214.62 1358.81,1214.52 1351.53,1214.34 1344.23,1214.09 1336.91,1213.77 1329.58,1213.37 1322.24,1212.9 1314.89,1212.36 1307.53,1211.75 1300.17,1211.07 1292.8,1210.31 1285.44,1209.48 1278.09,1208.57 1270.74,1207.6 1263.41,1206.55 1256.09,1205.43 1248.79,1204.24 1241.5,1202.98 1234.24,1201.64 1227.01,1200.23 1219.8,1198.75 1212.63,1197.21 1205.49,1195.59 1198.39,1193.9 1191.32,1192.14 1184.3,1190.31 1177.33,1188.41 1170.4,1186.45 1163.53,1184.41 1156.71,1182.31 1149.94,1180.14 1143.24,1177.91 1136.59,1175.61 1130.01,1173.24 1123.5,1170.81 1117.06,1168.32 1110.69,1165.76 1104.39,1163.15 1098.17,1160.47 1092.04,1157.72 1085.98,1154.92 1080.01,1152.06 1074.12,1149.14 1068.33,1146.17 1062.62,1143.14 1057.01,1140.05 1051.5,1136.9 1046.08,1133.71 1040.77,1130.46 1035.55,1127.16 1030.45,1123.81 1025.44,1120.4 1020.55,1116.95 1015.77,1113.46 1011.1,1109.91 1006.54,1106.32 1002.1,1102.69 997.779,1099.01 993.576,1095.29 989.495,1091.53 985.536,1087.73 981.702,1083.9 977.994,1080.02 974.413,1076.11 970.961,1072.17 967.64,1068.19 964.45,1064.18 961.392,1060.14 958.469,1056.07 955.681,1051.97 953.03,1047.85 950.515,1043.7 948.139,1039.53 945.903,1035.33 943.807,1031.12 941.851,1026.88 940.038,1022.62 938.367,1018.35 936.84,1014.07 935.456,1009.77 934.217,1005.45 933.123,1001.13 932.174,996.792 931.37,992.449 930.713,988.1 930.202,983.745 929.838,979.386 929.621,975.024 929.55,970.662 929.626,966.3 929.849,961.94 930.218,957.583 930.734,953.231 931.397,948.886 932.205,944.548 933.16,940.219 934.26,935.902 935.504,931.596 936.894,927.304 938.427,923.027 940.104,918.766 941.923,914.523 943.885,910.3 945.987,906.097 948.23,901.916 950.613,897.759 953.134,893.626 955.793,889.52 958.588,885.442 961.519,881.392 964.584,877.373 967.782,873.385 971.111,869.43 974.572,865.51 978.161,861.625 981.878,857.777 985.722,853.967 989.69,850.197 993.781,846.466 997.993,842.778 1002.33,839.133 1006.78,835.532 1011.34,831.976 1016.03,828.467 1020.82,825.005 1025.73,821.592 1030.74,818.229 1035.86,814.916 1041.09,811.656 1046.42,808.448 1051.85,805.295 1057.37,802.196 1063,799.153 1068.72,796.167 1074.53,793.239 1080.43,790.369 1086.42,787.559 1092.49,784.809 1098.65,782.12 1104.88,779.493 1111.2,776.929 1117.58,774.428 1124.05,771.991 1130.58,769.619 1137.18,767.313 1143.84,765.073 1150.57,762.9 1157.35,760.794 1164.2,758.756 1171.1,756.786 1178.05,754.886 1185.04,753.055 1192.09,751.294 1199.18,749.603 1206.31,747.983 1213.47,746.433 1220.67,744.956 1227.91,743.55 1235.17,742.216 1242.46,740.955 1249.77,739.766 1257.11,738.649 1264.46,737.606 1271.83,736.635 1279.21,735.738 1286.59,734.914 1293.99,734.163 1301.39,733.485 1308.79,732.881 1316.18,732.35 1323.57,731.892 1330.96,731.508 1338.33,731.196 1345.68,730.957 1353.03,730.791 1360.35,730.697 1367.65,730.676 1374.92,730.726 1382.16,730.849 1389.38,731.042 1396.56,731.307 1403.7,731.642 1410.81,732.047 1417.87,732.523 1424.88,733.067 1431.85,733.681 1438.77,734.363 1445.63,735.113 1452.44,735.93 1459.19,736.813 1465.88,737.763 1472.51,738.778 1479.07,739.859 1485.55,741.003 1491.97,742.21 1498.32,743.48 1504.58,744.812 1510.77,746.205 1516.88,747.658 1522.9,749.171 1528.84,750.742 1534.69,752.371 1540.44,754.057 1546.11,755.798 1551.68,757.594 1557.15,759.445 1562.52,761.348 1567.79,763.303 1572.96,765.309 1578.02,767.365 1582.97,769.469 1587.82,771.621 1592.55,773.82 1597.17,776.064 1601.67,778.352 1606.06,780.684 1610.33,783.057 1614.47,785.471 1618.5,787.924 1622.4,790.416 1626.18,792.945 1629.83,795.509 1633.35,798.108 1636.75,800.741 1640.01,803.405 1643.14,806.099 1646.14,808.823 1649,811.575 1651.73,814.354 1654.32,817.157 1656.77,819.985 1659.09,822.835 1661.26,825.706 1663.3,828.597 1665.2,831.506 1666.95,834.432 1668.56,837.373 1670.03,840.329 1671.35,843.297 1672.53,846.276 1673.57,849.266 1674.46,852.263 1675.2,855.267 1675.8,858.277 1676.25,861.291 1676.56,864.307 1676.72,867.325 1676.74,870.342 1676.61,873.357 1676.33,876.369 1675.91,879.377 1675.34,882.378 1674.62,885.372 1673.76,888.357 1672.76,891.331 1671.61,894.294 1670.32,897.243 1668.88,900.178 1667.3,903.096 1665.58,905.997 1663.71,908.879 1661.71,911.741 1659.56,914.581 1657.27,917.398 1654.85,920.19 1652.29,922.957 1649.59,925.697 1646.76,928.408 1643.79,931.09 1640.69,933.74 1637.45,936.358 1634.09,938.943 1630.6,941.493 1626.98,944.006 1623.23,946.482 1619.36,948.919 1615.36,951.317 1611.24,953.673 1607,955.987 1602.64,958.258 1598.17,960.485 1593.58,962.665 1588.87,964.799 1584.06,966.885 1579.13,968.922 1574.1,970.909 1568.96,972.845 1563.72,974.729 1558.38,976.56 1552.93,978.338 1547.39,980.06 1541.75,981.726 1536.02,983.335 1530.2,984.887 1524.29,986.38 1518.3,987.814 1512.22,989.188 1506.06,990.5 1499.82,991.751 1493.5,992.94 1487.11,994.065 1480.65,995.126 1474.12,996.123 1467.52,997.055 1460.86,997.92 1454.13,998.719 1447.35,999.451 1440.51,1000.12 1433.62,1000.71 1426.68,1001.24 1419.69,1001.7 1412.66,1002.09 1405.58,1002.41 1398.46,1002.66 1391.31,1002.84 1384.12,1002.94 1376.91,1002.98 1369.66,1002.94 1362.39,1002.84 1355.09,1002.66 1347.78,1002.41 1340.45,1002.08 1333.11,1001.69 1325.75,1001.22 1318.39,1000.68 1311.02,1000.06 1303.65,999.378 1296.28,998.619 1288.91,997.787 1281.55,996.882 1274.2,995.905 1266.86,994.855 1259.54,993.733 1252.24,992.539 1244.95,991.273 1237.69,989.936 1230.46,988.527 1223.25,987.047 1216.08,985.496 1208.95,983.875 1201.85,982.183 1194.79,980.422 1187.78,978.592 1180.81,976.693 1173.89,974.726 1167.02,972.69 1160.21,970.588 1153.46,968.419 1146.76,966.184 1140.13,963.883 1133.56,961.517 1127.06,959.087 1120.63,956.594 1114.28,954.038 1108,951.42 1101.79,948.74 1095.67,946 1089.63,943.2 1083.68,940.342 1077.81,937.425 1072.03,934.452 1066.34,931.422 1060.75,928.337 1055.26,925.197 1049.86,922.004 1044.57,918.759 1039.37,915.463 1034.29,912.116 1029.3,908.72 1024.43,905.275 1019.67,901.784 1015.02,898.246 1010.49,894.664 1006.07,891.038 1001.77,887.369 997.593,883.66 993.534,879.909 989.599,876.12 985.788,872.294 982.104,868.43 978.547,864.532 975.119,860.6 971.821,856.634 968.655,852.638 965.621,848.612 962.722,844.557 959.958,840.474 957.33,836.366 954.84,832.232 952.487,828.076 950.275,823.898 948.202,819.699 946.27,815.481 944.48,811.245 942.832,806.993 941.327,802.726 939.966,798.446 938.75,794.154 937.677,789.851 936.75,785.539 935.969,781.219 935.333,776.893 934.843,772.563 934.5,768.229 934.303,763.893 934.252,759.557 934.348,755.221 934.59,750.888 934.979,746.56 935.514,742.236 936.195,737.919 937.021,733.611 937.993,729.313 939.11,725.025 940.372,720.75 941.778,716.49 943.327,712.245 945.019,708.016 946.854,703.806 948.83,699.616 950.946,695.447 953.203,691.301 955.599,687.178 958.133,683.081 960.804,679.01 963.611,674.967 966.553,670.954 969.629,666.971 972.837,663.02 976.177,659.103 979.647,655.22 983.245,651.373 986.971,647.563 990.822,643.791 994.798,640.059 998.896,636.368 1003.12,632.719 1007.45,629.113 1011.91,625.551 1016.48,622.035 1021.17,618.566 1025.97,615.144 1030.88,611.771 1035.9,608.448 1041.02,605.176 1046.25,601.956 1051.58,598.789 1057.01,595.676 1062.54,592.617 1068.17,589.615 1073.89,586.67 1079.7,583.782 1085.6,580.953 1091.59,578.184 1097.66,575.474 1103.82,572.826 1110.05,570.24 1116.37,567.716 1122.75,565.256 1129.21,562.86 1135.74,560.528 1142.34,558.262 1149,556.062 1155.72,553.929 1162.51,551.863 1169.34,549.865 1176.24,547.935 1183.18,546.074 1190.18,544.282 1197.22,542.56 1204.3,540.908 1211.42,539.327 1218.58,537.816 1225.78,536.377 1233.01,535.01 1240.26,533.714 1247.55,532.491 1254.85,531.339 1262.18,530.261 1269.52,529.255 1276.88,528.321 1284.25,527.461 1291.63,526.674 1299.02,525.959 1306.41,525.318 1313.8,524.75 1321.18,524.255 1328.57,523.833 1335.94,523.484 1343.3,523.208 1350.65,523.004 1357.98,522.873 1365.29,522.814 1372.58,522.827 1379.84,522.912 1387.07,523.068 1394.27,523.295 1401.44,523.594 1408.57,523.963 1415.66,524.401 1422.71,524.91 1429.72,525.487 1436.67,526.134 1443.57,526.848 1450.42,527.631 1457.22,528.48 1463.95,529.396 1470.63,530.378 1477.24,531.425 1483.78,532.536 1490.26,533.712 1496.66,534.951 1502.98,536.252 1509.24,537.615 1515.41,539.039 1521.5,540.523 1527.5,542.066 1533.42,543.668 1539.25,545.327 1544.99,547.043 1550.64,548.814 1556.19,550.641 1561.64,552.521 1566.99,554.454 1572.24,556.439 1577.39,558.474 1582.43,560.559 1587.36,562.693 1592.19,564.875 1596.9,567.103 1601.49,569.376 1605.97,571.694 1610.34,574.054 1614.58,576.457 1618.71,578.9 1622.71,581.382 1626.59,583.903 1630.34,586.46 1633.97,589.054 1637.47,591.682 1640.84,594.342 1644.08,597.035 1647.18,599.759 1650.15,602.511 1652.99,605.292 1655.69,608.099 1658.26,610.931 1660.68,613.787 1662.97,616.666 1665.12,619.565 1667.13,622.485 1669,625.422 1670.72,628.377 1672.3,631.347 1673.74,634.331 1675.04,637.327 1676.19,640.335 1677.2,643.353 1678.06,646.378 1678.77,649.411 1679.34,652.449 1679.77,655.491 1680.04,658.536 1680.18,661.582 1680.16,664.627 1680,667.671 1679.69,670.711 1679.24,673.746 1678.64,676.776 1677.89,679.797 1677,682.81 1675.96,685.812 1674.78,688.803 1673.46,691.78 1671.99,694.742 1670.38,697.688 1668.62,700.616 1666.73,703.526 1664.69,706.415 1662.51,709.282 1660.19,712.126 1657.74,714.946 1655.15,717.739 1652.42,720.506 1649.55,723.244 1646.55,725.952 1643.42,728.628 1640.16,731.273 1636.76,733.883 1633.24,736.459 1629.59,738.998 1625.81,741.499 1621.9,743.962 1617.88,746.384 1613.73,748.766 1609.46,751.105 1605.07,753.4 1600.57,755.651 1595.95,757.856 1591.22,760.013 1586.37,762.123 1581.42,764.184 1576.36,766.194 1571.19,768.153 1565.92,770.06 1560.55,771.914 1555.08,773.713 1549.51,775.457 1543.85,777.145 1538.1,778.776 1532.25,780.35 1526.32,781.864 1520.3,783.319 1514.19,784.713 1508.01,786.046 1501.75,787.317 1495.41,788.525 1489,789.67 1482.51,790.751 1475.96,791.767 1469.34,792.717 1462.66,793.602 1455.92,794.419 1449.12,795.17 1442.26,795.852 1435.35,796.466 1428.39,797.012 1421.39,797.488 1414.33,797.894 1407.24,798.231 1400.11,798.497 1392.94,798.692 1385.74,798.816 1378.51,798.868 1371.25,798.849 1363.96,798.757 1356.66,798.594 1349.33,798.358 1341.99,798.05 1334.64,797.669 1327.27,797.216 1319.9,796.689 1312.52,796.09 1305.14,795.418 1297.76,794.673 1290.38,793.855 1283.02,792.964 1275.66,792.001 1268.31,790.965 1260.98,789.857 1253.67,788.677 1246.38,787.425 1239.12,786.101 1231.88,784.706 1224.67,783.24 1217.49,781.703 1210.35,780.095 1203.25,778.417 1196.19,776.67 1189.17,774.853 1182.2,772.968 1175.28,771.014 1168.41,768.993 1161.6,766.904 1154.84,764.749 1148.14,762.527 1141.51,760.241 1134.94,757.889 1128.44,755.473 1122.01,752.994 1115.65,750.453 1109.37,747.849 1103.17,745.184 1097.04,742.459 1091,739.674 1085.05,736.831 1079.18,733.929 1073.4,730.971 1067.72,727.957 1062.13,724.888 1056.63,721.764 1051.23,718.587 1045.94,715.359 1040.75,712.079 1035.66,708.748 1030.68,705.369 1025.81,701.942 1021.05,698.468 1016.4,694.949 1011.86,691.384 1007.45,687.777 1003.15,684.127 998.966,680.435 994.907,676.704 990.971,672.935 987.16,669.128 983.474,665.284 979.916,661.406 976.487,657.494 973.187,653.55 970.019,649.575 966.984,645.57 964.083,641.536 961.316,637.476 958.686,633.39 956.193,629.279 953.838,625.146 951.621,620.991 949.545,616.815 947.609,612.621 945.815,608.41 944.163,604.182 942.653,599.94 941.287,595.685 940.065,591.418 938.987,587.141 938.054,582.855 937.266,578.562 936.624,574.262 936.127,569.958 935.777,565.651 935.572,561.343 935.513,557.034 935.601,552.727 935.835,548.422 936.215,544.121 936.74,539.826 937.411,535.539 938.228,531.259 939.19,526.99 940.296,522.732 941.547,518.487 942.942,514.256 944.479,510.041 946.16,505.843 947.982,501.663 949.946,497.503 952.05,493.365 954.293,489.249 956.676,485.157 959.196,481.091 961.854,477.051 964.647,473.039 967.574,469.057 970.636,465.105 973.829,461.186 977.154,457.3 980.609,453.448 984.192,449.632 987.902,445.854 991.738,442.113 995.698,438.412 999.781,434.752 1003.98,431.134 1008.31,427.559 1012.75,424.029 1017.3,420.544 1021.97,417.105 1026.76,413.714 1031.65,410.372 1036.65,407.079 1041.76,403.837 1046.97,400.648 1052.29,397.511 1057.7,394.427 1063.22,391.399 1068.83,388.426 1074.53,385.51 1080.32,382.652 1086.21,379.852 1092.18,377.111 1098.24,374.43 1104.38,371.811 1110.6,369.252 1116.89,366.757 1123.26,364.324 1129.71,361.955 1136.22,359.651 1142.8,357.412 1149.45,355.239 1156.16,353.132 1162.93,351.093 1169.75,349.12 1176.63,347.216 1183.56,345.381 1190.54,343.614 1197.57,341.917 1204.64,340.29 1211.75,338.733 1218.9,337.247 1226.08,335.832 1233.3,334.488 1240.54,333.216 1247.81,332.016 1255.11,330.888 1262.42,329.832 1269.76,328.848 1277.11,327.937 1284.47,327.099 1291.84,326.334 1299.22,325.641 1306.6,325.021 1313.98,324.474 1321.35,324 1328.73,323.599 1336.09,323.271 1343.45,323.015 1350.79,322.831 1358.11,322.72 1365.42,322.681 1372.7,322.714 1379.95,322.819 1387.18,322.994 1394.38,323.241 1401.54,323.559 1408.66,323.947 1415.75,324.404 1422.8,324.932 1429.79,325.528 1436.75,326.193 1443.65,326.926 1450.49,327.727 1457.28,328.595 1464.02,329.529 1470.69,330.529 1477.29,331.594 1483.84,332.724 1490.31,333.918 1496.71,335.175 1503.03,336.495 1509.28,337.876 1515.45,339.318 1521.54,340.82 1527.54,342.382 1533.46,344.002 1539.29,345.679 1545.03,347.414 1550.67,349.204 1556.22,351.049 1561.68,352.948 1567.03,354.899 1572.28,356.903 1577.42,358.958 1582.47,361.062 1587.4,363.215 1592.22,365.416 1596.93,367.663 1601.53,369.956 1606.01,372.294 1610.37,374.674 1614.62,377.096 1618.74,379.56 1622.75,382.063 1626.63,384.604 1630.38,387.182 1634.01,389.797 1637.5,392.446 1640.87,395.128 1644.11,397.843 1647.22,400.588 1650.19,403.363 1653.02,406.165 1655.73,408.995 1658.29,411.85 1660.72,414.729 1663,417.631 1665.15,420.554 1667.16,423.497 1669.03,426.459 1670.75,429.438 1672.33,432.432 1673.77,435.441 1675.06,438.462 1676.21,441.496 1677.22,444.539 1678.08,447.59 1678.79,450.649 1679.36,453.713 1679.78,456.782 1680.05,459.854 1680.18,462.926 1680.16,465.999 1680,469.07 1679.69,472.138 1679.23,475.202 1678.63,478.259 1677.88,481.31 1676.98,484.351 1675.94,487.382 1674.76,490.402 1673.43,493.408 1671.96,496.4 1670.34,499.376 1668.58,502.334 1666.68,505.274 1664.64,508.193 1662.45,511.091 1660.13,513.966 1657.67,516.816 1655.07,519.641 1652.34,522.439 1649.46,525.208 1646.46,527.947 1643.32,530.656 1640.05,533.332 1636.65,535.974 1633.12,538.581 1629.46,541.152 1625.67,543.686 1621.76,546.181 1617.73,548.635 1613.58,551.049 1609.3,553.42 1604.9,555.748 1600.39,558.031 1595.77,560.268 1591.03,562.458 1586.18,564.601 1581.21,566.694 1576.15,568.736 1570.97,570.728 1565.69,572.667 1560.32,574.553 1554.84,576.385 1549.26,578.161 1543.59,579.882 1537.83,581.545 1531.98,583.15 1526.03,584.696 1520.01,586.183 1513.9,587.609 1507.7,588.974 1501.43,590.277 1495.09,591.517 1488.66,592.693 1482.17,593.806 1475.61,594.853 1468.99,595.834 1462.3,596.75 1455.54,597.598 1448.74,598.38 1441.87,599.093 1434.95,599.738 1427.99,600.314 1420.97,600.82 1413.91,601.257 1406.81,601.624 1399.67,601.92 1392.5,602.145 1385.29,602.298 1378.05,602.381 1370.78,602.391 1363.48,602.329 1356.17,602.195 1348.84,601.988 1341.48,601.709 1334.12,601.357 1326.75,600.932 1319.36,600.434 1311.98,599.864 1304.59,599.22 1297.2,598.503 1289.82,597.714 1282.44,596.851 1275.07,595.916 1267.72,594.908 "/>
<path clip-path="url(#clip720)" d="M327.526 1377.32 L887.609 1377.32 L887.609 1273.64 L327.526 1273.64  Z" fill="#ffffff" fill-rule="evenodd" fill-opacity="1"/>
<polyline clip-path="url(#clip720)" style="stroke:#000000; stroke-linecap:round; stroke-linejoin:round; stroke-width:4; stroke-opacity:1; fill:none" points="327.526,1377.32 887.609,1377.32 887.609,1273.64 327.526,1273.64 327.526,1377.32 "/>
<polyline clip-path="url(#clip720)" style="stroke:#009af9; stroke-linecap:round; stroke-linejoin:round; stroke-width:4; stroke-opacity:1; fill:none" points="350.804,1325.48 490.475,1325.48 "/>
<path clip-path="url(#clip720)" d="M524.379 1306.78 Q521.277 1312.11 519.772 1317.32 Q518.268 1322.52 518.268 1327.87 Q518.268 1333.22 519.772 1338.47 Q521.3 1343.7 524.379 1349.01 L520.675 1349.01 Q517.203 1343.57 515.467 1338.31 Q513.754 1333.06 513.754 1327.87 Q513.754 1322.71 515.467 1317.48 Q517.18 1312.25 520.675 1306.78 L524.379 1306.78 Z" fill="#000000" fill-rule="nonzero" fill-opacity="1" /><path clip-path="url(#clip720)" d="M532.203 1332.52 L532.203 1316.83 L536.462 1316.83 L536.462 1332.36 Q536.462 1336.04 537.897 1337.89 Q539.332 1339.72 542.203 1339.72 Q545.652 1339.72 547.642 1337.52 Q549.656 1335.32 549.656 1331.53 L549.656 1316.83 L553.916 1316.83 L553.916 1342.76 L549.656 1342.76 L549.656 1338.77 Q548.105 1341.13 546.045 1342.29 Q544.008 1343.43 541.3 1343.43 Q536.832 1343.43 534.518 1340.65 Q532.203 1337.87 532.203 1332.52 M542.92 1316.2 L542.92 1316.2 Z" fill="#000000" fill-rule="nonzero" fill-opacity="1" /><path clip-path="url(#clip720)" d="M562.295 1306.74 L572.11 1306.74 L572.11 1310.05 L566.554 1310.05 L566.554 1345.7 L572.11 1345.7 L572.11 1349.01 L562.295 1349.01 L562.295 1306.74 Z" fill="#000000" fill-rule="nonzero" fill-opacity="1" /><path clip-path="url(#clip720)" d="M582.596 1338.82 L590.235 1338.82 L590.235 1312.45 L581.925 1314.12 L581.925 1309.86 L590.189 1308.2 L594.864 1308.2 L594.864 1338.82 L602.503 1338.82 L602.503 1342.76 L582.596 1342.76 L582.596 1338.82 Z" fill="#000000" fill-rule="nonzero" fill-opacity="1" /><path clip-path="url(#clip720)" d="M621.299 1306.74 L621.299 1349.01 L611.485 1349.01 L611.485 1345.7 L617.017 1345.7 L617.017 1310.05 L611.485 1310.05 L611.485 1306.74 L621.299 1306.74 Z" fill="#000000" fill-rule="nonzero" fill-opacity="1" /><path clip-path="url(#clip720)" d="M630.929 1336.88 L635.813 1336.88 L635.813 1340.86 L632.017 1348.26 L629.031 1348.26 L630.929 1340.86 L630.929 1336.88 Z" fill="#000000" fill-rule="nonzero" fill-opacity="1" /><path clip-path="url(#clip720)" d="M644.471 1332.52 L644.471 1316.83 L648.73 1316.83 L648.73 1332.36 Q648.73 1336.04 650.165 1337.89 Q651.6 1339.72 654.471 1339.72 Q657.92 1339.72 659.91 1337.52 Q661.924 1335.32 661.924 1331.53 L661.924 1316.83 L666.183 1316.83 L666.183 1342.76 L661.924 1342.76 L661.924 1338.77 Q660.373 1341.13 658.313 1342.29 Q656.276 1343.43 653.568 1343.43 Q649.1 1343.43 646.785 1340.65 Q644.471 1337.87 644.471 1332.52 M655.188 1316.2 L655.188 1316.2 Z" fill="#000000" fill-rule="nonzero" fill-opacity="1" /><path clip-path="url(#clip720)" d="M674.563 1306.74 L684.378 1306.74 L684.378 1310.05 L678.822 1310.05 L678.822 1345.7 L684.378 1345.7 L684.378 1349.01 L674.563 1349.01 L674.563 1306.74 Z" fill="#000000" fill-rule="nonzero" fill-opacity="1" /><path clip-path="url(#clip720)" d="M698.081 1338.82 L714.401 1338.82 L714.401 1342.76 L692.456 1342.76 L692.456 1338.82 Q695.119 1336.07 699.702 1331.44 Q704.308 1326.78 705.489 1325.44 Q707.734 1322.92 708.614 1321.18 Q709.517 1319.42 709.517 1317.73 Q709.517 1314.98 707.572 1313.24 Q705.651 1311.51 702.549 1311.51 Q700.35 1311.51 697.896 1312.27 Q695.466 1313.03 692.688 1314.58 L692.688 1309.86 Q695.512 1308.73 697.966 1308.15 Q700.419 1307.57 702.456 1307.57 Q707.827 1307.57 711.021 1310.26 Q714.216 1312.94 714.216 1317.43 Q714.216 1319.56 713.405 1321.48 Q712.618 1323.38 710.512 1325.97 Q709.933 1326.64 706.831 1329.86 Q703.73 1333.06 698.081 1338.82 Z" fill="#000000" fill-rule="nonzero" fill-opacity="1" /><path clip-path="url(#clip720)" d="M733.567 1306.74 L733.567 1349.01 L723.753 1349.01 L723.753 1345.7 L729.285 1345.7 L729.285 1310.05 L723.753 1310.05 L723.753 1306.74 L733.567 1306.74 Z" fill="#000000" fill-rule="nonzero" fill-opacity="1" /><path clip-path="url(#clip720)" d="M743.197 1336.88 L748.081 1336.88 L748.081 1340.86 L744.285 1348.26 L741.299 1348.26 L743.197 1340.86 L743.197 1336.88 Z" fill="#000000" fill-rule="nonzero" fill-opacity="1" /><path clip-path="url(#clip720)" d="M756.739 1332.52 L756.739 1316.83 L760.998 1316.83 L760.998 1332.36 Q760.998 1336.04 762.433 1337.89 Q763.868 1339.72 766.738 1339.72 Q770.188 1339.72 772.178 1337.52 Q774.192 1335.32 774.192 1331.53 L774.192 1316.83 L778.451 1316.83 L778.451 1342.76 L774.192 1342.76 L774.192 1338.77 Q772.641 1341.13 770.581 1342.29 Q768.544 1343.43 765.836 1343.43 Q761.368 1343.43 759.053 1340.65 Q756.739 1337.87 756.739 1332.52 M767.456 1316.2 L767.456 1316.2 Z" fill="#000000" fill-rule="nonzero" fill-opacity="1" /><path clip-path="url(#clip720)" d="M786.831 1306.74 L796.646 1306.74 L796.646 1310.05 L791.09 1310.05 L791.09 1345.7 L796.646 1345.7 L796.646 1349.01 L786.831 1349.01 L786.831 1306.74 Z" fill="#000000" fill-rule="nonzero" fill-opacity="1" /><path clip-path="url(#clip720)" d="M820.488 1324.12 Q823.845 1324.84 825.72 1327.11 Q827.618 1329.38 827.618 1332.71 Q827.618 1337.82 824.099 1340.63 Q820.581 1343.43 814.099 1343.43 Q811.923 1343.43 809.609 1342.99 Q807.317 1342.57 804.863 1341.71 L804.863 1337.2 Q806.808 1338.33 809.123 1338.91 Q811.437 1339.49 813.96 1339.49 Q818.359 1339.49 820.65 1337.76 Q822.965 1336.02 822.965 1332.71 Q822.965 1329.65 820.812 1327.94 Q818.683 1326.2 814.863 1326.2 L810.835 1326.2 L810.835 1322.36 L815.048 1322.36 Q818.497 1322.36 820.326 1321 Q822.155 1319.61 822.155 1317.01 Q822.155 1314.35 820.257 1312.94 Q818.382 1311.51 814.863 1311.51 Q812.942 1311.51 810.743 1311.92 Q808.544 1312.34 805.905 1313.22 L805.905 1309.05 Q808.567 1308.31 810.882 1307.94 Q813.22 1307.57 815.28 1307.57 Q820.604 1307.57 823.706 1310 Q826.808 1312.41 826.808 1316.53 Q826.808 1319.4 825.164 1321.39 Q823.521 1323.36 820.488 1324.12 Z" fill="#000000" fill-rule="nonzero" fill-opacity="1" /><path clip-path="url(#clip720)" d="M845.835 1306.74 L845.835 1349.01 L836.021 1349.01 L836.021 1345.7 L841.553 1345.7 L841.553 1310.05 L836.021 1310.05 L836.021 1306.74 L845.835 1306.74 Z" fill="#000000" fill-rule="nonzero" fill-opacity="1" /><path clip-path="url(#clip720)" d="M853.706 1306.78 L857.409 1306.78 Q860.882 1312.25 862.594 1317.48 Q864.331 1322.71 864.331 1327.87 Q864.331 1333.06 862.594 1338.31 Q860.882 1343.57 857.409 1349.01 L853.706 1349.01 Q856.784 1343.7 858.289 1338.47 Q859.817 1333.22 859.817 1327.87 Q859.817 1322.52 858.289 1317.32 Q856.784 1312.11 853.706 1306.78 Z" fill="#000000" fill-rule="nonzero" fill-opacity="1" /></svg>
