<?xml version="1.0" encoding="utf-8"?>
<svg xmlns="http://www.w3.org/2000/svg" xmlns:xlink="http://www.w3.org/1999/xlink" width="600" height="400" viewBox="0 0 2400 1600">
<defs>
  <clipPath id="clip060">
    <rect x="0" y="0" width="2400" height="1600"/>
  </clipPath>
</defs>
<path clip-path="url(#clip060)" d="M0 1600 L2400 1600 L2400 0 L0 0  Z" fill="#ffffff" fill-rule="evenodd" fill-opacity="1"/>
<defs>
  <clipPath id="clip061">
    <rect x="480" y="0" width="1681" height="1600"/>
  </clipPath>
</defs>
<defs>
  <clipPath id="clip062">
    <rect x="194" y="47" width="2159" height="1440"/>
  </clipPath>
</defs>
<path clip-path="url(#clip062)" d="M1001.49 1947.15 L1001.49 1393.97 L1324.06 1117.39 L1882.76 1277.07 L1882.76 1830.25 L1560.19 2106.84 L1001.49 1947.15  Z" fill="#ffffff" fill-rule="evenodd" fill-opacity="1"/>
<polyline clip-path="url(#clip062)" style="stroke:#000000; stroke-linecap:round; stroke-linejoin:round; stroke-width:2; stroke-opacity:0.1; fill:none" points="842.696,1242.13 1258.16,882.325 1258.16,162.723 "/>
<polyline clip-path="url(#clip062)" style="stroke:#000000; stroke-linecap:round; stroke-linejoin:round; stroke-width:2; stroke-opacity:0.1; fill:none" points="982.372,1282.45 1397.83,922.646 1397.83,203.044 "/>
<polyline clip-path="url(#clip062)" style="stroke:#000000; stroke-linecap:round; stroke-linejoin:round; stroke-width:2; stroke-opacity:0.1; fill:none" points="1122.05,1322.77 1537.51,962.967 1537.51,243.365 "/>
<polyline clip-path="url(#clip062)" style="stroke:#000000; stroke-linecap:round; stroke-linejoin:round; stroke-width:2; stroke-opacity:0.1; fill:none" points="1261.73,1363.09 1677.19,1003.29 1677.19,283.687 "/>
<polyline clip-path="url(#clip062)" style="stroke:#000000; stroke-linecap:round; stroke-linejoin:round; stroke-width:2; stroke-opacity:0.1; fill:none" points="1401.4,1403.41 1816.86,1043.61 1816.86,324.008 "/>
<polyline clip-path="url(#clip062)" style="stroke:#000000; stroke-linecap:round; stroke-linejoin:round; stroke-width:2; stroke-opacity:0.1; fill:none" points="1469.23,1372.68 749.625,1164.95 749.625,445.349 "/>
<polyline clip-path="url(#clip062)" style="stroke:#000000; stroke-linecap:round; stroke-linejoin:round; stroke-width:2; stroke-opacity:0.1; fill:none" points="1549.07,1303.53 829.469,1095.8 829.469,376.202 "/>
<polyline clip-path="url(#clip062)" style="stroke:#000000; stroke-linecap:round; stroke-linejoin:round; stroke-width:2; stroke-opacity:0.1; fill:none" points="1628.92,1234.39 909.313,1026.66 909.313,307.055 "/>
<polyline clip-path="url(#clip062)" style="stroke:#000000; stroke-linecap:round; stroke-linejoin:round; stroke-width:2; stroke-opacity:0.1; fill:none" points="1708.76,1165.24 989.158,957.509 989.158,237.908 "/>
<polyline clip-path="url(#clip062)" style="stroke:#000000; stroke-linecap:round; stroke-linejoin:round; stroke-width:2; stroke-opacity:0.1; fill:none" points="1788.6,1096.09 1069,888.362 1069,168.76 "/>
<polyline clip-path="url(#clip062)" style="stroke:#000000; stroke-linecap:round; stroke-linejoin:round; stroke-width:2; stroke-opacity:0.1; fill:none" points="706.057,1094.28 1121.52,734.475 1841.12,942.206 "/>
<polyline clip-path="url(#clip062)" style="stroke:#000000; stroke-linecap:round; stroke-linejoin:round; stroke-width:2; stroke-opacity:0.1; fill:none" points="706.057,918.195 1121.52,558.394 1841.12,766.125 "/>
<polyline clip-path="url(#clip062)" style="stroke:#000000; stroke-linecap:round; stroke-linejoin:round; stroke-width:2; stroke-opacity:0.1; fill:none" points="706.057,742.115 1121.52,382.314 1841.12,590.045 "/>
<polyline clip-path="url(#clip062)" style="stroke:#000000; stroke-linecap:round; stroke-linejoin:round; stroke-width:2; stroke-opacity:0.1; fill:none" points="706.057,566.034 1121.52,206.233 1841.12,413.965 "/>
<polyline clip-path="url(#clip060)" style="stroke:#000000; stroke-linecap:round; stroke-linejoin:round; stroke-width:4; stroke-opacity:1; fill:none" points="706.057,1202.68 1425.66,1410.41 "/>
<polyline clip-path="url(#clip060)" style="stroke:#000000; stroke-linecap:round; stroke-linejoin:round; stroke-width:4; stroke-opacity:1; fill:none" points="842.696,1242.13 847.681,1237.81 "/>
<polyline clip-path="url(#clip060)" style="stroke:#000000; stroke-linecap:round; stroke-linejoin:round; stroke-width:4; stroke-opacity:1; fill:none" points="982.372,1282.45 987.358,1278.13 "/>
<polyline clip-path="url(#clip060)" style="stroke:#000000; stroke-linecap:round; stroke-linejoin:round; stroke-width:4; stroke-opacity:1; fill:none" points="1122.05,1322.77 1127.03,1318.45 "/>
<polyline clip-path="url(#clip060)" style="stroke:#000000; stroke-linecap:round; stroke-linejoin:round; stroke-width:4; stroke-opacity:1; fill:none" points="1261.73,1363.09 1266.71,1358.77 "/>
<polyline clip-path="url(#clip060)" style="stroke:#000000; stroke-linecap:round; stroke-linejoin:round; stroke-width:4; stroke-opacity:1; fill:none" points="1401.4,1403.41 1406.39,1399.09 "/>
<path clip-path="url(#clip060)" d="M727.837 1270.27 L757.513 1270.27 L757.513 1274.2 L727.837 1274.2 L727.837 1270.27 Z" fill="#000000" fill-rule="nonzero" fill-opacity="1" /><path clip-path="url(#clip060)" d="M768.416 1283.16 L776.054 1283.16 L776.054 1256.8 L767.744 1258.46 L767.744 1254.2 L776.008 1252.54 L780.684 1252.54 L780.684 1283.16 L788.323 1283.16 L788.323 1287.1 L768.416 1287.1 L768.416 1283.16 Z" fill="#000000" fill-rule="nonzero" fill-opacity="1" /><path clip-path="url(#clip060)" d="M797.767 1281.22 L802.652 1281.22 L802.652 1287.1 L797.767 1287.1 L797.767 1281.22 Z" fill="#000000" fill-rule="nonzero" fill-opacity="1" /><path clip-path="url(#clip060)" d="M822.837 1255.62 Q819.226 1255.62 817.397 1259.18 Q815.591 1262.72 815.591 1269.85 Q815.591 1276.96 817.397 1280.52 Q819.226 1284.06 822.837 1284.06 Q826.471 1284.06 828.276 1280.52 Q830.105 1276.96 830.105 1269.85 Q830.105 1262.72 828.276 1259.18 Q826.471 1255.62 822.837 1255.62 M822.837 1251.91 Q828.647 1251.91 831.702 1256.52 Q834.781 1261.1 834.781 1269.85 Q834.781 1278.58 831.702 1283.19 Q828.647 1287.77 822.837 1287.77 Q817.026 1287.77 813.948 1283.19 Q810.892 1278.58 810.892 1269.85 Q810.892 1261.1 813.948 1256.52 Q817.026 1251.91 822.837 1251.91 Z" fill="#000000" fill-rule="nonzero" fill-opacity="1" /><path clip-path="url(#clip060)" d="M868.509 1310.59 L898.185 1310.59 L898.185 1314.52 L868.509 1314.52 L868.509 1310.59 Z" fill="#000000" fill-rule="nonzero" fill-opacity="1" /><path clip-path="url(#clip060)" d="M918.277 1295.94 Q914.666 1295.94 912.838 1299.5 Q911.032 1303.04 911.032 1310.17 Q911.032 1317.28 912.838 1320.84 Q914.666 1324.39 918.277 1324.39 Q921.912 1324.39 923.717 1320.84 Q925.546 1317.28 925.546 1310.17 Q925.546 1303.04 923.717 1299.5 Q921.912 1295.94 918.277 1295.94 M918.277 1292.23 Q924.087 1292.23 927.143 1296.84 Q930.222 1301.42 930.222 1310.17 Q930.222 1318.9 927.143 1323.51 Q924.087 1328.09 918.277 1328.09 Q912.467 1328.09 909.388 1323.51 Q906.333 1318.9 906.333 1310.17 Q906.333 1301.42 909.388 1296.84 Q912.467 1292.23 918.277 1292.23 Z" fill="#000000" fill-rule="nonzero" fill-opacity="1" /><path clip-path="url(#clip060)" d="M938.439 1321.54 L943.323 1321.54 L943.323 1327.42 L938.439 1327.42 L938.439 1321.54 Z" fill="#000000" fill-rule="nonzero" fill-opacity="1" /><path clip-path="url(#clip060)" d="M953.555 1292.86 L971.911 1292.86 L971.911 1296.79 L957.837 1296.79 L957.837 1305.27 Q958.856 1304.92 959.874 1304.76 Q960.893 1304.57 961.911 1304.57 Q967.698 1304.57 971.078 1307.74 Q974.458 1310.91 974.458 1316.33 Q974.458 1321.91 970.985 1325.01 Q967.513 1328.09 961.194 1328.09 Q959.018 1328.09 956.749 1327.72 Q954.504 1327.35 952.097 1326.61 L952.097 1321.91 Q954.18 1323.04 956.402 1323.6 Q958.624 1324.15 961.101 1324.15 Q965.106 1324.15 967.444 1322.05 Q969.782 1319.94 969.782 1316.33 Q969.782 1312.72 967.444 1310.61 Q965.106 1308.51 961.101 1308.51 Q959.226 1308.51 957.351 1308.92 Q955.499 1309.34 953.555 1310.22 L953.555 1292.86 Z" fill="#000000" fill-rule="nonzero" fill-opacity="1" /><path clip-path="url(#clip060)" d="M1056.96 1336.26 Q1053.35 1336.26 1051.52 1339.82 Q1049.71 1343.36 1049.71 1350.49 Q1049.71 1357.6 1051.52 1361.17 Q1053.35 1364.71 1056.96 1364.71 Q1060.59 1364.71 1062.4 1361.17 Q1064.23 1357.6 1064.23 1350.49 Q1064.23 1343.36 1062.4 1339.82 Q1060.59 1336.26 1056.96 1336.26 M1056.96 1332.55 Q1062.77 1332.55 1065.82 1337.16 Q1068.9 1341.74 1068.9 1350.49 Q1068.9 1359.22 1065.82 1363.83 Q1062.77 1368.41 1056.96 1368.41 Q1051.15 1368.41 1048.07 1363.83 Q1045.01 1359.22 1045.01 1350.49 Q1045.01 1341.74 1048.07 1337.16 Q1051.15 1332.55 1056.96 1332.55 Z" fill="#000000" fill-rule="nonzero" fill-opacity="1" /><path clip-path="url(#clip060)" d="M1077.12 1361.86 L1082 1361.86 L1082 1367.74 L1077.12 1367.74 L1077.12 1361.86 Z" fill="#000000" fill-rule="nonzero" fill-opacity="1" /><path clip-path="url(#clip060)" d="M1102.19 1336.26 Q1098.58 1336.26 1096.75 1339.82 Q1094.94 1343.36 1094.94 1350.49 Q1094.94 1357.6 1096.75 1361.17 Q1098.58 1364.71 1102.19 1364.71 Q1105.82 1364.71 1107.63 1361.17 Q1109.46 1357.6 1109.46 1350.49 Q1109.46 1343.36 1107.63 1339.82 Q1105.82 1336.26 1102.19 1336.26 M1102.19 1332.55 Q1108 1332.55 1111.06 1337.16 Q1114.13 1341.74 1114.13 1350.49 Q1114.13 1359.22 1111.06 1363.83 Q1108 1368.41 1102.19 1368.41 Q1096.38 1368.41 1093.3 1363.83 Q1090.25 1359.22 1090.25 1350.49 Q1090.25 1341.74 1093.3 1337.16 Q1096.38 1332.55 1102.19 1332.55 Z" fill="#000000" fill-rule="nonzero" fill-opacity="1" /><path clip-path="url(#clip060)" d="M1197.63 1376.58 Q1194.02 1376.58 1192.19 1380.14 Q1190.39 1383.69 1190.39 1390.82 Q1190.39 1397.92 1192.19 1401.49 Q1194.02 1405.03 1197.63 1405.03 Q1201.26 1405.03 1203.07 1401.49 Q1204.9 1397.92 1204.9 1390.82 Q1204.9 1383.69 1203.07 1380.14 Q1201.26 1376.58 1197.63 1376.58 M1197.63 1372.88 Q1203.44 1372.88 1206.5 1377.48 Q1209.57 1382.07 1209.57 1390.82 Q1209.57 1399.54 1206.5 1404.15 Q1203.44 1408.73 1197.63 1408.73 Q1191.82 1408.73 1188.74 1404.15 Q1185.69 1399.54 1185.69 1390.82 Q1185.69 1382.07 1188.74 1377.48 Q1191.82 1372.88 1197.63 1372.88 Z" fill="#000000" fill-rule="nonzero" fill-opacity="1" /><path clip-path="url(#clip060)" d="M1217.79 1402.18 L1222.68 1402.18 L1222.68 1408.06 L1217.79 1408.06 L1217.79 1402.18 Z" fill="#000000" fill-rule="nonzero" fill-opacity="1" /><path clip-path="url(#clip060)" d="M1232.91 1373.5 L1251.26 1373.5 L1251.26 1377.44 L1237.19 1377.44 L1237.19 1385.91 Q1238.21 1385.56 1239.23 1385.4 Q1240.25 1385.21 1241.26 1385.21 Q1247.05 1385.21 1250.43 1388.38 Q1253.81 1391.56 1253.81 1396.97 Q1253.81 1402.55 1250.34 1405.65 Q1246.87 1408.73 1240.55 1408.73 Q1238.37 1408.73 1236.1 1408.36 Q1233.86 1407.99 1231.45 1407.25 L1231.45 1402.55 Q1233.53 1403.69 1235.76 1404.24 Q1237.98 1404.8 1240.45 1404.8 Q1244.46 1404.8 1246.8 1402.69 Q1249.13 1400.58 1249.13 1396.97 Q1249.13 1393.36 1246.8 1391.26 Q1244.46 1389.15 1240.45 1389.15 Q1238.58 1389.15 1236.7 1389.57 Q1234.85 1389.98 1232.91 1390.86 L1232.91 1373.5 Z" fill="#000000" fill-rule="nonzero" fill-opacity="1" /><path clip-path="url(#clip060)" d="M1327.12 1444.45 L1334.76 1444.45 L1334.76 1418.08 L1326.45 1419.75 L1326.45 1415.49 L1334.71 1413.82 L1339.39 1413.82 L1339.39 1444.45 L1347.03 1444.45 L1347.03 1448.38 L1327.12 1448.38 L1327.12 1444.45 Z" fill="#000000" fill-rule="nonzero" fill-opacity="1" /><path clip-path="url(#clip060)" d="M1356.47 1442.5 L1361.36 1442.5 L1361.36 1448.38 L1356.47 1448.38 L1356.47 1442.5 Z" fill="#000000" fill-rule="nonzero" fill-opacity="1" /><path clip-path="url(#clip060)" d="M1381.54 1416.9 Q1377.93 1416.9 1376.1 1420.47 Q1374.3 1424.01 1374.3 1431.14 Q1374.3 1438.24 1376.1 1441.81 Q1377.93 1445.35 1381.54 1445.35 Q1385.18 1445.35 1386.98 1441.81 Q1388.81 1438.24 1388.81 1431.14 Q1388.81 1424.01 1386.98 1420.47 Q1385.18 1416.9 1381.54 1416.9 M1381.54 1413.2 Q1387.35 1413.2 1390.41 1417.8 Q1393.49 1422.39 1393.49 1431.14 Q1393.49 1439.86 1390.41 1444.47 Q1387.35 1449.05 1381.54 1449.05 Q1375.73 1449.05 1372.65 1444.47 Q1369.6 1439.86 1369.6 1431.14 Q1369.6 1422.39 1372.65 1417.8 Q1375.73 1413.2 1381.54 1413.2 Z" fill="#000000" fill-rule="nonzero" fill-opacity="1" /><polyline clip-path="url(#clip060)" style="stroke:#000000; stroke-linecap:round; stroke-linejoin:round; stroke-width:4; stroke-opacity:1; fill:none" points="1425.66,1410.41 1841.12,1050.61 "/>
<polyline clip-path="url(#clip060)" style="stroke:#000000; stroke-linecap:round; stroke-linejoin:round; stroke-width:4; stroke-opacity:1; fill:none" points="1469.23,1372.68 1460.59,1370.19 "/>
<polyline clip-path="url(#clip060)" style="stroke:#000000; stroke-linecap:round; stroke-linejoin:round; stroke-width:4; stroke-opacity:1; fill:none" points="1549.07,1303.53 1540.44,1301.04 "/>
<polyline clip-path="url(#clip060)" style="stroke:#000000; stroke-linecap:round; stroke-linejoin:round; stroke-width:4; stroke-opacity:1; fill:none" points="1628.92,1234.39 1620.28,1231.9 "/>
<polyline clip-path="url(#clip060)" style="stroke:#000000; stroke-linecap:round; stroke-linejoin:round; stroke-width:4; stroke-opacity:1; fill:none" points="1708.76,1165.24 1700.12,1162.75 "/>
<polyline clip-path="url(#clip060)" style="stroke:#000000; stroke-linecap:round; stroke-linejoin:round; stroke-width:4; stroke-opacity:1; fill:none" points="1788.6,1096.09 1779.97,1093.6 "/>
<path clip-path="url(#clip060)" d="M1499.92 1380.34 Q1496.31 1380.34 1494.48 1383.91 Q1492.67 1387.45 1492.67 1394.58 Q1492.67 1401.69 1494.48 1405.25 Q1496.31 1408.79 1499.92 1408.79 Q1503.55 1408.79 1505.36 1405.25 Q1507.19 1401.69 1507.19 1394.58 Q1507.19 1387.45 1505.36 1383.91 Q1503.55 1380.34 1499.92 1380.34 M1499.92 1376.64 Q1505.73 1376.64 1508.78 1381.25 Q1511.86 1385.83 1511.86 1394.58 Q1511.86 1403.31 1508.78 1407.91 Q1505.73 1412.5 1499.92 1412.5 Q1494.11 1412.5 1491.03 1407.91 Q1487.97 1403.31 1487.97 1394.58 Q1487.97 1385.83 1491.03 1381.25 Q1494.11 1376.64 1499.92 1376.64 Z" fill="#000000" fill-rule="nonzero" fill-opacity="1" /><path clip-path="url(#clip060)" d="M1520.08 1405.95 L1524.96 1405.95 L1524.96 1411.83 L1520.08 1411.83 L1520.08 1405.95 Z" fill="#000000" fill-rule="nonzero" fill-opacity="1" /><path clip-path="url(#clip060)" d="M1535.2 1377.27 L1553.55 1377.27 L1553.55 1381.2 L1539.48 1381.2 L1539.48 1389.67 Q1540.5 1389.33 1541.51 1389.16 Q1542.53 1388.98 1543.55 1388.98 Q1549.34 1388.98 1552.72 1392.15 Q1556.1 1395.32 1556.1 1400.74 Q1556.1 1406.32 1552.63 1409.42 Q1549.15 1412.5 1542.83 1412.5 Q1540.66 1412.5 1538.39 1412.13 Q1536.14 1411.76 1533.74 1411.02 L1533.74 1406.32 Q1535.82 1407.45 1538.04 1408.01 Q1540.26 1408.56 1542.74 1408.56 Q1546.75 1408.56 1549.08 1406.45 Q1551.42 1404.35 1551.42 1400.74 Q1551.42 1397.13 1549.08 1395.02 Q1546.75 1392.91 1542.74 1392.91 Q1540.87 1392.91 1538.99 1393.33 Q1537.14 1393.75 1535.2 1394.63 L1535.2 1377.27 Z" fill="#000000" fill-rule="nonzero" fill-opacity="1" /><path clip-path="url(#clip060)" d="M1568.49 1338.74 L1576.13 1338.74 L1576.13 1312.38 L1567.82 1314.04 L1567.82 1309.78 L1576.08 1308.12 L1580.76 1308.12 L1580.76 1338.74 L1588.4 1338.74 L1588.4 1342.68 L1568.49 1342.68 L1568.49 1338.74 Z" fill="#000000" fill-rule="nonzero" fill-opacity="1" /><path clip-path="url(#clip060)" d="M1597.84 1336.8 L1602.72 1336.8 L1602.72 1342.68 L1597.84 1342.68 L1597.84 1336.8 Z" fill="#000000" fill-rule="nonzero" fill-opacity="1" /><path clip-path="url(#clip060)" d="M1622.91 1311.2 Q1619.3 1311.2 1617.47 1314.76 Q1615.66 1318.3 1615.66 1325.43 Q1615.66 1332.54 1617.47 1336.1 Q1619.3 1339.65 1622.91 1339.65 Q1626.54 1339.65 1628.35 1336.1 Q1630.18 1332.54 1630.18 1325.43 Q1630.18 1318.3 1628.35 1314.76 Q1626.54 1311.2 1622.91 1311.2 M1622.91 1307.49 Q1628.72 1307.49 1631.78 1312.1 Q1634.85 1316.68 1634.85 1325.43 Q1634.85 1334.16 1631.78 1338.77 Q1628.72 1343.35 1622.91 1343.35 Q1617.1 1343.35 1614.02 1338.77 Q1610.97 1334.16 1610.97 1325.43 Q1610.97 1316.68 1614.02 1312.1 Q1617.1 1307.49 1622.91 1307.49 Z" fill="#000000" fill-rule="nonzero" fill-opacity="1" /><path clip-path="url(#clip060)" d="M1648.33 1269.6 L1655.97 1269.6 L1655.97 1243.23 L1647.66 1244.9 L1647.66 1240.64 L1655.93 1238.97 L1660.6 1238.97 L1660.6 1269.6 L1668.24 1269.6 L1668.24 1273.53 L1648.33 1273.53 L1648.33 1269.6 Z" fill="#000000" fill-rule="nonzero" fill-opacity="1" /><path clip-path="url(#clip060)" d="M1677.68 1267.65 L1682.57 1267.65 L1682.57 1273.53 L1677.68 1273.53 L1677.68 1267.65 Z" fill="#000000" fill-rule="nonzero" fill-opacity="1" /><path clip-path="url(#clip060)" d="M1692.8 1238.97 L1711.16 1238.97 L1711.16 1242.91 L1697.08 1242.91 L1697.08 1251.38 Q1698.1 1251.03 1699.12 1250.87 Q1700.14 1250.68 1701.16 1250.68 Q1706.94 1250.68 1710.32 1253.86 Q1713.7 1257.03 1713.7 1262.44 Q1713.7 1268.02 1710.23 1271.12 Q1706.76 1274.2 1700.44 1274.2 Q1698.26 1274.2 1695.99 1273.83 Q1693.75 1273.46 1691.34 1272.72 L1691.34 1268.02 Q1693.43 1269.16 1695.65 1269.71 Q1697.87 1270.27 1700.35 1270.27 Q1704.35 1270.27 1706.69 1268.16 Q1709.03 1266.05 1709.03 1262.44 Q1709.03 1258.83 1706.69 1256.73 Q1704.35 1254.62 1700.35 1254.62 Q1698.47 1254.62 1696.6 1255.04 Q1694.74 1255.45 1692.8 1256.33 L1692.8 1238.97 Z" fill="#000000" fill-rule="nonzero" fill-opacity="1" /><path clip-path="url(#clip060)" d="M1733.13 1200.45 L1749.45 1200.45 L1749.45 1204.38 L1727.51 1204.38 L1727.51 1200.45 Q1730.17 1197.69 1734.75 1193.06 Q1739.36 1188.41 1740.54 1187.07 Q1742.78 1184.55 1743.66 1182.81 Q1744.57 1181.05 1744.57 1179.36 Q1744.57 1176.61 1742.62 1174.87 Q1740.7 1173.13 1737.6 1173.13 Q1735.4 1173.13 1732.95 1173.9 Q1730.52 1174.66 1727.74 1176.21 L1727.74 1171.49 Q1730.56 1170.36 1733.02 1169.78 Q1735.47 1169.2 1737.51 1169.2 Q1742.88 1169.2 1746.07 1171.88 Q1749.27 1174.57 1749.27 1179.06 Q1749.27 1181.19 1748.46 1183.11 Q1747.67 1185.01 1745.56 1187.6 Q1744.98 1188.27 1741.88 1191.49 Q1738.78 1194.68 1733.13 1200.45 Z" fill="#000000" fill-rule="nonzero" fill-opacity="1" /><path clip-path="url(#clip060)" d="M1759.27 1198.5 L1764.15 1198.5 L1764.15 1204.38 L1759.27 1204.38 L1759.27 1198.5 Z" fill="#000000" fill-rule="nonzero" fill-opacity="1" /><path clip-path="url(#clip060)" d="M1784.33 1172.9 Q1780.72 1172.9 1778.89 1176.47 Q1777.09 1180.01 1777.09 1187.14 Q1777.09 1194.25 1778.89 1197.81 Q1780.72 1201.35 1784.33 1201.35 Q1787.97 1201.35 1789.77 1197.81 Q1791.6 1194.25 1791.6 1187.14 Q1791.6 1180.01 1789.77 1176.47 Q1787.97 1172.9 1784.33 1172.9 M1784.33 1169.2 Q1790.14 1169.2 1793.2 1173.81 Q1796.28 1178.39 1796.28 1187.14 Q1796.28 1195.87 1793.2 1200.47 Q1790.14 1205.06 1784.33 1205.06 Q1778.52 1205.06 1775.45 1200.47 Q1772.39 1195.87 1772.39 1187.14 Q1772.39 1178.39 1775.45 1173.81 Q1778.52 1169.2 1784.33 1169.2 Z" fill="#000000" fill-rule="nonzero" fill-opacity="1" /><path clip-path="url(#clip060)" d="M1812.98 1131.3 L1829.29 1131.3 L1829.29 1135.24 L1807.35 1135.24 L1807.35 1131.3 Q1810.01 1128.55 1814.6 1123.92 Q1819.2 1119.26 1820.38 1117.92 Q1822.63 1115.4 1823.51 1113.66 Q1824.41 1111.9 1824.41 1110.21 Q1824.41 1107.46 1822.47 1105.72 Q1820.54 1103.99 1817.44 1103.99 Q1815.24 1103.99 1812.79 1104.75 Q1810.36 1105.51 1807.58 1107.07 L1807.58 1102.34 Q1810.41 1101.21 1812.86 1100.63 Q1815.31 1100.05 1817.35 1100.05 Q1822.72 1100.05 1825.92 1102.74 Q1829.11 1105.42 1829.11 1109.91 Q1829.11 1112.04 1828.3 1113.96 Q1827.51 1115.86 1825.41 1118.45 Q1824.83 1119.13 1821.73 1122.34 Q1818.62 1125.54 1812.98 1131.3 Z" fill="#000000" fill-rule="nonzero" fill-opacity="1" /><path clip-path="url(#clip060)" d="M1839.11 1129.36 L1843.99 1129.36 L1843.99 1135.24 L1839.11 1135.24 L1839.11 1129.36 Z" fill="#000000" fill-rule="nonzero" fill-opacity="1" /><path clip-path="url(#clip060)" d="M1854.23 1100.68 L1872.58 1100.68 L1872.58 1104.61 L1858.51 1104.61 L1858.51 1113.08 Q1859.53 1112.74 1860.54 1112.57 Q1861.56 1112.39 1862.58 1112.39 Q1868.37 1112.39 1871.75 1115.56 Q1875.13 1118.73 1875.13 1124.15 Q1875.13 1129.73 1871.66 1132.83 Q1868.18 1135.91 1861.86 1135.91 Q1859.69 1135.91 1857.42 1135.54 Q1855.17 1135.17 1852.77 1134.43 L1852.77 1129.73 Q1854.85 1130.86 1857.07 1131.42 Q1859.29 1131.97 1861.77 1131.97 Q1865.78 1131.97 1868.11 1129.87 Q1870.45 1127.76 1870.45 1124.15 Q1870.45 1120.54 1868.11 1118.43 Q1865.78 1116.32 1861.77 1116.32 Q1859.9 1116.32 1858.02 1116.74 Q1856.17 1117.16 1854.23 1118.04 L1854.23 1100.68 Z" fill="#000000" fill-rule="nonzero" fill-opacity="1" /><polyline clip-path="url(#clip060)" style="stroke:#000000; stroke-linecap:round; stroke-linejoin:round; stroke-width:4; stroke-opacity:1; fill:none" points="706.057,1202.68 706.057,483.08 "/>
<polyline clip-path="url(#clip060)" style="stroke:#000000; stroke-linecap:round; stroke-linejoin:round; stroke-width:4; stroke-opacity:1; fill:none" points="706.057,1094.28 711.042,1089.96 "/>
<polyline clip-path="url(#clip060)" style="stroke:#000000; stroke-linecap:round; stroke-linejoin:round; stroke-width:4; stroke-opacity:1; fill:none" points="706.057,918.195 711.042,913.877 "/>
<polyline clip-path="url(#clip060)" style="stroke:#000000; stroke-linecap:round; stroke-linejoin:round; stroke-width:4; stroke-opacity:1; fill:none" points="706.057,742.115 711.042,737.797 "/>
<polyline clip-path="url(#clip060)" style="stroke:#000000; stroke-linecap:round; stroke-linejoin:round; stroke-width:4; stroke-opacity:1; fill:none" points="706.057,566.034 711.042,561.717 "/>
<path clip-path="url(#clip060)" d="M569.827 1094.73 L599.503 1094.73 L599.503 1098.66 L569.827 1098.66 L569.827 1094.73 Z" fill="#000000" fill-rule="nonzero" fill-opacity="1" /><path clip-path="url(#clip060)" d="M619.595 1080.07 Q615.984 1080.07 614.155 1083.64 Q612.35 1087.18 612.35 1094.31 Q612.35 1101.42 614.155 1104.98 Q615.984 1108.52 619.595 1108.52 Q623.229 1108.52 625.035 1104.98 Q626.864 1101.42 626.864 1094.31 Q626.864 1087.18 625.035 1083.64 Q623.229 1080.07 619.595 1080.07 M619.595 1076.37 Q625.405 1076.37 628.461 1080.98 Q631.54 1085.56 631.54 1094.31 Q631.54 1103.04 628.461 1107.64 Q625.405 1112.23 619.595 1112.23 Q613.785 1112.23 610.706 1107.64 Q607.651 1103.04 607.651 1094.31 Q607.651 1085.56 610.706 1080.98 Q613.785 1076.37 619.595 1076.37 Z" fill="#000000" fill-rule="nonzero" fill-opacity="1" /><path clip-path="url(#clip060)" d="M639.757 1105.68 L644.641 1105.68 L644.641 1111.56 L639.757 1111.56 L639.757 1105.68 Z" fill="#000000" fill-rule="nonzero" fill-opacity="1" /><path clip-path="url(#clip060)" d="M667.674 1081.07 L655.868 1099.52 L667.674 1099.52 L667.674 1081.07 M666.447 1077 L672.326 1077 L672.326 1099.52 L677.257 1099.52 L677.257 1103.41 L672.326 1103.41 L672.326 1111.56 L667.674 1111.56 L667.674 1103.41 L652.072 1103.41 L652.072 1098.89 L666.447 1077 Z" fill="#000000" fill-rule="nonzero" fill-opacity="1" /><path clip-path="url(#clip060)" d="M571.91 918.646 L601.586 918.646 L601.586 922.582 L571.91 922.582 L571.91 918.646 Z" fill="#000000" fill-rule="nonzero" fill-opacity="1" /><path clip-path="url(#clip060)" d="M621.678 903.994 Q618.067 903.994 616.239 907.559 Q614.433 911.1 614.433 918.23 Q614.433 925.336 616.239 928.901 Q618.067 932.443 621.678 932.443 Q625.313 932.443 627.118 928.901 Q628.947 925.336 628.947 918.23 Q628.947 911.1 627.118 907.559 Q625.313 903.994 621.678 903.994 M621.678 900.29 Q627.489 900.29 630.544 904.897 Q633.623 909.48 633.623 918.23 Q633.623 926.957 630.544 931.563 Q627.489 936.146 621.678 936.146 Q615.868 936.146 612.79 931.563 Q609.734 926.957 609.734 918.23 Q609.734 909.48 612.79 904.897 Q615.868 900.29 621.678 900.29 Z" fill="#000000" fill-rule="nonzero" fill-opacity="1" /><path clip-path="url(#clip060)" d="M641.84 929.596 L646.725 929.596 L646.725 935.475 L641.84 935.475 L641.84 929.596 Z" fill="#000000" fill-rule="nonzero" fill-opacity="1" /><path clip-path="url(#clip060)" d="M660.938 931.54 L677.257 931.54 L677.257 935.475 L655.313 935.475 L655.313 931.54 Q657.975 928.785 662.558 924.156 Q667.164 919.503 668.345 918.16 Q670.59 915.637 671.47 913.901 Q672.373 912.142 672.373 910.452 Q672.373 907.697 670.428 905.961 Q668.507 904.225 665.405 904.225 Q663.206 904.225 660.752 904.989 Q658.322 905.753 655.544 907.304 L655.544 902.582 Q658.368 901.448 660.822 900.869 Q663.275 900.29 665.313 900.29 Q670.683 900.29 673.877 902.975 Q677.072 905.66 677.072 910.151 Q677.072 912.281 676.262 914.202 Q675.474 916.1 673.368 918.693 Q672.789 919.364 669.687 922.582 Q666.586 925.776 660.938 931.54 Z" fill="#000000" fill-rule="nonzero" fill-opacity="1" /><path clip-path="url(#clip060)" d="M620.081 727.913 Q616.47 727.913 614.641 731.478 Q612.836 735.02 612.836 742.149 Q612.836 749.256 614.641 752.821 Q616.47 756.362 620.081 756.362 Q623.716 756.362 625.521 752.821 Q627.35 749.256 627.35 742.149 Q627.35 735.02 625.521 731.478 Q623.716 727.913 620.081 727.913 M620.081 724.21 Q625.891 724.21 628.947 728.816 Q632.026 733.399 632.026 742.149 Q632.026 750.876 628.947 755.483 Q625.891 760.066 620.081 760.066 Q614.271 760.066 611.192 755.483 Q608.137 750.876 608.137 742.149 Q608.137 733.399 611.192 728.816 Q614.271 724.21 620.081 724.21 Z" fill="#000000" fill-rule="nonzero" fill-opacity="1" /><path clip-path="url(#clip060)" d="M640.243 753.515 L645.127 753.515 L645.127 759.395 L640.243 759.395 L640.243 753.515 Z" fill="#000000" fill-rule="nonzero" fill-opacity="1" /><path clip-path="url(#clip060)" d="M665.313 727.913 Q661.701 727.913 659.873 731.478 Q658.067 735.02 658.067 742.149 Q658.067 749.256 659.873 752.821 Q661.701 756.362 665.313 756.362 Q668.947 756.362 670.752 752.821 Q672.581 749.256 672.581 742.149 Q672.581 735.02 670.752 731.478 Q668.947 727.913 665.313 727.913 M665.313 724.21 Q671.123 724.21 674.178 728.816 Q677.257 733.399 677.257 742.149 Q677.257 750.876 674.178 755.483 Q671.123 760.066 665.313 760.066 Q659.502 760.066 656.424 755.483 Q653.368 750.876 653.368 742.149 Q653.368 733.399 656.424 728.816 Q659.502 724.21 665.313 724.21 Z" fill="#000000" fill-rule="nonzero" fill-opacity="1" /><path clip-path="url(#clip060)" d="M621.678 551.833 Q618.067 551.833 616.239 555.398 Q614.433 558.939 614.433 566.069 Q614.433 573.175 616.239 576.74 Q618.067 580.282 621.678 580.282 Q625.313 580.282 627.118 576.74 Q628.947 573.175 628.947 566.069 Q628.947 558.939 627.118 555.398 Q625.313 551.833 621.678 551.833 M621.678 548.129 Q627.489 548.129 630.544 552.736 Q633.623 557.319 633.623 566.069 Q633.623 574.796 630.544 579.402 Q627.489 583.986 621.678 583.986 Q615.868 583.986 612.79 579.402 Q609.734 574.796 609.734 566.069 Q609.734 557.319 612.79 552.736 Q615.868 548.129 621.678 548.129 Z" fill="#000000" fill-rule="nonzero" fill-opacity="1" /><path clip-path="url(#clip060)" d="M641.84 577.435 L646.725 577.435 L646.725 583.314 L641.84 583.314 L641.84 577.435 Z" fill="#000000" fill-rule="nonzero" fill-opacity="1" /><path clip-path="url(#clip060)" d="M660.938 579.379 L677.257 579.379 L677.257 583.314 L655.313 583.314 L655.313 579.379 Q657.975 576.625 662.558 571.995 Q667.164 567.342 668.345 566 Q670.59 563.476 671.47 561.74 Q672.373 559.981 672.373 558.291 Q672.373 555.537 670.428 553.801 Q668.507 552.064 665.405 552.064 Q663.206 552.064 660.752 552.828 Q658.322 553.592 655.544 555.143 L655.544 550.421 Q658.368 549.287 660.822 548.708 Q663.275 548.129 665.313 548.129 Q670.683 548.129 673.877 550.814 Q677.072 553.5 677.072 557.99 Q677.072 560.12 676.262 562.041 Q675.474 563.939 673.368 566.532 Q672.789 567.203 669.687 570.421 Q666.586 573.615 660.938 579.379 Z" fill="#000000" fill-rule="nonzero" fill-opacity="1" /><polyline clip-path="url(#clip062)" style="stroke:#009af9; stroke-linecap:round; stroke-linejoin:round; stroke-width:4; stroke-opacity:1; fill:none" points="1604.66,1207.02 1600.79,1209.59 1596.8,1212.12 1592.67,1214.61 1588.42,1217.06 1584.04,1219.47 1579.53,1221.83 1574.9,1224.14 1570.15,1226.41 1565.29,1228.62 1560.3,1230.79 1555.2,1232.91 1549.98,1234.98 1544.65,1236.99 1539.22,1238.95 1533.68,1240.85 1528.03,1242.7 1522.28,1244.49 1516.42,1246.22 1510.47,1247.9 1504.43,1249.51 1498.29,1251.06 1492.06,1252.56 1485.74,1253.98 1479.33,1255.35 1472.84,1256.65 1466.27,1257.89 1459.62,1259.06 1452.9,1260.16 1446.1,1261.2 1439.23,1262.17 1432.3,1263.07 1425.3,1263.9 1418.23,1264.67 1411.11,1265.36 1403.93,1265.98 1396.7,1266.53 1389.41,1267.01 1382.08,1267.41 1374.7,1267.74 1367.28,1268 1359.82,1268.19 1352.32,1268.3 1344.79,1268.34 1337.23,1268.3 1329.64,1268.19 1322.03,1268 1314.39,1267.74 1306.74,1267.4 1299.07,1266.99 1291.39,1266.5 1283.7,1265.94 1276,1265.3 1268.3,1264.58 1260.6,1263.79 1252.9,1262.92 1245.21,1261.97 1237.52,1260.95 1229.85,1259.86 1222.2,1258.69 1214.56,1257.44 1206.94,1256.12 1199.34,1254.72 1191.78,1253.25 1184.24,1251.7 1176.74,1250.08 1169.27,1248.39 1161.84,1246.62 1154.45,1244.78 1147.11,1242.87 1139.81,1240.89 1132.57,1238.83 1125.38,1236.7 1118.24,1234.5 1111.17,1232.24 1104.15,1229.9 1097.2,1227.49 1090.32,1225.02 1083.51,1222.48 1076.77,1219.87 1070.11,1217.2 1063.52,1214.46 1057.02,1211.65 1050.6,1208.79 1044.26,1205.86 1038.02,1202.86 1031.86,1199.81 1025.8,1196.7 1019.83,1193.53 1013.97,1190.3 1008.2,1187.01 1002.53,1183.67 996.973,1180.27 991.521,1176.81 986.177,1173.31 980.945,1169.75 975.827,1166.14 970.824,1162.48 965.939,1158.77 961.173,1155.02 956.529,1151.22 952.008,1147.37 947.612,1143.48 943.343,1139.55 939.202,1135.58 935.192,1131.56 931.313,1127.51 927.568,1123.42 923.957,1119.3 920.483,1115.14 917.146,1110.94 913.948,1106.72 910.891,1102.46 907.975,1098.17 905.201,1093.86 902.571,1089.52 900.086,1085.16 897.747,1080.77 895.554,1076.36 893.509,1071.93 891.612,1067.47 889.865,1063.01 888.267,1058.52 886.82,1054.02 885.523,1049.51 884.379,1044.99 883.386,1040.45 882.546,1035.91 881.859,1031.36 881.324,1026.81 880.943,1022.25 880.716,1017.69 880.642,1013.12 880.721,1008.56 880.954,1004 881.341,999.442 881.881,994.89 882.573,990.345 883.419,985.808 884.418,981.28 885.568,976.764 886.87,972.26 888.323,967.771 889.927,963.297 891.681,958.84 893.584,954.402 895.636,949.984 897.835,945.588 900.181,941.215 902.673,936.867 905.31,932.544 908.091,928.249 911.015,923.983 914.081,919.748 917.286,915.543 920.631,911.372 924.114,907.236 927.734,903.135 931.488,899.072 935.376,895.047 939.396,891.062 943.547,887.118 947.826,883.216 952.232,879.358 956.764,875.545 961.42,871.779 966.197,868.06 971.094,864.389 976.109,860.768 981.24,857.198 986.485,853.68 991.841,850.215 997.308,846.805 1002.88,843.45 1008.56,840.151 1014.34,836.91 1020.23,833.727 1026.21,830.604 1032.29,827.541 1038.46,824.539 1044.72,821.6 1051.08,818.723 1057.51,815.911 1064.04,813.163 1070.64,810.481 1077.32,807.865 1084.08,805.316 1090.91,802.836 1097.82,800.423 1104.79,798.08 1111.82,795.807 1118.92,793.604 1126.08,791.473 1133.29,789.412 1140.56,787.425 1147.88,785.509 1155.25,783.667 1162.67,781.898 1170.12,780.204 1177.62,778.583 1185.15,777.038 1192.72,775.567 1200.32,774.172 1207.94,772.853 1215.59,771.609 1223.26,770.441 1230.95,769.35 1238.66,768.335 1246.37,767.396 1254.1,766.534 1261.84,765.749 1269.58,765.04 1277.31,764.408 1285.05,763.853 1292.78,763.374 1300.5,762.971 1308.22,762.645 1315.91,762.396 1323.59,762.222 1331.25,762.124 1338.88,762.101 1346.49,762.154 1354.07,762.282 1361.61,762.484 1369.12,762.761 1376.6,763.112 1384.03,763.536 1391.41,764.033 1398.75,764.603 1406.04,765.245 1413.28,765.958 1420.46,766.742 1427.58,767.597 1434.64,768.521 1441.64,769.515 1448.56,770.576 1455.42,771.706 1462.21,772.903 1468.93,774.166 1475.56,775.494 1482.12,776.888 1488.59,778.345 1494.98,779.865 1501.28,781.447 1507.49,783.09 1513.6,784.794 1519.63,786.557 1525.55,788.379 1531.38,790.258 1537.1,792.193 1542.72,794.184 1548.23,796.229 1553.64,798.327 1558.93,800.477 1564.11,802.678 1569.18,804.929 1574.13,807.229 1578.96,809.576 1583.67,811.97 1588.26,814.408 1592.72,816.891 1597.06,819.416 1601.27,821.982 1605.35,824.588 1609.3,827.234 1613.12,829.916 1616.81,832.635 1620.36,835.388 1623.77,838.174 1627.04,840.993 1630.18,843.842 1633.17,846.721 1636.03,849.627 1638.74,852.559 1641.3,855.517 1643.73,858.498 1646,861.501 1648.13,864.525 1650.11,867.568 1651.95,870.628 1653.63,873.705 1655.17,876.796 1656.55,879.901 1657.79,883.017 1658.87,886.144 1659.8,889.279 1660.58,892.422 1661.21,895.57 1661.68,898.722 1662,901.877 1662.17,905.034 1662.19,908.19 1662.05,911.344 1661.76,914.494 1661.32,917.64 1660.72,920.779 1659.98,923.911 1659.08,927.033 1658.03,930.144 1656.82,933.243 1655.47,936.327 1653.97,939.397 1652.31,942.45 1650.51,945.484 1648.56,948.499 1646.46,951.492 1644.22,954.463 1641.83,957.409 1639.29,960.33 1636.61,963.224 1633.79,966.09 1630.83,968.926 1627.72,971.731 1624.48,974.503 1621.1,977.242 1617.58,979.945 1613.93,982.612 1610.14,985.241 1606.22,987.83 1602.17,990.38 1597.99,992.888 1593.68,995.352 1589.24,997.773 1584.69,1000.15 1580,1002.48 1575.2,1004.76 1570.28,1006.99 1565.25,1009.17 1560.1,1011.3 1554.83,1013.38 1549.46,1015.41 1543.97,1017.38 1538.38,1019.29 1532.69,1021.15 1526.89,1022.95 1521,1024.7 1515,1026.38 1508.91,1028 1502.73,1029.56 1496.46,1031.06 1490.1,1032.5 1483.66,1033.87 1477.13,1035.18 1470.52,1036.42 1463.84,1037.6 1457.08,1038.71 1450.25,1039.75 1443.35,1040.73 1436.38,1041.63 1429.35,1042.47 1422.25,1043.24 1415.1,1043.93 1407.89,1044.55 1400.63,1045.11 1393.32,1045.59 1385.96,1045.99 1378.56,1046.33 1371.12,1046.59 1363.64,1046.78 1356.12,1046.89 1348.57,1046.93 1340.99,1046.89 1333.38,1046.78 1325.75,1046.59 1318.1,1046.33 1310.44,1045.99 1302.75,1045.58 1295.06,1045.09 1287.36,1044.52 1279.65,1043.88 1271.94,1043.16 1264.23,1042.36 1256.53,1041.49 1248.83,1040.55 1241.14,1039.53 1233.47,1038.43 1225.81,1037.25 1218.17,1036.01 1210.55,1034.68 1202.95,1033.28 1195.39,1031.81 1187.85,1030.26 1180.35,1028.64 1172.89,1026.94 1165.46,1025.17 1158.08,1023.33 1150.74,1021.42 1143.45,1019.43 1136.22,1017.37 1129.03,1015.24 1121.91,1013.04 1114.84,1010.78 1107.84,1008.44 1100.9,1006.03 1094.03,1003.56 1087.24,1001.02 1080.51,998.408 1073.86,995.734 1067.29,992.995 1060.8,990.193 1054.4,987.327 1048.08,984.398 1041.85,981.408 1035.72,978.358 1029.67,975.247 1023.73,972.078 1017.88,968.851 1012.13,965.567 1006.49,962.228 1000.95,958.833 995.515,955.385 990.193,951.884 984.983,948.332 979.887,944.729 974.907,941.077 970.045,937.377 965.303,933.63 960.682,929.837 956.185,926 951.813,922.119 947.568,918.197 943.452,914.234 939.466,910.231 935.612,906.19 931.892,902.112 928.306,897.999 924.856,893.852 921.545,889.672 918.372,885.46 915.339,881.218 912.448,876.948 909.699,872.651 907.094,868.328 904.634,863.98 902.319,859.61 900.151,855.218 898.131,850.806 896.258,846.375 894.535,841.928 892.961,837.465 891.537,832.988 890.264,828.498 889.143,823.997 888.173,819.487 887.356,814.969 886.691,810.444 886.179,805.914 885.819,801.381 885.613,796.846 885.56,792.31 885.661,787.775 885.914,783.243 886.321,778.715 886.88,774.193 887.592,769.678 888.457,765.172 889.474,760.675 890.642,756.191 891.962,751.72 893.432,747.263 895.052,742.823 896.822,738.4 898.741,733.996 900.808,729.613 903.022,725.253 905.383,720.915 907.889,716.603 910.539,712.317 913.333,708.06 916.269,703.831 919.346,699.633 922.563,695.467 925.919,691.335 929.413,687.237 933.042,683.176 936.806,679.152 940.703,675.167 944.732,671.222 948.89,667.318 953.177,663.457 957.59,659.64 962.129,655.868 966.79,652.143 971.573,648.465 976.476,644.836 981.495,641.257 986.631,637.729 991.879,634.253 997.24,630.831 1002.71,627.462 1008.29,624.15 1013.97,620.893 1019.75,617.695 1025.64,614.554 1031.62,611.474 1037.7,608.453 1043.87,605.494 1050.13,602.597 1056.49,599.763 1062.92,596.993 1069.45,594.288 1076.05,591.648 1082.73,589.075 1089.48,586.568 1096.31,584.13 1103.21,581.76 1110.18,579.459 1117.21,577.227 1124.31,575.066 1131.46,572.976 1138.67,570.957 1145.94,569.011 1153.25,567.137 1160.62,565.335 1168.03,563.608 1175.48,561.954 1182.97,560.374 1190.49,558.869 1198.05,557.438 1205.64,556.083 1213.26,554.803 1220.9,553.599 1228.57,552.471 1236.25,551.418 1243.94,550.442 1251.65,549.542 1259.37,548.719 1267.1,547.972 1274.83,547.301 1282.56,546.707 1290.28,546.189 1298.01,545.748 1305.72,545.382 1313.42,545.093 1321.1,544.88 1328.77,544.743 1336.42,544.681 1344.04,544.695 1351.64,544.784 1359.2,544.947 1366.73,545.185 1374.23,545.497 1381.69,545.883 1389.11,546.342 1396.48,546.874 1403.81,547.478 1411.08,548.154 1418.3,548.901 1425.47,549.72 1432.57,550.608 1439.62,551.566 1446.6,552.593 1453.51,553.688 1460.36,554.851 1467.13,556.08 1473.83,557.376 1480.44,558.737 1486.98,560.163 1493.44,561.652 1499.81,563.204 1506.09,564.819 1512.28,566.494 1518.38,568.23 1524.38,570.024 1530.29,571.877 1536.09,573.788 1541.8,575.754 1547.39,577.776 1552.89,579.852 1558.27,581.981 1563.54,584.163 1568.7,586.395 1573.75,588.677 1578.67,591.007 1583.48,593.385 1588.17,595.809 1592.74,598.278 1597.18,600.791 1601.49,603.346 1605.68,605.943 1609.73,608.579 1613.66,611.254 1617.45,613.967 1621.11,616.716 1624.64,619.499 1628.02,622.316 1631.27,625.164 1634.38,628.044 1637.35,630.952 1640.17,633.888 1642.86,636.851 1645.39,639.838 1647.79,642.849 1650.04,645.882 1652.14,648.935 1654.09,652.008 1655.89,655.098 1657.55,658.205 1659.06,661.326 1660.41,664.46 1661.61,667.607 1662.67,670.763 1663.57,673.928 1664.32,677.1 1664.91,680.278 1665.36,683.46 1665.65,686.644 1665.78,689.83 1665.77,693.015 1665.6,696.199 1665.28,699.379 1664.8,702.554 1664.17,705.723 1663.39,708.883 1662.46,712.035 1661.38,715.175 1660.14,718.303 1658.76,721.417 1657.22,724.515 1655.53,727.596 1653.7,730.66 1651.72,733.703 1649.58,736.725 1647.31,739.724 1644.88,742.699 1642.31,745.648 1639.6,748.57 1636.75,751.464 1633.75,754.327 1630.61,757.16 1627.34,759.96 1623.92,762.726 1620.37,765.456 1616.69,768.15 1612.87,770.806 1608.91,773.422 1604.83,775.998 1600.62,778.532 1596.28,781.023 1591.81,783.47 1587.23,785.871 1582.51,788.225 1577.68,790.531 1572.73,792.788 1567.67,794.995 1562.49,797.15 1557.19,799.253 1551.79,801.302 1546.28,803.297 1540.66,805.235 1534.94,807.118 1529.11,808.942 1523.19,810.708 1517.17,812.414 1511.06,814.059 1504.85,815.643 1498.55,817.165 1492.17,818.623 1485.7,820.018 1479.15,821.347 1472.52,822.611 1465.81,823.808 1459.03,824.939 1452.18,826.001 1445.25,826.995 1438.27,827.92 1431.21,828.776 1424.1,829.56 1416.93,830.274 1409.7,830.917 1402.42,831.487 1395.09,831.985 1387.72,832.411 1380.3,832.762 1372.84,833.041 1365.34,833.245 1357.81,833.374 1350.24,833.429 1342.65,833.409 1335.03,833.313 1327.39,833.143 1319.73,832.896 1312.05,832.574 1304.35,832.175 1296.65,831.701 1288.94,831.15 1281.22,830.523 1273.5,829.82 1265.78,829.041 1258.07,828.185 1250.36,827.254 1242.66,826.246 1234.98,825.163 1227.32,824.004 1219.67,822.77 1212.04,821.46 1204.44,820.075 1196.87,818.616 1189.33,817.082 1181.82,815.474 1174.36,813.793 1166.93,812.038 1159.54,810.21 1152.2,808.31 1144.91,806.338 1137.67,804.294 1130.48,802.18 1123.36,799.995 1116.29,797.741 1109.29,795.417 1102.35,793.026 1095.48,790.566 1088.68,788.039 1081.95,785.446 1075.3,782.787 1068.73,780.064 1062.24,777.277 1055.84,774.426 1049.52,771.513 1043.29,768.539 1037.15,765.504 1031.11,762.41 1025.16,759.257 1019.31,756.047 1013.57,752.78 1007.92,749.457 1002.38,746.08 996.951,742.649 991.63,739.166 986.42,735.631 981.324,732.046 976.345,728.413 971.482,724.731 966.74,721.003 962.119,717.229 957.622,713.412 953.249,709.551 949.004,705.648 944.887,701.705 940.9,697.723 937.046,693.703 933.324,689.646 929.737,685.555 926.286,681.429 922.972,677.271 919.797,673.082 916.763,668.863 913.869,664.616 911.118,660.342 908.51,656.042 906.046,651.719 903.728,647.373 901.556,643.005 899.531,638.618 897.655,634.213 895.926,629.791 894.348,625.354 892.919,620.903 891.64,616.44 890.513,611.966 889.537,607.483 888.713,602.992 888.041,598.495 887.522,593.994 887.155,589.489 886.941,584.982 886.88,580.475 886.971,575.97 887.216,571.467 887.613,566.969 888.163,562.476 888.865,557.991 889.719,553.515 890.725,549.05 891.882,544.596 893.191,540.156 894.649,535.73 896.258,531.321 898.015,526.93 899.921,522.558 901.975,518.207 904.176,513.878 906.523,509.573 909.015,505.293 911.651,501.04 914.431,496.814 917.352,492.618 920.415,488.453 923.617,484.319 926.957,480.22 930.435,476.155 934.049,472.126 937.797,468.135 941.677,464.182 945.69,460.27 949.832,456.399 954.102,452.571 958.499,448.786 963.02,445.047 967.665,441.354 972.431,437.709 977.316,434.112 982.318,430.565 987.436,427.069 992.668,423.625 998.011,420.234 1003.46,416.898 1009.02,413.617 1014.69,410.392 1020.45,407.224 1026.32,404.115 1032.29,401.065 1038.35,398.075 1044.5,395.146 1050.75,392.279 1057.09,389.475 1063.51,386.735 1070.01,384.059 1076.6,381.449 1083.26,378.904 1090,376.426 1096.82,374.016 1103.7,371.674 1110.65,369.401 1117.67,367.198 1124.75,365.064 1131.89,363.001 1139.08,361.01 1146.33,359.09 1153.64,357.242 1160.99,355.467 1168.38,353.765 1175.82,352.137 1183.29,350.582 1190.81,349.102 1198.36,347.696 1205.93,346.366 1213.54,345.11 1221.17,343.93 1228.82,342.826 1236.49,341.797 1244.18,340.844 1251.88,339.967 1259.59,339.167 1267.31,338.442 1275.02,337.794 1282.74,337.222 1290.46,336.726 1298.18,336.307 1305.88,335.963 1313.57,335.695 1321.25,335.503 1328.91,335.387 1336.55,335.346 1344.17,335.381 1351.75,335.49 1359.31,335.674 1366.84,335.932 1374.33,336.264 1381.79,336.67 1389.2,337.149 1396.57,337.7 1403.89,338.324 1411.16,339.02 1418.38,339.787 1425.54,340.624 1432.64,341.532 1439.68,342.509 1446.66,343.555 1453.57,344.669 1460.41,345.851 1467.18,347.1 1473.88,348.415 1480.49,349.795 1487.03,351.24 1493.48,352.748 1499.85,354.319 1506.13,355.953 1512.32,357.647 1518.42,359.402 1524.42,361.216 1530.33,363.089 1536.13,365.018 1541.83,367.005 1547.43,369.046 1552.92,371.142 1558.31,373.291 1563.58,375.492 1568.74,377.744 1573.78,380.046 1578.71,382.397 1583.52,384.795 1588.21,387.24 1592.77,389.73 1597.21,392.264 1601.53,394.84 1605.71,397.458 1609.77,400.116 1613.7,402.813 1617.49,405.548 1621.15,408.319 1624.67,411.125 1628.06,413.964 1631.31,416.835 1634.42,419.738 1637.38,422.669 1640.21,425.629 1642.89,428.615 1645.43,431.627 1647.82,434.662 1650.07,437.72 1652.17,440.798 1654.12,443.896 1655.92,447.012 1657.58,450.144 1659.08,453.291 1660.44,456.451 1661.64,459.624 1662.69,462.807 1663.59,465.999 1664.33,469.198 1664.93,472.404 1665.37,475.613 1665.66,478.826 1665.79,482.04 1665.77,485.254 1665.6,488.467 1665.27,491.676 1664.8,494.88 1664.16,498.078 1663.38,501.269 1662.44,504.45 1661.36,507.621 1660.12,510.779 1658.73,513.924 1657.18,517.053 1655.49,520.166 1653.65,523.26 1651.66,526.335 1649.53,529.389 1647.25,532.42 1644.82,535.427 1642.24,538.408 1639.52,541.363 1636.66,544.289 1633.66,547.186 1630.52,550.051 1627.23,552.884 1623.81,555.683 1620.25,558.447 1616.56,561.174 1612.73,563.863 1608.78,566.513 1604.69,569.123 1600.47,571.69 1596.12,574.215 1591.65,576.695 1587.05,579.13 1582.33,581.518 1577.49,583.858 1572.53,586.149 1567.46,588.39 1562.27,590.579 1556.97,592.716 1551.56,594.799 1546.04,596.827 1540.41,598.8 1534.68,600.716 1528.85,602.574 1522.92,604.373 1516.89,606.113 1510.77,607.792 1504.55,609.409 1498.25,610.965 1491.86,612.456 1485.38,613.884 1478.82,615.247 1472.18,616.544 1465.47,617.774 1458.68,618.937 1451.81,620.033 1444.88,621.06 1437.88,622.017 1430.82,622.905 1423.7,623.722 1416.52,624.468 1409.29,625.143 1402,625.745 1394.66,626.275 1387.28,626.732 1379.85,627.115 1372.38,627.425 1364.87,627.66 1357.33,627.821 1349.76,627.907 1342.16,627.917 1334.53,627.853 1326.88,627.712 1319.21,627.496 1311.52,627.204 1303.82,626.836 1296.1,626.392 1288.38,625.871 1280.65,625.274 1272.92,624.601 1265.2,623.851 1257.47,623.025 1249.76,622.123 1242.05,621.145 1234.36,620.091 "/>
<path clip-path="url(#clip060)" d="M266.367 1438.47 L832.777 1438.47 L832.777 1334.79 L266.367 1334.79  Z" fill="#ffffff" fill-rule="evenodd" fill-opacity="1"/>
<polyline clip-path="url(#clip060)" style="stroke:#000000; stroke-linecap:round; stroke-linejoin:round; stroke-width:4; stroke-opacity:1; fill:none" points="266.367,1438.47 832.777,1438.47 832.777,1334.79 266.367,1334.79 266.367,1438.47 "/>
<polyline clip-path="url(#clip060)" style="stroke:#009af9; stroke-linecap:round; stroke-linejoin:round; stroke-width:4; stroke-opacity:1; fill:none" points="290.348,1386.63 434.237,1386.63 "/>
<path clip-path="url(#clip060)" d="M468.843 1367.94 Q465.742 1373.27 464.237 1378.47 Q462.732 1383.68 462.732 1389.03 Q462.732 1394.38 464.237 1399.63 Q465.765 1404.86 468.843 1410.16 L465.14 1410.16 Q461.668 1404.72 459.931 1399.47 Q458.218 1394.22 458.218 1389.03 Q458.218 1383.87 459.931 1378.64 Q461.644 1373.41 465.14 1367.94 L468.843 1367.94 Z" fill="#000000" fill-rule="nonzero" fill-opacity="1" /><path clip-path="url(#clip060)" d="M476.667 1393.68 L476.667 1377.99 L480.927 1377.99 L480.927 1393.52 Q480.927 1397.2 482.362 1399.05 Q483.797 1400.88 486.667 1400.88 Q490.116 1400.88 492.107 1398.68 Q494.121 1396.48 494.121 1392.69 L494.121 1377.99 L498.38 1377.99 L498.38 1403.91 L494.121 1403.91 L494.121 1399.93 Q492.57 1402.29 490.51 1403.45 Q488.473 1404.59 485.765 1404.59 Q481.297 1404.59 478.982 1401.81 Q476.667 1399.03 476.667 1393.68 M487.385 1377.36 L487.385 1377.36 Z" fill="#000000" fill-rule="nonzero" fill-opacity="1" /><path clip-path="url(#clip060)" d="M506.76 1367.9 L516.575 1367.9 L516.575 1371.21 L511.019 1371.21 L511.019 1406.85 L516.575 1406.85 L516.575 1410.16 L506.76 1410.16 L506.76 1367.9 Z" fill="#000000" fill-rule="nonzero" fill-opacity="1" /><path clip-path="url(#clip060)" d="M527.061 1399.98 L534.7 1399.98 L534.7 1373.61 L526.389 1375.28 L526.389 1371.02 L534.653 1369.35 L539.329 1369.35 L539.329 1399.98 L546.968 1399.98 L546.968 1403.91 L527.061 1403.91 L527.061 1399.98 Z" fill="#000000" fill-rule="nonzero" fill-opacity="1" /><path clip-path="url(#clip060)" d="M565.764 1367.9 L565.764 1410.16 L555.949 1410.16 L555.949 1406.85 L561.482 1406.85 L561.482 1371.21 L555.949 1371.21 L555.949 1367.9 L565.764 1367.9 Z" fill="#000000" fill-rule="nonzero" fill-opacity="1" /><path clip-path="url(#clip060)" d="M575.394 1398.03 L580.278 1398.03 L580.278 1402.02 L576.482 1409.42 L573.496 1409.42 L575.394 1402.02 L575.394 1398.03 Z" fill="#000000" fill-rule="nonzero" fill-opacity="1" /><path clip-path="url(#clip060)" d="M588.935 1393.68 L588.935 1377.99 L593.195 1377.99 L593.195 1393.52 Q593.195 1397.2 594.63 1399.05 Q596.065 1400.88 598.935 1400.88 Q602.384 1400.88 604.375 1398.68 Q606.389 1396.48 606.389 1392.69 L606.389 1377.99 L610.648 1377.99 L610.648 1403.91 L606.389 1403.91 L606.389 1399.93 Q604.838 1402.29 602.778 1403.45 Q600.741 1404.59 598.033 1404.59 Q593.565 1404.59 591.25 1401.81 Q588.935 1399.03 588.935 1393.68 M599.653 1377.36 L599.653 1377.36 Z" fill="#000000" fill-rule="nonzero" fill-opacity="1" /><path clip-path="url(#clip060)" d="M619.028 1367.9 L628.843 1367.9 L628.843 1371.21 L623.287 1371.21 L623.287 1406.85 L628.843 1406.85 L628.843 1410.16 L619.028 1410.16 L619.028 1367.9 Z" fill="#000000" fill-rule="nonzero" fill-opacity="1" /><path clip-path="url(#clip060)" d="M642.546 1399.98 L658.866 1399.98 L658.866 1403.91 L636.921 1403.91 L636.921 1399.98 Q639.583 1397.22 644.167 1392.6 Q648.773 1387.94 649.954 1386.6 Q652.199 1384.08 653.079 1382.34 Q653.981 1380.58 653.981 1378.89 Q653.981 1376.14 652.037 1374.4 Q650.116 1372.66 647.014 1372.66 Q644.815 1372.66 642.361 1373.43 Q639.93 1374.19 637.153 1375.74 L637.153 1371.02 Q639.977 1369.89 642.43 1369.31 Q644.884 1368.73 646.921 1368.73 Q652.291 1368.73 655.486 1371.41 Q658.68 1374.1 658.68 1378.59 Q658.68 1380.72 657.87 1382.64 Q657.083 1384.54 654.977 1387.13 Q654.398 1387.8 651.296 1391.02 Q648.194 1394.22 642.546 1399.98 Z" fill="#000000" fill-rule="nonzero" fill-opacity="1" /><path clip-path="url(#clip060)" d="M678.032 1367.9 L678.032 1410.16 L668.217 1410.16 L668.217 1406.85 L673.75 1406.85 L673.75 1371.21 L668.217 1371.21 L668.217 1367.9 L678.032 1367.9 Z" fill="#000000" fill-rule="nonzero" fill-opacity="1" /><path clip-path="url(#clip060)" d="M687.662 1398.03 L692.546 1398.03 L692.546 1402.02 L688.75 1409.42 L685.764 1409.42 L687.662 1402.02 L687.662 1398.03 Z" fill="#000000" fill-rule="nonzero" fill-opacity="1" /><path clip-path="url(#clip060)" d="M701.203 1393.68 L701.203 1377.99 L705.463 1377.99 L705.463 1393.52 Q705.463 1397.2 706.898 1399.05 Q708.333 1400.88 711.203 1400.88 Q714.652 1400.88 716.643 1398.68 Q718.657 1396.48 718.657 1392.69 L718.657 1377.99 L722.916 1377.99 L722.916 1403.91 L718.657 1403.91 L718.657 1399.93 Q717.106 1402.29 715.046 1403.45 Q713.009 1404.59 710.3 1404.59 Q705.833 1404.59 703.518 1401.81 Q701.203 1399.03 701.203 1393.68 M711.921 1377.36 L711.921 1377.36 Z" fill="#000000" fill-rule="nonzero" fill-opacity="1" /><path clip-path="url(#clip060)" d="M731.296 1367.9 L741.11 1367.9 L741.11 1371.21 L735.555 1371.21 L735.555 1406.85 L741.11 1406.85 L741.11 1410.16 L731.296 1410.16 L731.296 1367.9 Z" fill="#000000" fill-rule="nonzero" fill-opacity="1" /><path clip-path="url(#clip060)" d="M764.953 1385.28 Q768.309 1386 770.184 1388.27 Q772.083 1390.53 772.083 1393.87 Q772.083 1398.98 768.564 1401.78 Q765.046 1404.59 758.564 1404.59 Q756.388 1404.59 754.073 1404.15 Q751.782 1403.73 749.328 1402.87 L749.328 1398.36 Q751.272 1399.49 753.587 1400.07 Q755.902 1400.65 758.425 1400.65 Q762.823 1400.65 765.115 1398.91 Q767.43 1397.18 767.43 1393.87 Q767.43 1390.81 765.277 1389.1 Q763.147 1387.36 759.328 1387.36 L755.3 1387.36 L755.3 1383.52 L759.513 1383.52 Q762.962 1383.52 764.791 1382.16 Q766.62 1380.77 766.62 1378.17 Q766.62 1375.51 764.721 1374.1 Q762.846 1372.66 759.328 1372.66 Q757.407 1372.66 755.208 1373.08 Q753.009 1373.5 750.37 1374.38 L750.37 1370.21 Q753.032 1369.47 755.346 1369.1 Q757.684 1368.73 759.745 1368.73 Q765.069 1368.73 768.171 1371.16 Q771.272 1373.57 771.272 1377.69 Q771.272 1380.56 769.629 1382.55 Q767.985 1384.52 764.953 1385.28 Z" fill="#000000" fill-rule="nonzero" fill-opacity="1" /><path clip-path="url(#clip060)" d="M790.3 1367.9 L790.3 1410.16 L780.485 1410.16 L780.485 1406.85 L786.018 1406.85 L786.018 1371.21 L780.485 1371.21 L780.485 1367.9 L790.3 1367.9 Z" fill="#000000" fill-rule="nonzero" fill-opacity="1" /><path clip-path="url(#clip060)" d="M798.17 1367.94 L801.874 1367.94 Q805.346 1373.41 807.059 1378.64 Q808.795 1383.87 808.795 1389.03 Q808.795 1394.22 807.059 1399.47 Q805.346 1404.72 801.874 1410.16 L798.17 1410.16 Q801.249 1404.86 802.754 1399.63 Q804.281 1394.38 804.281 1389.03 Q804.281 1383.68 802.754 1378.47 Q801.249 1373.27 798.17 1367.94 Z" fill="#000000" fill-rule="nonzero" fill-opacity="1" /></svg>
