<?xml version="1.0" encoding="utf-8"?>
<svg xmlns="http://www.w3.org/2000/svg" xmlns:xlink="http://www.w3.org/1999/xlink" width="600" height="400" viewBox="0 0 2400 1600">
<defs>
  <clipPath id="clip840">
    <rect x="0" y="0" width="2400" height="1600"/>
  </clipPath>
</defs>
<path clip-path="url(#clip840)" d="M0 1600 L2400 1600 L2400 0 L0 0  Z" fill="#ffffff" fill-rule="evenodd" fill-opacity="1"/>
<defs>
  <clipPath id="clip841">
    <rect x="480" y="0" width="1681" height="1600"/>
  </clipPath>
</defs>
<path clip-path="url(#clip840)" d="M192.941 1423.18 L2352.76 1423.18 L2352.76 47.2441 L192.941 47.2441  Z" fill="#ffffff" fill-rule="evenodd" fill-opacity="1"/>
<defs>
  <clipPath id="clip842">
    <rect x="192" y="47" width="2161" height="1377"/>
  </clipPath>
</defs>
<polyline clip-path="url(#clip842)" style="stroke:#000000; stroke-linecap:round; stroke-linejoin:round; stroke-width:2; stroke-opacity:0.1; fill:none" points="192.941,1423.18 192.941,47.2441 "/>
<polyline clip-path="url(#clip842)" style="stroke:#000000; stroke-linecap:round; stroke-linejoin:round; stroke-width:2; stroke-opacity:0.1; fill:none" points="912.879,1423.18 912.879,47.2441 "/>
<polyline clip-path="url(#clip842)" style="stroke:#000000; stroke-linecap:round; stroke-linejoin:round; stroke-width:2; stroke-opacity:0.1; fill:none" points="1632.82,1423.18 1632.82,47.2441 "/>
<polyline clip-path="url(#clip842)" style="stroke:#000000; stroke-linecap:round; stroke-linejoin:round; stroke-width:2; stroke-opacity:0.1; fill:none" points="2352.76,1423.18 2352.76,47.2441 "/>
<polyline clip-path="url(#clip840)" style="stroke:#000000; stroke-linecap:round; stroke-linejoin:round; stroke-width:4; stroke-opacity:1; fill:none" points="192.941,1423.18 2352.76,1423.18 "/>
<polyline clip-path="url(#clip840)" style="stroke:#000000; stroke-linecap:round; stroke-linejoin:round; stroke-width:4; stroke-opacity:1; fill:none" points="192.941,1423.18 192.941,1404.28 "/>
<polyline clip-path="url(#clip840)" style="stroke:#000000; stroke-linecap:round; stroke-linejoin:round; stroke-width:4; stroke-opacity:1; fill:none" points="912.879,1423.18 912.879,1404.28 "/>
<polyline clip-path="url(#clip840)" style="stroke:#000000; stroke-linecap:round; stroke-linejoin:round; stroke-width:4; stroke-opacity:1; fill:none" points="1632.82,1423.18 1632.82,1404.28 "/>
<polyline clip-path="url(#clip840)" style="stroke:#000000; stroke-linecap:round; stroke-linejoin:round; stroke-width:4; stroke-opacity:1; fill:none" points="2352.76,1423.18 2352.76,1404.28 "/>
<path clip-path="url(#clip840)" d="M192.941 1454.1 Q189.33 1454.1 187.501 1457.66 Q185.695 1461.2 185.695 1468.33 Q185.695 1475.44 187.501 1479.01 Q189.33 1482.55 192.941 1482.55 Q196.575 1482.55 198.38 1479.01 Q200.209 1475.44 200.209 1468.33 Q200.209 1461.2 198.38 1457.66 Q196.575 1454.1 192.941 1454.1 M192.941 1450.39 Q198.751 1450.39 201.806 1455 Q204.885 1459.58 204.885 1468.33 Q204.885 1477.06 201.806 1481.67 Q198.751 1486.25 192.941 1486.25 Q187.13 1486.25 184.052 1481.67 Q180.996 1477.06 180.996 1468.33 Q180.996 1459.58 184.052 1455 Q187.13 1450.39 192.941 1450.39 Z" fill="#000000" fill-rule="nonzero" fill-opacity="1" /><path clip-path="url(#clip840)" d="M903.261 1481.64 L910.9 1481.64 L910.9 1455.28 L902.59 1456.95 L902.59 1452.69 L910.854 1451.02 L915.53 1451.02 L915.53 1481.64 L923.168 1481.64 L923.168 1485.58 L903.261 1485.58 L903.261 1481.64 Z" fill="#000000" fill-rule="nonzero" fill-opacity="1" /><path clip-path="url(#clip840)" d="M1627.47 1481.64 L1643.79 1481.64 L1643.79 1485.58 L1621.85 1485.58 L1621.85 1481.64 Q1624.51 1478.89 1629.09 1474.26 Q1633.7 1469.61 1634.88 1468.27 Q1637.12 1465.74 1638 1464.01 Q1638.91 1462.25 1638.91 1460.56 Q1638.91 1457.8 1636.96 1456.07 Q1635.04 1454.33 1631.94 1454.33 Q1629.74 1454.33 1627.29 1455.09 Q1624.85 1455.86 1622.08 1457.41 L1622.08 1452.69 Q1624.9 1451.55 1627.35 1450.97 Q1629.81 1450.39 1631.85 1450.39 Q1637.22 1450.39 1640.41 1453.08 Q1643.6 1455.77 1643.6 1460.26 Q1643.6 1462.39 1642.79 1464.31 Q1642.01 1466.2 1639.9 1468.8 Q1639.32 1469.47 1636.22 1472.69 Q1633.12 1475.88 1627.47 1481.64 Z" fill="#000000" fill-rule="nonzero" fill-opacity="1" /><path clip-path="url(#clip840)" d="M2357 1466.95 Q2360.36 1467.66 2362.24 1469.93 Q2364.13 1472.2 2364.13 1475.53 Q2364.13 1480.65 2360.61 1483.45 Q2357.1 1486.25 2350.61 1486.25 Q2348.44 1486.25 2346.12 1485.81 Q2343.83 1485.39 2341.38 1484.54 L2341.38 1480.02 Q2343.32 1481.16 2345.64 1481.74 Q2347.95 1482.32 2350.48 1482.32 Q2354.87 1482.32 2357.17 1480.58 Q2359.48 1478.84 2359.48 1475.53 Q2359.48 1472.48 2357.33 1470.77 Q2355.2 1469.03 2351.38 1469.03 L2347.35 1469.03 L2347.35 1465.19 L2351.56 1465.19 Q2355.01 1465.19 2356.84 1463.82 Q2358.67 1462.43 2358.67 1459.84 Q2358.67 1457.18 2356.77 1455.77 Q2354.9 1454.33 2351.38 1454.33 Q2349.46 1454.33 2347.26 1454.75 Q2345.06 1455.16 2342.42 1456.04 L2342.42 1451.88 Q2345.08 1451.14 2347.4 1450.77 Q2349.74 1450.39 2351.8 1450.39 Q2357.12 1450.39 2360.22 1452.83 Q2363.32 1455.23 2363.32 1459.35 Q2363.32 1462.22 2361.68 1464.21 Q2360.04 1466.18 2357 1466.95 Z" fill="#000000" fill-rule="nonzero" fill-opacity="1" /><path clip-path="url(#clip840)" d="M1271.91 1522.27 L1271.91 1532.4 L1283.97 1532.4 L1283.97 1536.95 L1271.91 1536.95 L1271.91 1556.3 Q1271.91 1560.66 1273.09 1561.9 Q1274.3 1563.14 1277.96 1563.14 L1283.97 1563.14 L1283.97 1568.04 L1277.96 1568.04 Q1271.18 1568.04 1268.6 1565.53 Q1266.02 1562.98 1266.02 1556.3 L1266.02 1536.95 L1261.72 1536.95 L1261.72 1532.4 L1266.02 1532.4 L1266.02 1522.27 L1271.91 1522.27 Z" fill="#000000" fill-rule="nonzero" fill-opacity="1" /><polyline clip-path="url(#clip842)" style="stroke:#000000; stroke-linecap:round; stroke-linejoin:round; stroke-width:2; stroke-opacity:0.1; fill:none" points="192.941,1358.81 2352.76,1358.81 "/>
<polyline clip-path="url(#clip842)" style="stroke:#000000; stroke-linecap:round; stroke-linejoin:round; stroke-width:2; stroke-opacity:0.1; fill:none" points="192.941,1108.14 2352.76,1108.14 "/>
<polyline clip-path="url(#clip842)" style="stroke:#000000; stroke-linecap:round; stroke-linejoin:round; stroke-width:2; stroke-opacity:0.1; fill:none" points="192.941,857.467 2352.76,857.467 "/>
<polyline clip-path="url(#clip842)" style="stroke:#000000; stroke-linecap:round; stroke-linejoin:round; stroke-width:2; stroke-opacity:0.1; fill:none" points="192.941,606.797 2352.76,606.797 "/>
<polyline clip-path="url(#clip842)" style="stroke:#000000; stroke-linecap:round; stroke-linejoin:round; stroke-width:2; stroke-opacity:0.1; fill:none" points="192.941,356.127 2352.76,356.127 "/>
<polyline clip-path="url(#clip842)" style="stroke:#000000; stroke-linecap:round; stroke-linejoin:round; stroke-width:2; stroke-opacity:0.1; fill:none" points="192.941,105.457 2352.76,105.457 "/>
<polyline clip-path="url(#clip840)" style="stroke:#000000; stroke-linecap:round; stroke-linejoin:round; stroke-width:4; stroke-opacity:1; fill:none" points="192.941,1423.18 192.941,47.2441 "/>
<polyline clip-path="url(#clip840)" style="stroke:#000000; stroke-linecap:round; stroke-linejoin:round; stroke-width:4; stroke-opacity:1; fill:none" points="192.941,1358.81 211.838,1358.81 "/>
<polyline clip-path="url(#clip840)" style="stroke:#000000; stroke-linecap:round; stroke-linejoin:round; stroke-width:4; stroke-opacity:1; fill:none" points="192.941,1108.14 211.838,1108.14 "/>
<polyline clip-path="url(#clip840)" style="stroke:#000000; stroke-linecap:round; stroke-linejoin:round; stroke-width:4; stroke-opacity:1; fill:none" points="192.941,857.467 211.838,857.467 "/>
<polyline clip-path="url(#clip840)" style="stroke:#000000; stroke-linecap:round; stroke-linejoin:round; stroke-width:4; stroke-opacity:1; fill:none" points="192.941,606.797 211.838,606.797 "/>
<polyline clip-path="url(#clip840)" style="stroke:#000000; stroke-linecap:round; stroke-linejoin:round; stroke-width:4; stroke-opacity:1; fill:none" points="192.941,356.127 211.838,356.127 "/>
<polyline clip-path="url(#clip840)" style="stroke:#000000; stroke-linecap:round; stroke-linejoin:round; stroke-width:4; stroke-opacity:1; fill:none" points="192.941,105.457 211.838,105.457 "/>
<path clip-path="url(#clip840)" d="M50.9921 1359.26 L80.6679 1359.26 L80.6679 1363.19 L50.9921 1363.19 L50.9921 1359.26 Z" fill="#000000" fill-rule="nonzero" fill-opacity="1" /><path clip-path="url(#clip840)" d="M100.76 1344.61 Q97.1493 1344.61 95.3206 1348.17 Q93.515 1351.71 93.515 1358.84 Q93.515 1365.95 95.3206 1369.51 Q97.1493 1373.05 100.76 1373.05 Q104.395 1373.05 106.2 1369.51 Q108.029 1365.95 108.029 1358.84 Q108.029 1351.71 106.2 1348.17 Q104.395 1344.61 100.76 1344.61 M100.76 1340.9 Q106.571 1340.9 109.626 1345.51 Q112.705 1350.09 112.705 1358.84 Q112.705 1367.57 109.626 1372.18 Q106.571 1376.76 100.76 1376.76 Q94.9502 1376.76 91.8715 1372.18 Q88.816 1367.57 88.816 1358.84 Q88.816 1350.09 91.8715 1345.51 Q94.9502 1340.9 100.76 1340.9 Z" fill="#000000" fill-rule="nonzero" fill-opacity="1" /><path clip-path="url(#clip840)" d="M120.922 1370.21 L125.807 1370.21 L125.807 1376.09 L120.922 1376.09 L120.922 1370.21 Z" fill="#000000" fill-rule="nonzero" fill-opacity="1" /><path clip-path="url(#clip840)" d="M136.038 1341.53 L154.394 1341.53 L154.394 1345.46 L140.32 1345.46 L140.32 1353.93 Q141.339 1353.59 142.357 1353.43 Q143.376 1353.24 144.394 1353.24 Q150.181 1353.24 153.561 1356.41 Q156.941 1359.58 156.941 1365 Q156.941 1370.58 153.468 1373.68 Q149.996 1376.76 143.677 1376.76 Q141.501 1376.76 139.232 1376.39 Q136.987 1376.02 134.58 1375.28 L134.58 1370.58 Q136.663 1371.71 138.885 1372.27 Q141.107 1372.82 143.584 1372.82 Q147.589 1372.82 149.927 1370.72 Q152.265 1368.61 152.265 1365 Q152.265 1361.39 149.927 1359.28 Q147.589 1357.18 143.584 1357.18 Q141.709 1357.18 139.834 1357.59 Q137.982 1358.01 136.038 1358.89 L136.038 1341.53 Z" fill="#000000" fill-rule="nonzero" fill-opacity="1" /><path clip-path="url(#clip840)" d="M99.765 1093.94 Q96.1539 1093.94 94.3252 1097.5 Q92.5197 1101.04 92.5197 1108.17 Q92.5197 1115.28 94.3252 1118.84 Q96.1539 1122.38 99.765 1122.38 Q103.399 1122.38 105.205 1118.84 Q107.033 1115.28 107.033 1108.17 Q107.033 1101.04 105.205 1097.5 Q103.399 1093.94 99.765 1093.94 M99.765 1090.23 Q105.575 1090.23 108.631 1094.84 Q111.709 1099.42 111.709 1108.17 Q111.709 1116.9 108.631 1121.51 Q105.575 1126.09 99.765 1126.09 Q93.9549 1126.09 90.8762 1121.51 Q87.8206 1116.9 87.8206 1108.17 Q87.8206 1099.42 90.8762 1094.84 Q93.9549 1090.23 99.765 1090.23 Z" fill="#000000" fill-rule="nonzero" fill-opacity="1" /><path clip-path="url(#clip840)" d="M119.927 1119.54 L124.811 1119.54 L124.811 1125.42 L119.927 1125.42 L119.927 1119.54 Z" fill="#000000" fill-rule="nonzero" fill-opacity="1" /><path clip-path="url(#clip840)" d="M144.996 1093.94 Q141.385 1093.94 139.556 1097.5 Q137.751 1101.04 137.751 1108.17 Q137.751 1115.28 139.556 1118.84 Q141.385 1122.38 144.996 1122.38 Q148.63 1122.38 150.436 1118.84 Q152.265 1115.28 152.265 1108.17 Q152.265 1101.04 150.436 1097.5 Q148.63 1093.94 144.996 1093.94 M144.996 1090.23 Q150.806 1090.23 153.862 1094.84 Q156.941 1099.42 156.941 1108.17 Q156.941 1116.9 153.862 1121.51 Q150.806 1126.09 144.996 1126.09 Q139.186 1126.09 136.107 1121.51 Q133.052 1116.9 133.052 1108.17 Q133.052 1099.42 136.107 1094.84 Q139.186 1090.23 144.996 1090.23 Z" fill="#000000" fill-rule="nonzero" fill-opacity="1" /><path clip-path="url(#clip840)" d="M100.76 843.266 Q97.1493 843.266 95.3206 846.831 Q93.515 850.373 93.515 857.502 Q93.515 864.609 95.3206 868.173 Q97.1493 871.715 100.76 871.715 Q104.395 871.715 106.2 868.173 Q108.029 864.609 108.029 857.502 Q108.029 850.373 106.2 846.831 Q104.395 843.266 100.76 843.266 M100.76 839.562 Q106.571 839.562 109.626 844.169 Q112.705 848.752 112.705 857.502 Q112.705 866.229 109.626 870.835 Q106.571 875.419 100.76 875.419 Q94.9502 875.419 91.8715 870.835 Q88.816 866.229 88.816 857.502 Q88.816 848.752 91.8715 844.169 Q94.9502 839.562 100.76 839.562 Z" fill="#000000" fill-rule="nonzero" fill-opacity="1" /><path clip-path="url(#clip840)" d="M120.922 868.868 L125.807 868.868 L125.807 874.747 L120.922 874.747 L120.922 868.868 Z" fill="#000000" fill-rule="nonzero" fill-opacity="1" /><path clip-path="url(#clip840)" d="M136.038 840.187 L154.394 840.187 L154.394 844.123 L140.32 844.123 L140.32 852.595 Q141.339 852.248 142.357 852.085 Q143.376 851.9 144.394 851.9 Q150.181 851.9 153.561 855.072 Q156.941 858.243 156.941 863.659 Q156.941 869.238 153.468 872.34 Q149.996 875.419 143.677 875.419 Q141.501 875.419 139.232 875.048 Q136.987 874.678 134.58 873.937 L134.58 869.238 Q136.663 870.372 138.885 870.928 Q141.107 871.484 143.584 871.484 Q147.589 871.484 149.927 869.377 Q152.265 867.271 152.265 863.659 Q152.265 860.048 149.927 857.942 Q147.589 855.835 143.584 855.835 Q141.709 855.835 139.834 856.252 Q137.982 856.669 136.038 857.548 L136.038 840.187 Z" fill="#000000" fill-rule="nonzero" fill-opacity="1" /><path clip-path="url(#clip840)" d="M90.5752 620.142 L98.2141 620.142 L98.2141 593.777 L89.904 595.443 L89.904 591.184 L98.1678 589.517 L102.844 589.517 L102.844 620.142 L110.483 620.142 L110.483 624.077 L90.5752 624.077 L90.5752 620.142 Z" fill="#000000" fill-rule="nonzero" fill-opacity="1" /><path clip-path="url(#clip840)" d="M119.927 618.198 L124.811 618.198 L124.811 624.077 L119.927 624.077 L119.927 618.198 Z" fill="#000000" fill-rule="nonzero" fill-opacity="1" /><path clip-path="url(#clip840)" d="M144.996 592.596 Q141.385 592.596 139.556 596.161 Q137.751 599.703 137.751 606.832 Q137.751 613.939 139.556 617.503 Q141.385 621.045 144.996 621.045 Q148.63 621.045 150.436 617.503 Q152.265 613.939 152.265 606.832 Q152.265 599.703 150.436 596.161 Q148.63 592.596 144.996 592.596 M144.996 588.892 Q150.806 588.892 153.862 593.499 Q156.941 598.082 156.941 606.832 Q156.941 615.559 153.862 620.165 Q150.806 624.749 144.996 624.749 Q139.186 624.749 136.107 620.165 Q133.052 615.559 133.052 606.832 Q133.052 598.082 136.107 593.499 Q139.186 588.892 144.996 588.892 Z" fill="#000000" fill-rule="nonzero" fill-opacity="1" /><path clip-path="url(#clip840)" d="M91.5706 369.472 L99.2095 369.472 L99.2095 343.107 L90.8993 344.773 L90.8993 340.514 L99.1632 338.847 L103.839 338.847 L103.839 369.472 L111.478 369.472 L111.478 373.407 L91.5706 373.407 L91.5706 369.472 Z" fill="#000000" fill-rule="nonzero" fill-opacity="1" /><path clip-path="url(#clip840)" d="M120.922 367.528 L125.807 367.528 L125.807 373.407 L120.922 373.407 L120.922 367.528 Z" fill="#000000" fill-rule="nonzero" fill-opacity="1" /><path clip-path="url(#clip840)" d="M136.038 338.847 L154.394 338.847 L154.394 342.783 L140.32 342.783 L140.32 351.255 Q141.339 350.908 142.357 350.746 Q143.376 350.56 144.394 350.56 Q150.181 350.56 153.561 353.732 Q156.941 356.903 156.941 362.32 Q156.941 367.898 153.468 371 Q149.996 374.079 143.677 374.079 Q141.501 374.079 139.232 373.708 Q136.987 373.338 134.58 372.597 L134.58 367.898 Q136.663 369.032 138.885 369.588 Q141.107 370.144 143.584 370.144 Q147.589 370.144 149.927 368.037 Q152.265 365.931 152.265 362.32 Q152.265 358.708 149.927 356.602 Q147.589 354.496 143.584 354.496 Q141.709 354.496 139.834 354.912 Q137.982 355.329 136.038 356.208 L136.038 338.847 Z" fill="#000000" fill-rule="nonzero" fill-opacity="1" /><path clip-path="url(#clip840)" d="M93.7928 118.802 L110.112 118.802 L110.112 122.737 L88.1679 122.737 L88.1679 118.802 Q90.8299 116.048 95.4132 111.418 Q100.02 106.765 101.2 105.423 Q103.446 102.9 104.325 101.164 Q105.228 99.4043 105.228 97.7144 Q105.228 94.9598 103.284 93.2237 Q101.362 91.4876 98.2604 91.4876 Q96.0613 91.4876 93.6076 92.2515 Q91.1771 93.0154 88.3993 94.5663 L88.3993 89.8441 Q91.2234 88.7099 93.6771 88.1312 Q96.1308 87.5525 98.1678 87.5525 Q103.538 87.5525 106.733 90.2376 Q109.927 92.9228 109.927 97.4135 Q109.927 99.5431 109.117 101.464 Q108.33 103.363 106.223 105.955 Q105.645 106.626 102.543 109.844 Q99.4409 113.038 93.7928 118.802 Z" fill="#000000" fill-rule="nonzero" fill-opacity="1" /><path clip-path="url(#clip840)" d="M119.927 116.858 L124.811 116.858 L124.811 122.737 L119.927 122.737 L119.927 116.858 Z" fill="#000000" fill-rule="nonzero" fill-opacity="1" /><path clip-path="url(#clip840)" d="M144.996 91.2561 Q141.385 91.2561 139.556 94.8209 Q137.751 98.3626 137.751 105.492 Q137.751 112.599 139.556 116.163 Q141.385 119.705 144.996 119.705 Q148.63 119.705 150.436 116.163 Q152.265 112.599 152.265 105.492 Q152.265 98.3626 150.436 94.8209 Q148.63 91.2561 144.996 91.2561 M144.996 87.5525 Q150.806 87.5525 153.862 92.1589 Q156.941 96.7422 156.941 105.492 Q156.941 114.219 153.862 118.825 Q150.806 123.409 144.996 123.409 Q139.186 123.409 136.107 118.825 Q133.052 114.219 133.052 105.492 Q133.052 96.7422 136.107 92.1589 Q139.186 87.5525 144.996 87.5525 Z" fill="#000000" fill-rule="nonzero" fill-opacity="1" /><polyline clip-path="url(#clip842)" style="stroke:#009af9; stroke-linecap:round; stroke-linejoin:round; stroke-width:4; stroke-opacity:1; fill:none" points="192.941,832.4 195.103,1072.33 197.265,1370.73 199.427,1240.31 201.589,894.04 203.751,897.409 205.912,1244.92 208.074,1369.05 210.236,1067.08 212.398,832.162 214.56,1047.95 216.722,1362.04 218.884,1261.45 221.046,910.476 223.208,882.32 225.37,1222.98 227.532,1376.07 229.694,1091.56 231.856,834.122 234.018,1024.23 236.18,1351.39 238.342,1281.24 240.504,928.357 242.666,869.123 244.828,1200.29 246.99,1380.94 249.152,1115.99 251.314,838.219 253.476,1001.34 255.638,1338.91 257.8,1299.52 259.962,947.513 262.124,857.881 264.286,1177.04 266.448,1383.65 268.61,1140.19 270.772,844.374 272.934,979.431 275.096,1324.74 277.258,1316.21 279.42,967.767 281.582,848.639 283.744,1153.44 285.906,1384.23 288.068,1163.97 290.23,852.497 292.392,958.66 294.554,1309.03 296.716,1331.19 298.878,988.94 301.039,841.427 303.201,1129.66 305.363,1382.73 307.525,1187.17 309.687,862.483 311.849,939.159 314.011,1291.92 316.173,1344.4 318.335,1010.85 320.497,836.255 322.659,1105.89 324.821,1379.2 326.983,1209.61 329.145,874.22 331.307,921.047 333.469,1273.58 335.631,1355.78 337.793,1033.33 339.955,833.118 342.117,1082.3 344.279,1373.7 346.441,1231.15 348.603,887.582 350.765,904.427 352.927,1254.16 355.089,1365.27 357.251,1056.19 359.413,831.997 361.575,1059.07 363.737,1366.33 365.899,1251.65 368.061,902.439 370.223,889.389 372.385,1233.83 374.547,1372.86 376.709,1079.26 378.871,832.857 381.033,1036.35 383.195,1357.17 385.357,1270.99 387.519,918.653 389.681,876.007 391.843,1212.75 394.005,1378.52 396.166,1102.37 398.328,835.652 400.49,1014.29 402.652,1346.32 404.814,1289.05 406.976,936.082 409.138,864.341 411.3,1191.09 413.462,1382.25 415.624,1125.37 417.786,840.32 419.948,993.039 422.11,1333.9 424.272,1305.73 426.434,954.579 428.596,854.438 430.758,1169 432.92,1384.07 435.082,1148.08 437.244,846.793 439.406,972.72 441.568,1320.01 443.73,1320.95 445.892,973.995 448.054,846.328 450.216,1146.66 452.378,1384.02 454.54,1170.37 456.702,854.988 458.864,953.453 461.026,1304.8 463.188,1334.64 465.35,994.181 467.512,840.029 469.674,1124.2 471.836,1382.11 473.998,1192.1 476.16,864.817 478.322,935.347 480.484,1288.38 482.646,1346.72 484.808,1014.99 486.97,835.548 489.132,1101.79 491.293,1378.41 493.455,1213.12 495.617,876.179 497.779,918.498 499.941,1270.89 502.103,1357.17 504.265,1036.26 506.427,832.878 508.589,1079.58 510.751,1372.98 512.913,1233.32 515.075,888.972 517.237,902.991 519.399,1252.46 521.561,1365.93 523.723,1057.85 525.885,831.998 528.047,1057.69 530.209,1365.88 532.371,1252.59 534.533,903.083 536.695,888.899 538.857,1233.24 541.019,1373 543.181,1079.63 545.343,832.881 547.505,1036.27 549.667,1357.19 551.829,1270.81 553.991,918.397 556.153,876.284 558.315,1213.35 560.477,1378.35 562.639,1101.44 564.801,835.484 566.963,1015.45 569.125,1347 571.287,1287.9 573.449,934.796 575.611,865.195 577.773,1192.93 579.935,1381.98 582.097,1123.15 584.259,839.76 586.42,995.324 588.582,1335.4 590.744,1303.77 592.906,952.155 595.068,855.671 597.23,1172.13 599.392,1383.92 601.554,1144.62 603.716,845.648 605.878,976.022 608.04,1322.5 610.202,1318.34 612.364,970.352 614.526,847.741 616.688,1151.07 618.85,1384.17 621.012,1165.74 623.174,853.084 625.336,957.638 627.498,1308.38 629.66,1331.56 631.822,989.26 633.984,841.422 636.146,1129.89 638.308,1382.77 640.47,1186.39 642.632,861.992 644.794,940.266 646.956,1293.16 649.118,1343.37 651.28,1008.75 653.442,836.721 655.604,1108.71 657.766,1379.76 659.928,1206.44 662.09,872.294 664.252,923.99 666.414,1276.95 668.576,1353.73 670.738,1028.71 672.9,833.636 675.062,1087.67 677.224,1375.19 679.386,1225.79 681.547,883.902 683.709,908.883 685.871,1259.87 688.033,1362.6 690.195,1049 692.357,832.154 694.519,1066.86 696.681,1369.11 698.843,1244.35 701.005,896.726 703.167,895.01 705.329,1242.02 707.491,1369.97 709.653,1069.5 711.815,832.254 713.977,1046.43 716.139,1361.57 718.301,1262.03 720.463,910.671 722.625,882.43 724.787,1223.52 726.949,1375.81 729.111,1090.1 731.273,833.908 733.435,1026.46 735.597,1352.67 737.759,1278.73 739.921,925.639 742.083,871.187 744.245,1204.48 746.407,1380.12 748.569,1110.67 750.731,837.079 752.893,1007.06 755.055,1342.45 757.217,1294.39 759.379,941.527 761.541,861.321 763.703,1185.03 765.865,1382.9 768.027,1131.11 770.189,841.721 772.351,988.337 774.513,1331.01 776.674,1308.94 778.836,958.234 780.998,852.862 783.16,1165.28 785.322,1384.18 787.484,1151.3 789.646,847.784 791.808,970.372 793.97,1318.44 796.132,1322.31 798.294,975.653 800.456,845.831 802.618,1145.33 804.78,1383.95 806.942,1171.15 809.104,855.21 811.266,953.249 813.428,1304.8 815.59,1334.46 817.752,993.68 819.914,840.24 822.076,1125.29 824.238,1382.27 826.4,1190.54 828.562,863.937 830.724,937.047 832.886,1290.21 835.048,1345.35 837.21,1012.21 839.372,836.095 841.534,1105.28 843.696,1379.14 845.858,1209.39 848.02,873.896 850.182,921.834 852.344,1274.74 854.506,1354.93 856.668,1031.13 858.83,833.392 860.992,1085.4 863.154,1374.63 865.316,1227.61 867.478,885.014 869.64,907.672 871.801,1258.5 873.963,1363.18 876.125,1050.35 878.287,832.122 880.449,1065.75 882.611,1368.77 884.773,1245.11 886.935,897.216 889.097,894.616 891.259,1241.57 893.421,1370.08 895.583,1069.75 897.745,832.266 899.907,1046.42 902.069,1361.61 904.231,1261.82 906.393,910.421 908.555,882.715 910.717,1224.07 912.879,1375.62 915.041,1089.25 917.203,833.802 919.365,1027.51 921.527,1353.22 923.689,1277.67 925.851,924.547 928.013,872.01 930.175,1206.08 932.337,1379.79 934.499,1108.72 936.661,836.698 938.823,1009.1 940.985,1343.66 943.147,1292.59 945.309,939.508 947.471,862.533 949.633,1187.7 951.795,1382.59 953.957,1128.1 956.119,840.918 958.281,991.284 960.443,1332.99 962.605,1306.52 964.767,955.216 966.928,854.313 969.09,1169.03 971.252,1384.04 973.414,1147.27 975.576,846.421 977.738,974.13 979.9,1321.27 982.062,1319.41 984.224,971.585 986.386,847.368 988.548,1150.17 990.71,1384.14 992.872,1166.15 995.034,853.159 997.196,957.713 999.358,1308.6 1001.52,1331.21 1003.68,988.523 1005.84,841.713 1008.01,1131.2 1010.17,1382.92 1012.33,1184.65 1014.49,861.081 1016.65,942.101 1018.82,1295.03 1020.98,1341.89 1023.14,1005.94 1025.3,837.354 1027.46,1112.22 1029.63,1380.4 1031.79,1202.69 1033.95,870.13 1036.11,927.355 1038.27,1280.65 1040.44,1351.42 1042.6,1023.75 1044.76,834.291 1046.92,1093.32 1049.08,1376.62 1051.25,1220.2 1053.41,880.247 1055.57,913.531 1057.73,1265.54 1059.89,1359.75 1062.06,1041.86 1064.22,832.518 1066.38,1074.59 1068.54,1371.61 1070.7,1237.1 1072.87,891.368 1075.03,900.678 1077.19,1249.78 1079.35,1366.89 1081.51,1060.19 1083.68,832.025 1085.84,1056.11 1088,1365.41 1090.16,1253.32 1092.32,903.427 1094.49,888.842 1096.65,1233.45 1098.81,1372.8 1100.97,1078.64 1103.13,832.793 1105.3,1037.96 1107.46,1358.08 1109.62,1268.79 1111.78,916.354 1113.94,878.06 1116.1,1216.64 1118.27,1377.49 1120.43,1097.13 1122.59,834.801 1124.75,1020.22 1126.91,1349.65 1129.08,1283.47 1131.24,930.078 1133.4,868.365 1135.56,1199.42 1137.72,1380.95 1139.89,1115.57 1142.05,838.02 1144.21,1002.95 1146.37,1340.19 1148.53,1297.29 1150.7,944.525 1152.86,859.784 1155.02,1181.89 1157.18,1383.18 1159.34,1133.9 1161.51,842.419 1163.67,986.244 1165.83,1329.76 1167.99,1310.21 1170.15,959.621 1172.32,852.339 1174.48,1164.12 1176.64,1384.19 1178.8,1152.01 1180.96,847.96 1183.13,970.15 1185.29,1318.4 1187.45,1322.18 1189.61,975.289 1191.77,846.046 1193.94,1146.19 1196.1,1383.99 1198.26,1169.85 1200.42,854.601 1202.58,954.734 1204.75,1306.2 1206.91,1333.17 1209.07,991.454 1211.23,840.914 1213.39,1128.19 1215.56,1382.61 1217.72,1187.33 1219.88,862.299 1222.04,940.052 1224.2,1293.2 1226.37,1343.14 1228.53,1008.04 1230.69,836.949 1232.85,1110.19 1235.01,1380.07 1237.18,1204.39 1239.34,871.004 1241.5,926.156 1243.66,1279.48 1245.82,1352.06 1247.99,1024.96 1250.15,834.15 1252.31,1092.27 1254.47,1376.39 1256.63,1220.96 1258.8,880.665 1260.96,913.095 1263.12,1265.12 1265.28,1359.92 1267.44,1042.16 1269.61,832.513 1271.77,1074.51 1273.93,1371.61 1276.09,1236.98 1278.25,891.227 1280.42,900.91 1282.58,1250.16 1284.74,1366.69 1286.9,1059.54 1289.06,832.026 1291.23,1056.97 1293.39,1365.76 1295.55,1252.39 1297.71,902.632 1299.87,889.639 1302.03,1234.7 1304.2,1372.36 1306.36,1077.03 1308.52,832.676 1310.68,1039.73 1312.84,1358.89 1315.01,1267.13 1317.17,914.821 1319.33,879.316 1321.49,1218.8 1323.65,1376.93 1325.82,1094.57 1327.98,834.442 1330.14,1022.85 1332.3,1351.03 1334.46,1281.15 1336.63,927.732 1338.79,869.969 1340.95,1202.53 1343.11,1380.39 1345.27,1112.07 1347.44,837.301 1349.6,1006.4 1351.76,1342.23 1353.92,1294.41 1356.08,941.303 1358.25,861.622 1360.41,1185.96 1362.57,1382.75 1364.73,1129.47 1366.89,841.225 1369.06,990.434 1371.22,1332.55 1373.38,1306.86 1375.54,955.468 1377.7,854.294 1379.87,1169.16 1382.03,1384.01 1384.19,1146.7 1386.35,846.184 1388.51,975.012 1390.68,1322.04 1392.84,1318.47 1395,970.163 1397.16,847.998 1399.32,1152.21 1401.49,1384.19 1403.65,1163.69 1405.81,852.14 1407.97,960.186 1410.13,1310.74 1412.3,1329.21 1414.46,985.321 1416.62,842.744 1418.78,1135.18 1420.94,1383.29 1423.11,1180.39 1425.27,859.057 1427.43,946.006 1429.59,1298.71 1431.75,1339.03 1433.92,1000.87 1436.08,838.538 1438.24,1118.13 1440.4,1381.34 1442.56,1196.72 1444.73,866.893 1446.89,932.519 1449.05,1286.02 1451.21,1347.93 1453.37,1016.76 1455.54,835.379 1457.7,1101.12 1459.86,1378.36 1462.02,1212.63 1464.18,875.604 1466.35,919.764 1468.51,1272.72 1470.67,1355.88 1472.83,1032.91 1474.99,833.264 1477.16,1084.23 1479.32,1374.39 1481.48,1228.07 1483.64,885.141 1485.8,907.782 1487.97,1258.88 1490.13,1362.85 1492.29,1049.25 1494.45,832.186 1496.61,1067.51 1498.77,1369.44 1500.94,1242.98 1503.1,895.457 1505.26,896.604 1507.42,1244.55 1509.58,1368.85 1511.75,1065.73 1513.91,832.131 1516.07,1051.04 1518.23,1363.56 1520.39,1257.32 1522.56,906.501 1524.72,886.261 1526.88,1229.79 1529.04,1373.87 1531.2,1082.28 1533.37,833.085 1535.53,1034.85 1537.69,1356.77 1539.85,1271.04 1542.01,918.218 1544.18,876.779 1546.34,1214.67 1548.5,1377.89 1550.66,1098.83 1552.82,835.028 1554.99,1019.02 1557.15,1349.13 1559.31,1284.1 1561.47,930.556 1563.63,868.179 1565.8,1199.25 1567.96,1380.93 1570.12,1115.32 1572.28,837.936 1574.44,1003.59 1576.61,1340.67 1578.77,1296.46 1580.93,943.458 1583.09,860.479 1585.25,1183.59 1587.42,1382.98 1589.58,1131.7 1591.74,841.784 1593.9,988.62 1596.06,1331.44 1598.23,1308.09 1600.39,956.868 1602.55,853.691 1604.71,1167.75 1606.87,1384.06 1609.04,1147.91 1611.2,846.542 1613.36,974.148 1615.52,1321.47 1617.68,1318.96 1619.85,970.729 1622.01,847.826 1624.17,1151.8 1626.33,1384.17 1628.49,1163.88 1630.66,852.176 1632.82,960.22 1634.98,1310.83 1637.14,1329.04 1639.3,984.983 1641.47,842.888 1643.63,1135.79 1645.79,1383.34 1647.95,1179.57 1650.11,858.653 1652.28,946.879 1654.44,1299.57 1656.6,1338.31 1658.76,999.573 1660.92,838.88 1663.09,1119.77 1665.25,1381.58 1667.41,1194.93 1669.57,865.934 1671.73,934.159 1673.9,1287.72 1676.06,1346.75 1678.22,1014.44 1680.38,835.799 1682.54,1103.82 1684.7,1378.92 1686.87,1209.91 1689.03,873.98 1691.19,922.096 1693.35,1275.34 1695.51,1354.35 1697.68,1029.53 1699.84,833.639 1702,1087.97 1704.16,1375.38 1706.32,1224.46 1708.49,882.748 1710.65,910.72 1712.81,1262.5 1714.97,1361.09 1717.13,1044.78 1719.3,832.391 1721.46,1072.29 1723.62,1370.99 1725.78,1238.54 1727.94,892.196 1730.11,900.057 1732.27,1249.23 1734.43,1366.97 1736.59,1060.14 1738.75,832.043 1740.92,1056.83 1743.08,1365.78 1745.24,1252.11 1747.4,902.276 1749.56,890.13 1751.73,1235.6 1753.89,1371.98 1756.05,1075.56 1758.21,832.578 1760.37,1041.63 1762.54,1359.78 1764.7,1265.13 1766.86,912.943 1769.02,880.96 1771.18,1221.65 1773.35,1376.13 1775.51,1090.97 1777.67,833.976 1779.83,1026.74 1781.99,1353.04 1784.16,1277.58 1786.32,924.149 1788.48,872.561 1790.64,1207.45 1792.8,1379.41 1794.97,1106.34 1797.13,836.217 1799.29,1012.2 1801.45,1345.58 1803.61,1289.41 1805.78,935.845 1807.94,864.947 1810.1,1193.03 1812.26,1381.84 1814.42,1121.6 1816.59,839.275 1818.75,998.065 1820.91,1337.45 1823.07,1300.61 1825.23,947.982 1827.4,858.126 1829.56,1178.47 1831.72,1383.42 1833.88,1136.71 1836.04,843.122 1838.21,984.36 1840.37,1328.69 1842.53,1311.14 1844.69,960.511 1846.85,852.103 1849.02,1163.8 1851.18,1384.16 1853.34,1151.62 1855.5,847.729 1857.66,971.126 1859.83,1319.34 1861.99,1321 1864.15,973.381 1866.31,846.882 1868.47,1149.08 1870.63,1384.09 1872.8,1166.29 1874.96,853.063 1877.12,958.394 1879.28,1309.45 1881.44,1330.16 1883.61,986.543 1885.77,842.46 1887.93,1134.35 1890.09,1383.23 1892.25,1180.68 1894.42,859.091 1896.58,946.195 1898.74,1299.05 1900.9,1338.61 1903.06,999.947 1905.23,838.833 1907.39,1119.67 1909.55,1381.58 1911.71,1194.74 1913.87,865.775 1916.04,934.554 1918.2,1288.21 1920.36,1346.34 1922.52,1013.54 1924.68,835.993 1926.85,1105.08 1929.01,1379.19 1931.17,1208.45 1933.33,873.079 1935.49,923.496 1937.66,1276.95 1939.82,1353.34 1941.98,1027.29 1944.14,833.929 1946.3,1090.63 1948.47,1376.06 1950.63,1221.75 1952.79,880.963 1954.95,913.04 1957.11,1265.34 1959.28,1359.61 1961.44,1041.13 1963.6,832.628 1965.76,1076.35 1967.92,1372.25 1970.09,1234.63 1972.25,889.387 1974.41,903.203 1976.57,1253.41 1978.73,1365.16 1980.9,1055.02 1983.06,832.072 1985.22,1062.29 1987.38,1367.77 1989.54,1247.06 1991.71,898.309 1993.87,894 1996.03,1241.21 1998.19,1369.97 2000.35,1068.91 2002.52,832.244 2004.68,1048.48 2006.84,1362.65 2009,1259 2011.16,907.688 2013.33,885.441 2015.49,1228.79 2017.65,1374.07 2019.81,1082.77 2021.97,833.121 2024.14,1034.97 2026.3,1356.94 2028.46,1270.44 2030.62,917.479 2032.78,877.533 2034.95,1216.19 2037.11,1377.45 2039.27,1096.55 2041.43,834.678 2043.59,1021.78 2045.76,1350.67 2047.92,1281.35 2050.08,927.642 2052.24,870.282 2054.4,1203.46 2056.57,1380.13 2058.73,1110.21 2060.89,836.891 2063.05,1008.95 2065.21,1343.87 2067.37,1291.73 2069.54,938.131 2071.7,863.687 2073.86,1190.64 2076.02,1382.12 2078.18,1123.71 2080.35,839.729 2082.51,996.495 2084.67,1336.59 2086.83,1301.54 2088.99,948.902 2091.16,857.749 2093.32,1177.77 2095.48,1383.44 2097.64,1137.01 2099.8,843.164 2101.97,984.454 2104.13,1328.86 2106.29,1310.79 2108.45,959.914 2110.61,852.462 2112.78,1164.9 2114.94,1384.12 2117.1,1150.09 2119.26,847.163 2121.42,972.844 2123.59,1320.72 2125.75,1319.46 2127.91,971.123 2130.07,847.818 2132.23,1152.07 2134.4,1384.16 2136.56,1162.9 2138.72,851.692 2140.88,961.685 2143.04,1312.22 2145.21,1327.55 2147.37,982.485 2149.53,843.809 2151.69,1139.31 2153.85,1383.61 2156.02,1175.43 2158.18,856.717 2160.34,950.996 2162.5,1303.4 2164.66,1335.06 2166.83,993.96 2168.99,840.42 2171.15,1126.66 2173.31,1382.47 2175.47,1187.63 2177.64,862.201 2179.8,940.789 2181.96,1294.29 2184.12,1341.98 2186.28,1005.51 2188.45,837.637 2190.61,1114.16 2192.77,1380.79 2194.93,1199.49 2197.09,868.107 2199.26,931.077 2201.42,1284.94 2203.58,1348.33 2205.74,1017.09 2207.9,835.44 2210.07,1101.84 2212.23,1378.59 2214.39,1210.98 2216.55,874.398 2218.71,921.869 2220.88,1275.4 2223.04,1354.1 2225.2,1028.66 2227.36,833.812 2229.52,1089.73 2231.69,1375.89 2233.85,1222.08 2236.01,881.034 2238.17,913.171 2240.33,1265.69 2242.5,1359.31 2244.66,1040.18 2246.82,832.729 2248.98,1077.86 2251.14,1372.75 2253.3,1232.78 2255.47,887.975 2257.63,904.986 2259.79,1255.86 2261.95,1363.96 2264.11,1051.62 2266.28,832.166 2268.44,1066.27 2270.6,1369.18 2272.76,1243.06 2274.92,895.184 2277.09,897.313 2279.25,1245.95 2281.41,1368.08 2283.57,1062.95 2285.73,832.097 2287.9,1054.96 2290.06,1365.23 2292.22,1252.91 2294.38,902.619 2296.54,890.151 2298.71,1236.01 2300.87,1371.67 2303.03,1074.13 2305.19,832.494 2307.35,1043.98 2309.52,1360.93 2311.68,1262.32 2313.84,910.24 2316,883.497 2318.16,1226.06 2320.33,1374.76 2322.49,1085.13 2324.65,833.327 2326.81,1033.33 2328.97,1356.32 2331.14,1271.27 2333.3,918.007 2335.46,877.345 2337.62,1216.15 2339.78,1377.36 2341.95,1095.91 2344.11,834.566 2346.27,1023.05 2348.43,1351.44 2350.59,1279.77 2352.76,925.876 "/>
<polyline clip-path="url(#clip842)" style="stroke:#e26f46; stroke-linecap:round; stroke-linejoin:round; stroke-width:4; stroke-opacity:1; fill:none" points="192.941,1047.98 195.103,1046.64 197.265,1045.3 199.427,1043.96 201.589,1042.63 203.751,1041.29 205.912,1039.96 208.074,1038.63 210.236,1037.3 212.398,1035.97 214.56,1034.64 216.722,1033.31 218.884,1031.99 221.046,1030.66 223.208,1029.34 225.37,1028.02 227.532,1026.7 229.694,1025.38 231.856,1024.06 234.018,1022.74 236.18,1021.43 238.342,1020.11 240.504,1018.8 242.666,1017.49 244.828,1016.18 246.99,1014.87 249.152,1013.56 251.314,1012.25 253.476,1010.95 255.638,1009.65 257.8,1008.34 259.962,1007.04 262.124,1005.74 264.286,1004.45 266.448,1003.15 268.61,1001.85 270.772,1000.56 272.934,999.269 275.096,997.978 277.258,996.689 279.42,995.401 281.582,994.115 283.744,992.83 285.906,991.547 288.068,990.265 290.23,988.985 292.392,987.706 294.554,986.429 296.716,985.153 298.878,983.879 301.039,982.606 303.201,981.335 305.363,980.065 307.525,978.797 309.687,977.53 311.849,976.265 314.011,975.002 316.173,973.74 318.335,972.48 320.497,971.221 322.659,969.964 324.821,968.708 326.983,967.454 329.145,966.202 331.307,964.951 333.469,963.702 335.631,962.454 337.793,961.209 339.955,959.964 342.117,958.722 344.279,957.481 346.441,956.241 348.603,955.004 350.765,953.768 352.927,952.533 355.089,951.3 357.251,950.069 359.413,948.84 361.575,947.612 363.737,946.386 365.899,945.162 368.061,943.939 370.223,942.718 372.385,941.499 374.547,940.281 376.709,939.065 378.871,937.851 381.033,936.638 383.195,935.427 385.357,934.218 387.519,933.011 389.681,931.805 391.843,930.601 394.005,929.399 396.166,928.198 398.328,927 400.49,925.803 402.652,924.607 404.814,923.414 406.976,922.222 409.138,921.032 411.3,919.843 413.462,918.657 415.624,917.472 417.786,916.288 419.948,915.107 422.11,913.927 424.272,912.749 426.434,911.573 428.596,910.399 430.758,909.226 432.92,908.055 435.082,906.886 437.244,905.719 439.406,904.553 441.568,903.389 443.73,902.227 445.892,901.067 448.054,899.908 450.216,898.752 452.378,897.597 454.54,896.444 456.702,895.292 458.864,894.143 461.026,892.995 463.188,891.849 465.35,890.705 467.512,889.562 469.674,888.422 471.836,887.283 473.998,886.146 476.16,885.011 478.322,883.878 480.484,882.746 482.646,881.616 484.808,880.488 486.97,879.362 489.132,878.238 491.293,877.115 493.455,875.994 495.617,874.875 497.779,873.758 499.941,872.643 502.103,871.529 504.265,870.418 506.427,869.308 508.589,868.2 510.751,867.094 512.913,865.989 515.075,864.886 517.237,863.786 519.399,862.687 521.561,861.589 523.723,860.494 525.885,859.401 528.047,858.309 530.209,857.219 532.371,856.131 534.533,855.045 536.695,853.96 538.857,852.877 541.019,851.797 543.181,850.718 545.343,849.64 547.505,848.565 549.667,847.491 551.829,846.42 553.991,845.35 556.153,844.282 558.315,843.215 560.477,842.151 562.639,841.088 564.801,840.027 566.963,838.968 569.125,837.911 571.287,836.855 573.449,835.802 575.611,834.75 577.773,833.7 579.935,832.652 582.097,831.605 584.259,830.561 586.42,829.518 588.582,828.477 590.744,827.438 592.906,826.4 595.068,825.365 597.23,824.331 599.392,823.299 601.554,822.268 603.716,821.24 605.878,820.213 608.04,819.189 610.202,818.166 612.364,817.144 614.526,816.125 616.688,815.107 618.85,814.091 621.012,813.077 623.174,812.065 625.336,811.054 627.498,810.046 629.66,809.039 631.822,808.033 633.984,807.03 636.146,806.028 638.308,805.028 640.47,804.03 642.632,803.034 644.794,802.039 646.956,801.046 649.118,800.055 651.28,799.066 653.442,798.078 655.604,797.092 657.766,796.108 659.928,795.126 662.09,794.145 664.252,793.166 666.414,792.189 668.576,791.214 670.738,790.24 672.9,789.268 675.062,788.298 677.224,787.33 679.386,786.363 681.547,785.398 683.709,784.435 685.871,783.473 688.033,782.513 690.195,781.555 692.357,780.599 694.519,779.644 696.681,778.691 698.843,777.74 701.005,776.79 703.167,775.843 705.329,774.896 707.491,773.952 709.653,773.009 711.815,772.068 713.977,771.129 716.139,770.191 718.301,769.255 720.463,768.32 722.625,767.388 724.787,766.457 726.949,765.527 729.111,764.6 731.273,763.674 733.435,762.749 735.597,761.826 737.759,760.905 739.921,759.986 742.083,759.068 744.245,758.152 746.407,757.238 748.569,756.325 750.731,755.413 752.893,754.504 755.055,753.596 757.217,752.69 759.379,751.785 761.541,750.882 763.703,749.98 765.865,749.08 768.027,748.182 770.189,747.285 772.351,746.39 774.513,745.497 776.674,744.605 778.836,743.715 780.998,742.826 783.16,741.939 785.322,741.053 787.484,740.169 789.646,739.287 791.808,738.406 793.97,737.526 796.132,736.649 798.294,735.773 800.456,734.898 802.618,734.025 804.78,733.153 806.942,732.283 809.104,731.415 811.266,730.548 813.428,729.682 815.59,728.818 817.752,727.956 819.914,727.095 822.076,726.236 824.238,725.378 826.4,724.522 828.562,723.667 830.724,722.814 832.886,721.962 835.048,721.111 837.21,720.262 839.372,719.415 841.534,718.569 843.696,717.725 845.858,716.882 848.02,716.04 850.182,715.2 852.344,714.361 854.506,713.524 856.668,712.688 858.83,711.854 860.992,711.021 863.154,710.19 865.316,709.36 867.478,708.531 869.64,707.704 871.801,706.878 873.963,706.054 876.125,705.231 878.287,704.409 880.449,703.589 882.611,702.77 884.773,701.953 886.935,701.137 889.097,700.322 891.259,699.509 893.421,698.697 895.583,697.887 897.745,697.078 899.907,696.27 902.069,695.463 904.231,694.658 906.393,693.855 908.555,693.052 910.717,692.251 912.879,691.451 915.041,690.653 917.203,689.856 919.365,689.06 921.527,688.265 923.689,687.472 925.851,686.68 928.013,685.89 930.175,685.1 932.337,684.312 934.499,683.525 936.661,682.74 938.823,681.956 940.985,681.173 943.147,680.391 945.309,679.611 947.471,678.831 949.633,678.053 951.795,677.277 953.957,676.501 956.119,675.727 958.281,674.954 960.443,674.182 962.605,673.411 964.767,672.642 966.928,671.874 969.09,671.107 971.252,670.341 973.414,669.576 975.576,668.813 977.738,668.051 979.9,667.289 982.062,666.529 984.224,665.771 986.386,665.013 988.548,664.257 990.71,663.501 992.872,662.747 995.034,661.994 997.196,661.242 999.358,660.491 1001.52,659.742 1003.68,658.993 1005.84,658.246 1008.01,657.499 1010.17,656.754 1012.33,656.01 1014.49,655.267 1016.65,654.525 1018.82,653.784 1020.98,653.044 1023.14,652.305 1025.3,651.567 1027.46,650.831 1029.63,650.095 1031.79,649.361 1033.95,648.627 1036.11,647.894 1038.27,647.163 1040.44,646.433 1042.6,645.703 1044.76,644.975 1046.92,644.247 1049.08,643.521 1051.25,642.795 1053.41,642.071 1055.57,641.347 1057.73,640.625 1059.89,639.903 1062.06,639.183 1064.22,638.463 1066.38,637.745 1068.54,637.027 1070.7,636.31 1072.87,635.594 1075.03,634.879 1077.19,634.165 1079.35,633.452 1081.51,632.74 1083.68,632.029 1085.84,631.319 1088,630.609 1090.16,629.901 1092.32,629.193 1094.49,628.486 1096.65,627.78 1098.81,627.075 1100.97,626.371 1103.13,625.668 1105.3,624.965 1107.46,624.264 1109.62,623.563 1111.78,622.863 1113.94,622.164 1116.1,621.466 1118.27,620.768 1120.43,620.072 1122.59,619.376 1124.75,618.681 1126.91,617.986 1129.08,617.293 1131.24,616.6 1133.4,615.908 1135.56,615.217 1137.72,614.527 1139.89,613.837 1142.05,613.148 1144.21,612.46 1146.37,611.772 1148.53,611.086 1150.7,610.4 1152.86,609.715 1155.02,609.03 1157.18,608.346 1159.34,607.663 1161.51,606.981 1163.67,606.299 1165.83,605.618 1167.99,604.937 1170.15,604.258 1172.32,603.579 1174.48,602.9 1176.64,602.222 1178.8,601.545 1180.96,600.869 1183.13,600.193 1185.29,599.518 1187.45,598.843 1189.61,598.169 1191.77,597.496 1193.94,596.823 1196.1,596.151 1198.26,595.479 1200.42,594.808 1202.58,594.138 1204.75,593.468 1206.91,592.799 1209.07,592.13 1211.23,591.462 1213.39,590.794 1215.56,590.127 1217.72,589.46 1219.88,588.794 1222.04,588.129 1224.2,587.464 1226.37,586.799 1228.53,586.135 1230.69,585.472 1232.85,584.809 1235.01,584.146 1237.18,583.484 1239.34,582.822 1241.5,582.161 1243.66,581.5 1245.82,580.84 1247.99,580.18 1250.15,579.521 1252.31,578.862 1254.47,578.203 1256.63,577.545 1258.8,576.888 1260.96,576.23 1263.12,575.573 1265.28,574.917 1267.44,574.261 1269.61,573.605 1271.77,572.949 1273.93,572.294 1276.09,571.64 1278.25,570.985 1280.42,570.331 1282.58,569.678 1284.74,569.024 1286.9,568.371 1289.06,567.718 1291.23,567.066 1293.39,566.414 1295.55,565.762 1297.71,565.11 1299.87,564.459 1302.03,563.808 1304.2,563.158 1306.36,562.507 1308.52,561.857 1310.68,561.207 1312.84,560.557 1315.01,559.908 1317.17,559.258 1319.33,558.609 1321.49,557.96 1323.65,557.312 1325.82,556.663 1327.98,556.015 1330.14,555.367 1332.3,554.719 1334.46,554.071 1336.63,553.424 1338.79,552.776 1340.95,552.129 1343.11,551.482 1345.27,550.835 1347.44,550.188 1349.6,549.541 1351.76,548.895 1353.92,548.248 1356.08,547.602 1358.25,546.955 1360.41,546.309 1362.57,545.663 1364.73,545.017 1366.89,544.371 1369.06,543.725 1371.22,543.079 1373.38,542.433 1375.54,541.787 1377.7,541.141 1379.87,540.495 1382.03,539.849 1384.19,539.203 1386.35,538.557 1388.51,537.912 1390.68,537.266 1392.84,536.62 1395,535.974 1397.16,535.328 1399.32,534.682 1401.49,534.036 1403.65,533.389 1405.81,532.743 1407.97,532.097 1410.13,531.451 1412.3,530.804 1414.46,530.157 1416.62,529.511 1418.78,528.864 1420.94,528.217 1423.11,527.57 1425.27,526.923 1427.43,526.275 1429.59,525.628 1431.75,524.98 1433.92,524.332 1436.08,523.684 1438.24,523.036 1440.4,522.387 1442.56,521.739 1444.73,521.09 1446.89,520.441 1449.05,519.791 1451.21,519.142 1453.37,518.492 1455.54,517.842 1457.7,517.192 1459.86,516.541 1462.02,515.89 1464.18,515.239 1466.35,514.588 1468.51,513.936 1470.67,513.284 1472.83,512.632 1474.99,511.979 1477.16,511.326 1479.32,510.673 1481.48,510.019 1483.64,509.365 1485.8,508.711 1487.97,508.056 1490.13,507.401 1492.29,506.746 1494.45,506.09 1496.61,505.433 1498.77,504.777 1500.94,504.12 1503.1,503.462 1505.26,502.804 1507.42,502.145 1509.58,501.487 1511.75,500.827 1513.91,500.167 1516.07,499.507 1518.23,498.846 1520.39,498.185 1522.56,497.523 1524.72,496.861 1526.88,496.198 1529.04,495.535 1531.2,494.871 1533.37,494.206 1535.53,493.541 1537.69,492.876 1539.85,492.209 1542.01,491.543 1544.18,490.875 1546.34,490.207 1548.5,489.539 1550.66,488.87 1552.82,488.2 1554.99,487.529 1557.15,486.858 1559.31,486.187 1561.47,485.514 1563.63,484.841 1565.8,484.167 1567.96,483.493 1570.12,482.818 1572.28,482.142 1574.44,481.465 1576.61,480.788 1578.77,480.11 1580.93,479.431 1583.09,478.752 1585.25,478.072 1587.42,477.39 1589.58,476.709 1591.74,476.026 1593.9,475.343 1596.06,474.658 1598.23,473.973 1600.39,473.287 1602.55,472.601 1604.71,471.913 1606.87,471.225 1609.04,470.535 1611.2,469.845 1613.36,469.154 1615.52,468.462 1617.68,467.769 1619.85,467.075 1622.01,466.381 1624.17,465.685 1626.33,464.989 1628.49,464.291 1630.66,463.593 1632.82,462.893 1634.98,462.193 1637.14,461.491 1639.3,460.789 1641.47,460.085 1643.63,459.381 1645.79,458.675 1647.95,457.969 1650.11,457.261 1652.28,456.552 1654.44,455.843 1656.6,455.132 1658.76,454.42 1660.92,453.707 1663.09,452.993 1665.25,452.277 1667.41,451.561 1669.57,450.843 1671.73,450.125 1673.9,449.405 1676.06,448.684 1678.22,447.961 1680.38,447.238 1682.54,446.513 1684.7,445.787 1686.87,445.06 1689.03,444.332 1691.19,443.602 1693.35,442.871 1695.51,442.139 1697.68,441.406 1699.84,440.671 1702,439.935 1704.16,439.198 1706.32,438.459 1708.49,437.719 1710.65,436.978 1712.81,436.235 1714.97,435.491 1717.13,434.745 1719.3,433.998 1721.46,433.25 1723.62,432.5 1725.78,431.749 1727.94,430.997 1730.11,430.242 1732.27,429.487 1734.43,428.73 1736.59,427.971 1738.75,427.211 1740.92,426.45 1743.08,425.687 1745.24,424.922 1747.4,424.156 1749.56,423.389 1751.73,422.619 1753.89,421.848 1756.05,421.076 1758.21,420.302 1760.37,419.526 1762.54,418.749 1764.7,417.97 1766.86,417.189 1769.02,416.407 1771.18,415.623 1773.35,414.837 1775.51,414.05 1777.67,413.261 1779.83,412.47 1781.99,411.678 1784.16,410.883 1786.32,410.087 1788.48,409.29 1790.64,408.49 1792.8,407.688 1794.97,406.885 1797.13,406.08 1799.29,405.273 1801.45,404.464 1803.61,403.654 1805.78,402.841 1807.94,402.027 1810.1,401.21 1812.26,400.392 1814.42,399.572 1816.59,398.749 1818.75,397.925 1820.91,397.099 1823.07,396.271 1825.23,395.441 1827.4,394.608 1829.56,393.774 1831.72,392.938 1833.88,392.1 1836.04,391.259 1838.21,390.417 1840.37,389.572 1842.53,388.725 1844.69,387.876 1846.85,387.025 1849.02,386.172 1851.18,385.317 1853.34,384.459 1855.5,383.599 1857.66,382.737 1859.83,381.873 1861.99,381.007 1864.15,380.138 1866.31,379.267 1868.47,378.394 1870.63,377.518 1872.8,376.64 1874.96,375.76 1877.12,374.877 1879.28,373.992 1881.44,373.105 1883.61,372.215 1885.77,371.323 1887.93,370.428 1890.09,369.531 1892.25,368.632 1894.42,367.729 1896.58,366.825 1898.74,365.918 1900.9,365.008 1903.06,364.096 1905.23,363.181 1907.39,362.264 1909.55,361.344 1911.71,360.422 1913.87,359.497 1916.04,358.569 1918.2,357.638 1920.36,356.705 1922.52,355.77 1924.68,354.831 1926.85,353.89 1929.01,352.946 1931.17,351.999 1933.33,351.05 1935.49,350.098 1937.66,349.143 1939.82,348.185 1941.98,347.224 1944.14,346.26 1946.3,345.294 1948.47,344.324 1950.63,343.352 1952.79,342.377 1954.95,341.399 1957.11,340.417 1959.28,339.433 1961.44,338.446 1963.6,337.456 1965.76,336.463 1967.92,335.466 1970.09,334.467 1972.25,333.464 1974.41,332.459 1976.57,331.45 1978.73,330.438 1980.9,329.423 1983.06,328.404 1985.22,327.383 1987.38,326.358 1989.54,325.33 1991.71,324.299 1993.87,323.264 1996.03,322.226 1998.19,321.185 2000.35,320.141 2002.52,319.093 2004.68,318.041 2006.84,316.987 2009,315.928 2011.16,314.867 2013.33,313.802 2015.49,312.733 2017.65,311.661 2019.81,310.585 2021.97,309.506 2024.14,308.423 2026.3,307.337 2028.46,306.247 2030.62,305.153 2032.78,304.056 2034.95,302.955 2037.11,301.85 2039.27,300.741 2041.43,299.629 2043.59,298.513 2045.76,297.393 2047.92,296.27 2050.08,295.142 2052.24,294.011 2054.4,292.875 2056.57,291.736 2058.73,290.593 2060.89,289.446 2063.05,288.295 2065.21,287.14 2067.37,285.981 2069.54,284.818 2071.7,283.65 2073.86,282.479 2076.02,281.304 2078.18,280.124 2080.35,278.94 2082.51,277.752 2084.67,276.56 2086.83,275.364 2088.99,274.163 2091.16,272.958 2093.32,271.749 2095.48,270.535 2097.64,269.317 2099.8,268.095 2101.97,266.868 2104.13,265.636 2106.29,264.4 2108.45,263.16 2110.61,261.915 2112.78,260.666 2114.94,259.412 2117.1,258.153 2119.26,256.89 2121.42,255.622 2123.59,254.349 2125.75,253.072 2127.91,251.79 2130.07,250.503 2132.23,249.211 2134.4,247.914 2136.56,246.613 2138.72,245.307 2140.88,243.995 2143.04,242.679 2145.21,241.358 2147.37,240.032 2149.53,238.701 2151.69,237.365 2153.85,236.024 2156.02,234.677 2158.18,233.326 2160.34,231.969 2162.5,230.607 2164.66,229.24 2166.83,227.867 2168.99,226.489 2171.15,225.106 2173.31,223.718 2175.47,222.324 2177.64,220.924 2179.8,219.52 2181.96,218.109 2184.12,216.693 2186.28,215.272 2188.45,213.845 2190.61,212.412 2192.77,210.974 2194.93,209.53 2197.09,208.08 2199.26,206.624 2201.42,205.163 2203.58,203.696 2205.74,202.223 2207.9,200.744 2210.07,199.259 2212.23,197.768 2214.39,196.272 2216.55,194.769 2218.71,193.26 2220.88,191.745 2223.04,190.224 2225.2,188.697 2227.36,187.163 2229.52,185.623 2231.69,184.077 2233.85,182.525 2236.01,180.966 2238.17,179.401 2240.33,177.829 2242.5,176.251 2244.66,174.667 2246.82,173.075 2248.98,171.477 2251.14,169.873 2253.3,168.262 2255.47,166.644 2257.63,165.019 2259.79,163.388 2261.95,161.749 2264.11,160.104 2266.28,158.452 2268.44,156.793 2270.6,155.127 2272.76,153.454 2274.92,151.773 2277.09,150.086 2279.25,148.392 2281.41,146.69 2283.57,144.981 2285.73,143.264 2287.9,141.541 2290.06,139.809 2292.22,138.071 2294.38,136.325 2296.54,134.571 2298.71,132.81 2300.87,131.041 2303.03,129.265 2305.19,127.481 2307.35,125.689 2309.52,123.889 2311.68,122.082 2313.84,120.266 2316,118.443 2318.16,116.611 2320.33,114.772 2322.49,112.925 2324.65,111.069 2326.81,109.205 2328.97,107.333 2331.14,105.453 2333.3,103.565 2335.46,101.668 2337.62,99.7624 2339.78,97.8486 2341.95,95.9264 2344.11,93.9955 2346.27,92.0561 2348.43,90.108 2350.59,88.1512 2352.76,86.1857 "/>
<polyline clip-path="url(#clip842)" style="stroke:#3da44d; stroke-linecap:round; stroke-linejoin:round; stroke-width:4; stroke-opacity:1; fill:none" points="192.941,1093.1 195.103,834.326 197.265,1022.7 199.427,1350.6 201.589,1282.55 203.751,929.673 205.912,868.248 208.074,1198.59 210.236,1381.21 212.398,1117.87 214.56,838.633 216.722,999.545 218.884,1337.81 221.046,1300.97 223.208,949.195 225.37,857.006 227.532,1174.98 229.694,1383.78 231.856,1142.38 234.018,845.051 236.18,977.421 238.342,1323.29 240.504,1317.74 242.666,969.832 244.828,847.825 246.99,1151.01 249.152,1384.17 251.314,1166.45 253.476,853.484 255.638,956.478 257.8,1307.2 259.962,1332.76 262.124,991.398 264.286,840.732 266.448,1126.88 268.61,1382.41 270.772,1189.9 272.934,863.824 275.096,936.853 277.258,1289.69 279.42,1345.94 281.582,1013.71 283.744,835.739 285.906,1102.78 288.068,1378.57 290.23,1212.56 292.392,875.951 294.554,918.67 296.716,1270.93 298.878,1357.23 301.039,1036.57 303.201,832.838 305.363,1078.89 307.525,1372.73 309.687,1234.27 311.849,889.733 314.011,902.037 316.173,1251.08 318.335,1366.57 320.497,1059.81 322.659,832.009 324.821,1055.39 326.983,1364.96 329.145,1254.89 331.307,905.034 333.469,887.043 335.631,1230.32 337.793,1373.95 339.955,1083.23 342.117,833.212 344.279,1032.44 346.441,1355.36 348.603,1274.3 350.765,921.709 352.927,873.766 355.089,1208.82 357.251,1379.34 359.413,1106.67 361.575,836.396 363.737,1010.2 365.899,1344.05 368.061,1292.37 370.223,939.607 372.385,862.265 374.547,1186.74 376.709,1382.76 378.871,1129.96 381.033,841.497 383.195,988.811 385.357,1331.14 387.519,1309.01 389.681,958.574 391.843,852.586 394.005,1164.27 396.166,1384.21 398.328,1152.93 400.49,848.439 402.652,968.411 404.814,1316.76 406.976,1324.12 409.138,978.456 411.3,844.757 413.462,1141.56 415.624,1383.73 417.786,1175.43 419.948,857.135 422.11,949.121 424.272,1301.03 426.434,1337.64 428.596,999.096 430.758,838.797 432.92,1118.77 435.082,1381.36 437.244,1197.32 439.406,867.489 441.568,931.05 443.73,1284.1 445.892,1349.5 448.054,1020.34 450.216,834.707 452.378,1096.07 454.54,1377.16 456.702,1218.45 458.864,879.397 461.026,914.295 463.188,1266.09 465.35,1359.66 467.512,1042.02 469.674,832.476 471.836,1073.61 473.998,1371.19 476.16,1238.7 478.322,892.747 480.484,898.943 482.646,1247.16 484.808,1368.08 486.97,1063.99 489.132,832.083 491.293,1051.52 493.455,1363.53 495.617,1257.96 497.779,907.422 499.941,885.067 502.103,1227.45 504.265,1374.75 506.427,1086.11 508.589,833.492 510.751,1029.95 512.913,1354.26 515.075,1276.12 517.237,923.301 519.399,872.728 521.561,1207.1 523.723,1379.65 525.885,1108.22 528.047,836.658 530.209,1009.03 532.371,1343.47 534.533,1293.07 536.695,940.255 538.857,861.973 541.019,1186.25 543.181,1382.79 545.343,1130.18 547.505,841.528 549.667,988.875 551.829,1331.26 553.991,1308.75 556.153,958.158 558.315,852.841 560.477,1165.04 562.639,1384.18 564.801,1151.86 566.963,848.036 569.125,969.597 571.287,1317.74 573.449,1323.08 575.611,976.879 577.773,845.356 579.935,1143.62 582.097,1383.85 584.259,1173.13 586.42,856.11 588.582,951.299 590.744,1303.01 592.906,1335.99 595.068,996.285 597.23,839.533 599.392,1122.12 601.554,1381.84 603.716,1193.87 605.878,865.671 608.04,934.074 610.202,1287.19 612.364,1347.43 614.526,1016.25 616.688,835.376 618.85,1100.68 621.012,1378.18 623.174,1213.95 625.336,876.633 627.498,918.007 629.66,1270.4 631.822,1357.36 633.984,1036.63 636.146,832.877 638.308,1079.41 640.47,1372.94 642.632,1233.28 644.794,888.903 646.956,903.172 649.118,1252.75 651.28,1365.75 653.442,1057.31 655.604,832.021 657.766,1058.45 659.928,1366.17 662.09,1251.75 664.252,902.384 666.414,889.631 668.576,1234.36 670.738,1372.58 672.9,1078.16 675.062,832.781 677.224,1037.9 679.386,1357.93 681.547,1269.27 683.709,916.977 685.871,877.441 688.033,1215.35 690.195,1377.85 692.357,1099.05 694.519,835.124 696.681,1017.89 698.843,1348.32 701.005,1285.76 703.167,932.575 705.329,866.647 707.491,1195.85 709.653,1381.54 711.815,1119.87 713.977,839.007 716.139,998.515 718.301,1337.4 720.463,1301.14 722.625,949.073 724.787,857.284 726.949,1175.97 729.111,1383.66 731.273,1140.5 733.435,844.381 735.597,979.87 737.759,1325.25 739.921,1315.35 742.083,966.362 744.245,849.378 746.407,1155.83 748.569,1384.24 750.731,1160.82 752.893,851.188 755.055,962.049 757.217,1311.98 759.379,1328.32 761.541,984.332 763.703,842.949 765.865,1135.55 768.027,1383.29 770.189,1180.73 772.351,859.367 774.513,945.135 776.674,1297.67 778.836,1340.02 780.998,1002.87 783.16,838.004 785.322,1115.24 787.484,1380.85 789.646,1200.13 791.808,868.847 793.97,929.203 796.132,1282.41 798.294,1350.39 800.456,1021.87 802.618,834.544 804.78,1095.01 806.942,1376.96 809.104,1218.92 811.266,879.557 813.428,914.322 815.59,1266.32 817.752,1359.41 819.914,1041.22 822.076,832.563 824.238,1074.96 826.4,1371.66 828.562,1237.02 830.724,891.417 832.886,900.553 835.048,1249.47 837.21,1367.05 839.372,1060.82 841.534,832.046 843.696,1055.21 845.858,1365.01 848.02,1254.34 850.182,904.346 852.344,887.949 854.506,1231.99 856.668,1373.29 858.83,1080.55 860.992,832.969 863.154,1035.84 865.316,1357.06 867.478,1270.8 869.64,918.259 871.801,876.556 873.963,1213.96 876.125,1378.13 878.287,1100.31 880.449,835.306 882.611,1016.95 884.773,1347.87 886.935,1286.33 889.097,933.067 891.259,866.412 893.421,1195.49 895.583,1381.56 897.745,1120 899.907,839.019 902.069,998.626 904.231,1337.52 906.393,1300.87 908.555,948.682 910.717,857.548 912.879,1176.68 915.041,1383.59 917.203,1139.52 919.365,844.068 921.527,980.957 923.689,1326.07 925.851,1314.37 928.013,965.01 930.175,849.988 932.337,1157.63 934.499,1384.24 936.661,1158.78 938.823,850.405 940.985,964.017 943.147,1313.6 945.309,1326.77 947.471,981.96 949.633,843.747 951.795,1138.44 953.957,1383.52 956.119,1177.69 958.281,857.98 960.443,947.878 962.605,1300.19 964.767,1338.03 966.928,999.438 969.09,838.836 971.252,1119.2 973.414,1381.45 975.576,1196.16 977.738,866.733 979.9,932.606 982.062,1285.91 984.224,1348.11 986.386,1017.35 988.548,835.256 990.71,1100.01 992.872,1378.07 995.034,1214.1 997.196,876.606 999.358,918.26 1001.52,1270.85 1003.68,1356.99 1005.84,1035.61 1008.01,833.004 1010.17,1080.96 1012.33,1373.42 1014.49,1231.44 1016.65,887.532 1018.82,904.896 1020.98,1255.1 1023.14,1364.63 1025.3,1054.11 1027.46,832.071 1029.63,1062.14 1031.79,1367.54 1033.95,1248.11 1036.11,899.444 1038.27,892.56 1040.44,1238.73 1042.6,1371.02 1044.76,1072.77 1046.92,832.439 1049.08,1043.64 1051.25,1360.47 1053.41,1264.04 1055.57,912.27 1057.73,881.296 1059.89,1221.85 1062.06,1376.16 1064.22,1091.5 1066.38,834.088 1068.54,1025.53 1070.7,1352.27 1072.87,1279.16 1075.03,925.937 1077.19,871.138 1079.35,1204.52 1081.51,1380.04 1083.68,1110.21 1085.84,836.989 1088,1007.89 1090.16,1342.99 1092.32,1293.42 1094.49,940.369 1096.65,862.116 1098.81,1186.84 1100.97,1382.65 1103.13,1128.82 1105.3,841.111 1107.46,990.792 1109.62,1332.69 1111.78,1306.77 1113.94,955.489 1116.1,854.254 1118.27,1168.89 1120.43,1384.01 1122.59,1147.24 1124.75,846.416 1126.91,974.313 1129.08,1321.42 1131.24,1319.15 1133.4,971.218 1135.56,847.571 1137.72,1150.76 1139.89,1384.13 1142.05,1165.39 1144.21,852.863 1146.37,958.514 1148.53,1309.27 1150.7,1330.54 1152.86,987.476 1155.02,842.078 1157.18,1132.53 1159.34,1383.02 1161.51,1183.2 1163.67,860.406 1165.83,943.454 1167.99,1296.29 1170.15,1340.89 1172.32,1004.18 1174.48,837.782 1176.64,1114.29 1178.8,1380.72 1180.96,1200.59 1183.13,868.996 1185.29,929.189 1187.45,1282.55 1189.61,1350.17 1191.77,1021.26 1193.94,834.683 1196.1,1096.11 1198.26,1377.24 1200.42,1217.49 1202.58,878.579 1204.75,915.769 1206.91,1268.13 1209.07,1358.36 1211.23,1038.63 1213.39,832.778 1215.56,1078.07 1217.72,1372.63 1219.88,1233.84 1222.04,889.1 1224.2,903.24 1226.37,1253.09 1228.53,1365.44 1230.69,1056.21 1232.85,832.058 1235.01,1060.25 1237.18,1366.91 1239.34,1249.57 1241.5,900.499 1243.66,891.642 1245.82,1237.51 1247.99,1371.4 1250.15,1073.92 1252.31,832.507 1254.47,1042.72 1256.63,1360.12 1258.8,1264.63 1260.96,912.715 1263.12,881.011 1265.28,1221.47 1267.44,1376.22 1269.61,1091.69 1271.77,834.107 1273.93,1025.55 1276.09,1352.32 1278.25,1278.97 1280.42,925.685 1282.58,871.377 1284.74,1205.04 1286.9,1379.91 1289.06,1109.44 1291.23,836.835 1293.39,1008.81 1295.55,1343.55 1297.71,1292.53 1299.87,939.344 1302.03,862.766 1304.2,1188.28 1306.36,1382.46 1308.52,1127.1 1310.68,840.661 1312.84,992.55 1315.01,1333.86 1317.17,1305.26 1319.33,953.625 1321.49,855.198 1323.65,1171.28 1325.82,1383.89 1327.98,1144.59 1330.14,845.555 1332.3,976.843 1334.46,1323.3 1336.63,1317.14 1338.79,968.459 1340.95,848.688 1343.11,1154.12 1345.27,1384.19 1347.44,1161.85 1349.6,851.48 1351.76,961.742 1353.92,1311.93 1356.08,1328.12 1358.25,983.78 1360.41,843.249 1362.57,1136.85 1364.73,1383.39 1366.89,1178.81 1369.06,858.398 1371.22,947.298 1373.38,1299.81 1375.54,1338.18 1377.7,999.518 1379.87,838.885 1382.03,1119.55 1384.19,1381.51 1386.35,1195.41 1388.51,866.266 1390.68,933.558 1392.84,1286.99 1395,1347.28 1397.16,1015.6 1399.32,835.599 1401.49,1102.3 1403.65,1378.57 1405.81,1211.58 1407.97,875.039 1410.13,920.568 1412.3,1273.54 1414.46,1355.4 1416.62,1031.97 1418.78,833.386 1420.94,1085.16 1423.11,1374.6 1425.27,1227.27 1427.43,884.668 1429.59,908.367 1431.75,1259.52 1433.92,1362.53 1436.08,1048.54 1438.24,832.241 1440.4,1068.19 1442.56,1369.62 1444.73,1242.43 1446.89,895.103 1449.05,896.992 1451.21,1245 1453.37,1368.66 1455.54,1065.26 1457.7,832.15 1459.86,1051.46 1462.02,1363.68 1464.18,1257 1466.35,906.291 1468.51,886.472 1470.67,1230.03 1472.83,1373.77 1474.99,1082.05 1477.16,833.099 1479.32,1035.03 1481.48,1356.81 1483.64,1270.93 1485.8,918.178 1487.97,876.837 1490.13,1214.68 1492.29,1377.86 1494.45,1098.86 1496.61,835.067 1498.77,1018.95 1500.94,1349.05 1503.1,1284.19 1505.26,930.707 1507.42,868.108 1509.58,1199.02 1511.75,1380.94 1513.91,1115.61 1516.07,838.032 1518.23,1003.29 1520.39,1340.44 1522.56,1296.73 1524.72,943.822 1526.88,860.305 1529.04,1183.11 1531.2,1383 1533.37,1132.24 1535.53,841.967 1537.69,988.091 1539.85,1331.04 1542.01,1308.53 1544.18,957.464 1546.34,853.442 1548.5,1167.01 1550.66,1384.05 1552.82,1148.7 1554.99,846.841 1557.15,973.408 1559.31,1320.88 1561.47,1319.53 1563.63,971.573 1565.8,847.53 1567.96,1150.79 1570.12,1384.11 1572.28,1164.92 1574.44,852.621 1576.61,959.285 1578.77,1310.02 1580.93,1329.73 1583.09,986.09 1585.25,842.575 1587.42,1134.51 1589.58,1383.2 1591.74,1180.86 1593.9,859.272 1596.06,945.765 1598.23,1298.51 1600.39,1339.09 1602.55,1000.96 1604.71,838.58 1606.87,1118.22 1609.04,1381.33 1611.2,1196.45 1613.36,866.755 1615.52,932.887 1617.68,1286.4 1619.85,1347.59 1622.01,1016.11 1624.17,835.543 1626.33,1102 1628.49,1378.52 1630.66,1211.65 1632.82,875.029 1634.98,920.686 1637.14,1273.75 1639.3,1355.22 1641.47,1031.49 1643.63,833.458 1645.79,1085.88 1647.95,1374.8 1650.11,1226.4 1652.28,884.05 1654.44,909.196 1656.6,1260.6 1658.76,1361.97 1660.92,1047.05 1663.09,832.316 1665.25,1069.94 1667.41,1370.21 1669.57,1240.67 1671.73,893.773 1673.9,898.444 1676.06,1247.03 1678.22,1367.82 1680.38,1062.71 1682.54,832.106 1684.7,1054.22 1686.87,1364.76 1689.03,1254.41 1691.19,904.153 1693.35,888.454 1695.51,1233.07 1697.68,1372.78 1699.84,1078.44 1702,832.81 1704.16,1038.77 1706.32,1358.5 1708.49,1267.59 1710.65,915.14 1712.81,879.248 1714.97,1218.78 1717.13,1376.83 1719.3,1094.16 1721.46,834.411 1723.62,1023.65 1725.78,1351.47 1727.94,1280.16 1730.11,926.685 1732.27,870.843 1734.43,1204.23 1736.59,1380 1738.75,1109.82 1740.92,836.884 1743.08,1008.89 1745.24,1343.7 1747.4,1292.1 1749.56,938.739 1751.73,863.253 1753.89,1189.47 1756.05,1382.27 1758.21,1125.38 1760.37,840.206 1762.54,994.549 1764.7,1335.23 1766.86,1303.38 1769.02,951.249 1771.18,856.488 1773.35,1174.55 1775.51,1383.66 1777.67,1140.78 1779.83,844.348 1781.99,980.659 1784.16,1326.1 1786.32,1313.97 1788.48,964.165 1790.64,850.554 1792.8,1159.52 1794.97,1384.19 1797.13,1155.98 1799.29,849.279 1801.45,967.26 1803.61,1316.36 1805.78,1323.85 1807.94,977.435 1810.1,845.453 1812.26,1144.44 1814.42,1383.87 1816.59,1170.92 1818.75,854.967 1820.91,954.386 1823.07,1306.06 1825.23,1333 1827.4,991.007 1829.56,841.187 1831.72,1129.36 1833.88,1382.71 1836.04,1185.56 1838.21,861.377 1840.37,942.068 1842.53,1295.24 1844.69,1341.42 1846.85,1004.83 1849.02,837.749 1851.18,1114.32 1853.34,1380.75 1855.5,1199.86 1857.66,868.471 1859.83,930.335 1861.99,1283.95 1864.15,1349.08 1866.31,1018.85 1868.47,835.134 1870.63,1099.39 1872.8,1378 1874.96,1213.79 1877.12,876.212 1879.28,919.212 1881.44,1272.23 1883.61,1355.98 1885.77,1033.03 1887.93,833.331 1890.09,1084.59 1892.25,1374.49 1894.42,1227.3 1896.58,884.559 1898.74,908.721 1900.9,1260.14 1903.06,1362.11 1905.23,1047.3 1907.39,832.326 1909.55,1069.99 1911.71,1370.26 1913.87,1240.36 1916.04,893.47 1918.2,898.879 1920.36,1247.71 1922.52,1367.48 1924.68,1061.62 1926.85,832.104 1929.01,1055.61 1931.17,1365.32 1933.33,1252.94 1935.49,902.902 1937.66,889.703 1939.82,1235.01 1941.98,1372.09 1944.14,1075.95 1946.3,832.644 1948.47,1041.5 1950.63,1359.73 1952.79,1265.01 1954.95,912.813 1957.11,881.205 1959.28,1222.07 1961.44,1375.93 1963.6,1090.24 1965.76,833.926 1967.92,1027.7 1970.09,1353.51 1972.25,1276.56 1974.41,923.159 1976.57,873.393 1978.73,1208.95 1980.9,1379.03 1983.06,1104.44 1985.22,835.924 1987.38,1014.24 1989.54,1346.69 1991.71,1287.55 1993.87,933.894 1996.03,866.272 1998.19,1195.69 2000.35,1381.38 2002.52,1118.52 2004.68,838.613 2006.84,1001.16 2009,1339.32 2011.16,1297.96 2013.33,944.974 2015.49,859.846 2017.65,1182.33 2019.81,1383.01 2021.97,1132.43 2024.14,841.964 2026.3,988.484 2028.46,1331.44 2030.62,1307.79 2032.78,956.353 2034.95,854.113 2037.11,1168.93 2039.27,1383.94 2041.43,1146.13 2043.59,845.947 2045.76,976.238 2047.92,1323.09 2050.08,1317.02 2052.24,967.988 2054.4,849.07 2056.57,1155.52 2058.73,1384.17 2060.89,1159.59 2063.05,850.528 2065.21,964.448 2067.37,1314.3 2069.54,1325.64 2071.7,979.834 2073.86,844.71 2076.02,1142.14 2078.18,1383.74 2080.35,1172.78 2082.51,855.674 2084.67,953.137 2086.83,1305.13 2088.99,1333.64 2091.16,991.846 2093.32,841.024 2095.48,1128.84 2097.64,1382.66 2099.8,1185.66 2101.97,861.35 2104.13,942.323 2106.29,1295.6 2108.45,1341.02 2110.61,1003.98 2112.78,837.999 2114.94,1115.66 2117.1,1380.97 2119.26,1198.2 2121.42,867.519 2123.59,932.02 2125.75,1285.77 2127.91,1347.78 2130.07,1016.2 2132.23,835.62 2134.4,1102.63 2136.56,1378.69 2138.72,1210.38 2140.88,874.143 2143.04,922.242 2145.21,1275.68 2147.37,1353.92 2149.53,1028.46 2151.69,833.87 2153.85,1089.78 2156.02,1375.85 2158.18,1222.17 2160.34,881.183 2162.5,912.999 2164.66,1265.36 2166.83,1359.46 2168.99,1040.72 2171.15,832.729 2173.31,1077.16 2175.47,1372.48 2177.64,1233.55 2179.8,888.6 2181.96,904.299 2184.12,1254.86 2186.28,1364.38 2188.45,1052.94 2190.61,832.175 2192.77,1064.78 2194.93,1368.62 2197.09,1244.51 2199.26,896.354 2201.42,896.143 2203.58,1244.23 2205.74,1368.72 2207.9,1065.08 2210.07,832.183 2212.23,1052.68 2214.39,1364.3 2216.55,1255.02 2218.71,904.406 2220.88,888.536 2223.04,1233.5 2225.2,1372.48 2227.36,1077.11 2229.52,832.728 2231.69,1040.89 2233.85,1359.55 2236.01,1265.08 2238.17,912.713 2240.33,881.476 2242.5,1222.71 2244.66,1375.67 2246.82,1088.99 2248.98,833.781 2251.14,1029.43 2253.3,1354.42 2255.47,1274.67 2257.63,921.236 2259.79,874.957 2261.95,1211.9 2264.11,1378.31 2266.28,1100.7 2268.44,835.311 2270.6,1018.32 2272.76,1348.95 2274.92,1283.79 2277.09,929.935 2279.25,868.972 2281.41,1201.11 2283.57,1380.43 2285.73,1112.2 2287.9,837.289 2290.06,1007.57 2292.22,1343.16 2294.38,1292.43 2296.54,938.769 2298.71,863.513 2300.87,1190.37 2303.03,1382.05 2305.19,1123.46 2307.35,839.68 2309.52,997.215 2311.68,1337.1 2313.84,1300.58 2316,947.699 2318.16,858.57 2320.33,1179.73 2322.49,1383.19 2324.65,1134.45 2326.81,842.451 2328.97,987.26 2331.14,1330.8 2333.3,1308.26 2335.46,956.683 2337.62,854.128 2339.78,1169.22 2341.95,1383.88 2344.11,1145.15 2346.27,845.567 2348.43,977.722 2350.59,1324.32 2352.76,1315.44 "/>
<polyline clip-path="url(#clip842)" style="stroke:#c271d2; stroke-linecap:round; stroke-linejoin:round; stroke-width:4; stroke-opacity:1; fill:none" points="192.941,661.945 195.103,662.333 197.265,662.727 199.427,663.117 201.589,663.521 203.751,663.914 205.912,664.324 208.074,664.725 210.236,665.138 212.398,665.549 214.56,665.962 216.722,666.384 218.884,666.798 221.046,667.229 223.208,667.648 225.37,668.083 227.532,668.51 229.694,668.946 231.856,669.383 234.018,669.82 236.18,670.267 238.342,670.705 240.504,671.16 242.666,671.602 244.828,672.06 246.99,672.511 249.152,672.97 251.314,673.431 253.476,673.889 255.638,674.359 257.8,674.819 259.962,675.296 262.124,675.761 264.286,676.239 266.448,676.713 268.61,677.191 270.772,677.675 272.934,678.152 275.096,678.644 277.258,679.124 279.42,679.62 281.582,680.106 283.744,680.603 285.906,681.098 288.068,681.594 290.23,682.098 292.392,682.593 294.554,683.104 296.716,683.603 298.878,684.117 301.039,684.622 303.201,685.136 305.363,685.65 307.525,686.162 309.687,686.684 311.849,687.197 314.011,687.725 316.173,688.24 318.335,688.771 320.497,689.293 322.659,689.822 324.821,690.353 326.983,690.88 329.145,691.419 331.307,691.946 333.469,692.49 335.631,693.021 337.793,693.565 339.955,694.103 342.117,694.645 344.279,695.192 346.441,695.732 348.603,696.286 350.765,696.827 352.927,697.383 355.089,697.929 357.251,698.485 359.413,699.037 361.575,699.591 363.737,700.152 365.899,700.704 368.061,701.27 370.223,701.823 372.385,702.391 374.547,702.949 376.709,703.516 378.871,704.081 381.033,704.645 383.195,705.218 385.357,705.78 387.519,706.357 389.681,706.921 391.843,707.499 394.005,708.068 396.166,708.644 398.328,709.22 400.49,709.793 402.652,710.376 404.814,710.947 406.976,711.533 409.138,712.107 411.3,712.693 413.462,713.271 415.624,713.855 417.786,714.44 419.948,715.02 422.11,715.611 424.272,716.19 426.434,716.784 428.596,717.365 430.758,717.958 432.92,718.545 435.082,719.134 437.244,719.727 439.406,720.313 441.568,720.912 443.73,721.496 445.892,722.096 448.054,722.684 450.216,723.282 452.378,723.876 454.54,724.469 456.702,725.069 458.864,725.659 461.026,726.263 463.188,726.853 465.35,727.458 467.512,728.051 469.674,728.652 471.836,729.252 473.998,729.848 476.16,730.453 478.322,731.047 480.484,731.655 482.646,732.249 484.808,732.856 486.97,733.454 489.132,734.057 491.293,734.661 493.455,735.259 495.617,735.868 497.779,736.464 499.941,737.075 502.103,737.671 504.265,738.28 506.427,738.881 508.589,739.485 510.751,740.092 512.913,740.691 515.075,741.302 517.237,741.899 519.399,742.511 521.561,743.109 523.723,743.718 525.885,744.321 528.047,744.925 530.209,745.533 532.371,746.132 534.533,746.744 536.695,747.341 538.857,747.952 541.019,748.552 543.181,749.159 545.343,749.764 547.505,750.365 549.667,750.974 551.829,751.572 553.991,752.183 556.153,752.78 558.315,753.39 560.477,753.989 562.639,754.594 564.801,755.198 566.963,755.797 569.125,756.405 571.287,757.001 573.449,757.61 575.611,758.205 577.773,758.812 579.935,759.41 582.097,760.012 584.259,760.614 586.42,761.21 588.582,761.816 590.744,762.409 592.906,763.015 595.068,763.607 597.23,764.21 599.392,764.806 601.554,765.403 603.716,766.004 605.878,766.595 608.04,767.198 610.202,767.786 612.364,768.389 614.526,768.978 616.688,769.576 618.85,770.168 621.012,770.76 623.174,771.357 625.336,771.943 627.498,772.542 629.66,773.125 631.822,773.722 633.984,774.307 636.146,774.899 638.308,775.488 640.47,776.073 642.632,776.666 644.794,777.246 646.956,777.839 649.118,778.417 651.28,779.008 653.442,779.588 655.604,780.173 657.766,780.757 659.928,781.335 662.09,781.922 664.252,782.495 666.414,783.082 668.576,783.654 670.738,784.238 672.9,784.812 675.062,785.389 677.224,785.967 679.386,786.537 681.547,787.118 683.709,787.684 685.871,788.264 688.033,788.829 690.195,789.404 692.357,789.972 694.519,790.54 696.681,791.112 698.843,791.673 701.005,792.247 703.167,792.804 705.329,793.376 707.491,793.934 709.653,794.5 711.815,795.061 713.977,795.619 716.139,796.183 718.301,796.736 720.463,797.301 722.625,797.85 724.787,798.413 726.949,798.963 729.111,799.519 731.273,800.072 733.435,800.62 735.597,801.176 737.759,801.719 739.921,802.275 742.083,802.815 744.245,803.367 746.407,803.908 748.569,804.454 750.731,804.998 752.893,805.536 755.055,806.083 757.217,806.615 759.379,807.161 761.541,807.692 763.703,808.233 765.865,808.765 768.027,809.299 770.189,809.835 772.351,810.361 774.513,810.898 776.674,811.42 778.836,811.955 780.998,812.476 783.16,813.006 785.322,813.528 787.484,814.05 789.646,814.576 791.808,815.091 793.97,815.617 796.132,816.127 798.294,816.651 800.456,817.161 802.618,817.679 804.78,818.191 806.942,818.701 809.104,819.215 811.266,819.718 813.428,820.233 815.59,820.732 817.752,821.244 819.914,821.743 822.076,822.247 824.238,822.749 826.4,823.245 828.562,823.749 830.724,824.239 832.886,824.742 835.048,825.229 837.21,825.728 839.372,826.215 841.534,826.706 843.696,827.196 845.858,827.68 848.02,828.171 850.182,828.649 852.344,829.139 854.506,829.614 856.668,830.099 858.83,830.575 860.992,831.052 863.154,831.53 865.316,831.999 867.478,832.479 869.64,832.942 871.801,833.419 873.963,833.882 876.125,834.353 878.287,834.816 880.449,835.279 882.611,835.745 884.773,836.2 886.935,836.666 889.097,837.116 891.259,837.579 893.421,838.029 895.583,838.485 897.745,838.936 899.907,839.384 902.069,839.837 904.231,840.277 906.393,840.73 908.555,841.166 910.717,841.615 912.879,842.051 915.041,842.492 917.203,842.93 919.365,843.362 921.527,843.802 923.689,844.228 925.851,844.666 928.013,845.088 930.175,845.522 932.337,845.944 934.499,846.37 936.661,846.794 938.823,847.211 940.985,847.637 943.147,848.047 945.309,848.471 947.471,848.879 949.633,849.297 951.795,849.705 953.957,850.115 956.119,850.525 958.281,850.927 960.443,851.338 962.605,851.733 964.767,852.141 966.928,852.534 969.09,852.936 971.252,853.33 973.414,853.724 975.576,854.12 977.738,854.505 979.9,854.901 982.062,855.281 984.224,855.674 986.386,856.052 988.548,856.437 990.71,856.817 992.872,857.194 995.034,857.575 997.196,857.944 999.358,858.324 1001.52,858.689 1003.68,859.065 1005.84,859.428 1008.01,859.797 1010.17,860.161 1012.33,860.521 1014.49,860.887 1016.65,861.24 1018.82,861.604 1020.98,861.952 1023.14,862.312 1025.3,862.66 1027.46,863.011 1029.63,863.361 1031.79,863.703 1033.95,864.054 1036.11,864.389 1038.27,864.738 1040.44,865.07 1042.6,865.412 1044.76,865.744 1046.92,866.078 1049.08,866.412 1051.25,866.737 1053.41,867.071 1055.57,867.39 1057.73,867.722 1059.89,868.037 1062.06,868.362 1064.22,868.679 1066.38,868.995 1068.54,869.313 1070.7,869.62 1072.87,869.938 1075.03,870.239 1077.19,870.554 1079.35,870.853 1081.51,871.16 1083.68,871.46 1085.84,871.758 1088,872.06 1090.16,872.349 1092.32,872.65 1094.49,872.935 1096.65,873.231 1098.81,873.514 1100.97,873.803 1103.13,874.086 1105.3,874.366 1107.46,874.651 1109.62,874.922 1111.78,875.206 1113.94,875.473 1116.1,875.751 1118.27,876.017 1120.43,876.287 1122.59,876.554 1124.75,876.815 1126.91,877.083 1129.08,877.336 1131.24,877.602 1133.4,877.851 1135.56,878.111 1137.72,878.36 1139.89,878.611 1142.05,878.861 1144.21,879.104 1146.37,879.354 1148.53,879.589 1150.7,879.837 1152.86,880.068 1155.02,880.309 1157.18,880.541 1159.34,880.773 1161.51,881.005 1163.67,881.228 1165.83,881.461 1167.99,881.677 1170.15,881.907 1172.32,882.12 1174.48,882.342 1176.64,882.556 1178.8,882.769 1180.96,882.984 1183.13,883.187 1185.29,883.402 1187.45,883.599 1189.61,883.809 1191.77,884.005 1193.94,884.207 1196.1,884.403 1198.26,884.596 1200.42,884.793 1202.58,884.977 1204.75,885.173 1206.91,885.352 1209.07,885.543 1211.23,885.72 1213.39,885.902 1215.56,886.08 1217.72,886.253 1219.88,886.432 1222.04,886.596 1224.2,886.773 1226.37,886.933 1228.53,887.104 1230.69,887.263 1232.85,887.425 1235.01,887.584 1237.18,887.737 1239.34,887.897 1241.5,888.042 1243.66,888.199 1245.82,888.34 1247.99,888.49 1250.15,888.63 1252.31,888.772 1254.47,888.913 1256.63,889.045 1258.8,889.185 1260.96,889.31 1263.12,889.448 1265.28,889.569 1267.44,889.699 1269.61,889.82 1271.77,889.941 1273.93,890.063 1276.09,890.174 1278.25,890.295 1280.42,890.4 1282.58,890.517 1284.74,890.618 1286.9,890.728 1289.06,890.829 1291.23,890.929 1293.39,891.031 1295.55,891.122 1297.71,891.223 1299.87,891.307 1302.03,891.403 1304.2,891.485 1306.36,891.573 1308.52,891.655 1310.68,891.733 1312.84,891.816 1315.01,891.885 1317.17,891.965 1319.33,892.029 1321.49,892.104 1323.65,892.166 1325.82,892.232 1327.98,892.294 1330.14,892.35 1332.3,892.413 1334.46,892.46 1336.63,892.52 1338.79,892.563 1340.95,892.616 1343.11,892.658 1345.27,892.702 1347.44,892.744 1349.6,892.778 1351.76,892.819 1353.92,892.845 1356.08,892.884 1358.25,892.906 1360.41,892.937 1362.57,892.958 1364.73,892.979 1366.89,893 1369.06,893.012 1371.22,893.033 1373.38,893.037 1375.54,893.053 1377.7,893.054 1379.87,893.062 1382.03,893.062 1384.19,893.061 1386.35,893.061 1388.51,893.05 1390.68,893.048 1392.84,893.03 1395,893.024 1397.16,893.003 1399.32,892.989 1401.49,892.967 1403.65,892.943 1405.81,892.921 1407.97,892.887 1410.13,892.864 1412.3,892.823 1414.46,892.794 1416.62,892.751 1418.78,892.713 1420.94,892.67 1423.11,892.621 1425.27,892.578 1427.43,892.52 1429.59,892.474 1431.75,892.411 1433.92,892.358 1436.08,892.293 1438.24,892.231 1440.4,892.165 1442.56,892.093 1444.73,892.027 1446.89,891.946 1449.05,891.876 1451.21,891.79 1453.37,891.713 1455.54,891.625 1457.7,891.539 1459.86,891.45 1462.02,891.353 1464.18,891.264 1466.35,891.159 1468.51,891.065 1470.67,890.955 1472.83,890.854 1474.99,890.743 1477.16,890.631 1479.32,890.52 1481.48,890.398 1483.64,890.285 1485.8,890.155 1487.97,890.037 1490.13,889.903 1492.29,889.777 1494.45,889.642 1496.61,889.505 1498.77,889.369 1500.94,889.222 1503.1,889.085 1505.26,888.93 1507.42,888.787 1509.58,888.628 1511.75,888.476 1513.91,888.317 1516.07,888.154 1518.23,887.994 1520.39,887.821 1522.56,887.658 1524.72,887.478 1526.88,887.309 1529.04,887.126 1531.2,886.947 1533.37,886.763 1535.53,886.574 1537.69,886.389 1539.85,886.189 1542.01,886.001 1544.18,885.795 1546.34,885.599 1548.5,885.39 1550.66,885.185 1552.82,884.975 1554.99,884.758 1557.15,884.547 1559.31,884.321 1561.47,884.106 1563.63,883.874 1565.8,883.651 1567.96,883.416 1570.12,883.183 1572.28,882.947 1574.44,882.702 1576.61,882.465 1578.77,882.211 1580.93,881.969 1583.09,881.71 1585.25,881.459 1587.42,881.197 1589.58,880.935 1591.74,880.673 1593.9,880.4 1596.06,880.135 1598.23,879.853 1600.39,879.583 1602.55,879.296 1604.71,879.016 1606.87,878.727 1609.04,878.436 1611.2,878.145 1613.36,877.843 1615.52,877.55 1617.68,877.24 1619.85,876.94 1622.01,876.625 1624.17,876.315 1626.33,875.998 1628.49,875.677 1630.66,875.358 1632.82,875.026 1634.98,874.704 1637.14,874.364 1639.3,874.035 1641.47,873.69 1643.63,873.35 1645.79,873.004 1647.95,872.652 1650.11,872.304 1652.28,871.942 1654.44,871.589 1656.6,871.219 1658.76,870.859 1660.92,870.485 1663.09,870.113 1665.25,869.737 1667.41,869.353 1669.57,868.975 1671.73,868.581 1673.9,868.198 1676.06,867.796 1678.22,867.404 1680.38,866.999 1682.54,866.595 1684.7,866.188 1686.87,865.772 1689.03,865.362 1691.19,864.936 1693.35,864.52 1695.51,864.087 1697.68,863.662 1699.84,863.225 1702,862.788 1704.16,862.349 1706.32,861.9 1708.49,861.457 1710.65,860.998 1712.81,860.549 1714.97,860.083 1717.13,859.624 1719.3,859.154 1721.46,858.683 1723.62,858.211 1725.78,857.727 1727.94,857.251 1730.11,856.757 1732.27,856.274 1734.43,855.774 1736.59,855.28 1738.75,854.776 1740.92,854.269 1743.08,853.763 1745.24,853.244 1747.4,852.733 1749.56,852.204 1751.73,851.685 1753.89,851.15 1756.05,850.619 1758.21,850.081 1760.37,849.537 1762.54,848.995 1764.7,848.439 1766.86,847.892 1769.02,847.326 1771.18,846.77 1773.35,846.199 1775.51,845.631 1777.67,845.056 1779.83,844.474 1781.99,843.896 1784.16,843.302 1786.32,842.717 1788.48,842.114 1790.64,841.52 1792.8,840.911 1794.97,840.304 1797.13,839.692 1799.29,839.07 1801.45,838.454 1803.61,837.82 1805.78,837.197 1807.94,836.555 1810.1,835.921 1812.26,835.273 1814.42,834.625 1816.59,833.974 1818.75,833.312 1820.91,832.656 1823.07,831.982 1825.23,831.318 1827.4,830.635 1829.56,829.959 1831.72,829.272 1833.88,828.581 1836.04,827.89 1838.21,827.185 1840.37,826.488 1842.53,825.772 1844.69,825.065 1846.85,824.341 1849.02,823.622 1851.18,822.892 1853.34,822.159 1855.5,821.425 1857.66,820.677 1859.83,819.936 1861.99,819.177 1864.15,818.426 1866.31,817.659 1868.47,816.895 1870.63,816.122 1872.8,815.343 1874.96,814.565 1877.12,813.771 1879.28,812.986 1881.44,812.181 1883.61,811.384 1885.77,810.571 1887.93,809.761 1890.09,808.942 1892.25,808.116 1894.42,807.292 1896.58,806.451 1898.74,805.619 1900.9,804.767 1903.06,803.923 1905.23,803.063 1907.39,802.204 1909.55,801.338 1911.71,800.462 1913.87,799.59 1916.04,798.7 1918.2,797.819 1920.36,796.918 1922.52,796.024 1924.68,795.115 1926.85,794.205 1929.01,793.29 1931.17,792.363 1933.33,791.441 1935.49,790.5 1937.66,789.568 1939.82,788.616 1941.98,787.669 1944.14,786.709 1946.3,785.746 1948.47,784.78 1950.63,783.8 1952.79,782.825 1954.95,781.831 1957.11,780.845 1959.28,779.839 1961.44,778.839 1963.6,777.825 1965.76,776.807 1967.92,775.786 1970.09,774.75 1972.25,773.721 1974.41,772.671 1976.57,771.629 1978.73,770.567 1980.9,769.509 1983.06,768.44 1985.22,767.364 1987.38,766.286 1989.54,765.193 1991.71,764.105 1993.87,762.997 1996.03,761.897 1998.19,760.777 2000.35,759.66 2002.52,758.531 2004.68,757.395 2006.84,756.259 2009,755.105 2011.16,753.957 2013.33,752.788 2015.49,751.626 2017.65,750.445 2019.81,749.265 2021.97,748.076 2024.14,746.876 2026.3,745.677 2028.46,744.46 2030.62,743.249 2032.78,742.016 2034.95,740.789 2037.11,739.545 2039.27,738.299 2041.43,737.045 2043.59,735.779 2045.76,734.515 2047.92,733.23 2050.08,731.953 2052.24,730.653 2054.4,729.359 2056.57,728.047 2058.73,726.733 2060.89,725.411 2063.05,724.075 2065.21,722.742 2067.37,721.388 2069.54,720.041 2071.7,718.671 2073.86,717.306 2076.02,715.924 2078.18,714.538 2080.35,713.145 2082.51,711.737 2084.67,710.331 2086.83,708.904 2088.99,707.483 2091.16,706.04 2093.32,704.6 2095.48,703.143 2097.64,701.681 2099.8,700.213 2101.97,698.729 2104.13,697.247 2106.29,695.743 2108.45,694.244 2110.61,692.724 2112.78,691.204 2114.94,689.67 2117.1,688.128 2119.26,686.581 2121.42,685.016 2123.59,683.454 2125.75,681.868 2127.91,680.288 2130.07,678.686 2132.23,677.084 2134.4,675.467 2136.56,673.841 2138.72,672.211 2140.88,670.561 2143.04,668.915 2145.21,667.245 2147.37,665.578 2149.53,663.891 2151.69,662.201 2153.85,660.498 2156.02,658.784 2158.18,657.066 2160.34,655.327 2162.5,653.591 2164.66,651.831 2166.83,650.074 2168.99,648.296 2171.15,646.514 2173.31,644.72 2175.47,642.912 2177.64,641.101 2179.8,639.268 2181.96,637.438 2184.12,635.582 2186.28,633.729 2188.45,631.855 2190.61,629.976 2192.77,628.085 2194.93,626.178 2197.09,624.269 2199.26,622.336 2201.42,620.406 2203.58,618.451 2205.74,616.496 2207.9,614.521 2210.07,612.539 2212.23,610.546 2214.39,608.535 2216.55,606.523 2218.71,604.485 2220.88,602.451 2223.04,600.389 2225.2,598.328 2227.36,596.246 2229.52,594.155 2231.69,592.054 2233.85,589.933 2236.01,587.811 2238.17,585.663 2240.33,583.516 2242.5,581.342 2244.66,579.167 2246.82,576.972 2248.98,574.766 2251.14,572.55 2253.3,570.313 2255.47,568.074 2257.63,565.807 2259.79,563.542 2261.95,561.25 2264.11,558.954 2266.28,556.638 2268.44,554.31 2270.6,551.972 2272.76,549.611 2274.92,547.248 2277.09,544.857 2279.25,542.466 2281.41,540.047 2283.57,537.624 2285.73,535.181 2287.9,532.723 2290.06,530.255 2292.22,527.763 2294.38,525.269 2296.54,522.745 2298.71,520.221 2300.87,517.669 2303.03,515.11 2305.19,512.531 2307.35,509.936 2309.52,507.331 2311.68,504.7 2313.84,502.067 2316,499.403 2318.16,496.736 2320.33,494.042 2322.49,491.34 2324.65,488.618 2326.81,485.877 2328.97,483.127 2331.14,480.349 2333.3,477.567 2335.46,474.754 2337.62,471.938 2339.78,469.094 2341.95,466.239 2344.11,463.365 2346.27,460.469 2348.43,457.565 2350.59,454.631 2352.76,451.693 "/>
<path clip-path="url(#clip840)" d="M264.934 352.309 L570.013 352.309 L570.013 93.1086 L264.934 93.1086  Z" fill="#ffffff" fill-rule="evenodd" fill-opacity="1"/>
<polyline clip-path="url(#clip840)" style="stroke:#000000; stroke-linecap:round; stroke-linejoin:round; stroke-width:4; stroke-opacity:1; fill:none" points="264.934,352.309 570.013,352.309 570.013,93.1086 264.934,93.1086 264.934,352.309 "/>
<polyline clip-path="url(#clip840)" style="stroke:#009af9; stroke-linecap:round; stroke-linejoin:round; stroke-width:4; stroke-opacity:1; fill:none" points="288.932,144.949 432.92,144.949 "/>
<path clip-path="url(#clip840)" d="M456.918 151.997 L456.918 136.303 L461.177 136.303 L461.177 151.835 Q461.177 155.516 462.612 157.368 Q464.048 159.196 466.918 159.196 Q470.367 159.196 472.358 156.997 Q474.372 154.798 474.372 151.002 L474.372 136.303 L478.631 136.303 L478.631 162.229 L474.372 162.229 L474.372 158.247 Q472.821 160.608 470.761 161.766 Q468.724 162.9 466.015 162.9 Q461.548 162.9 459.233 160.122 Q456.918 157.344 456.918 151.997 M467.636 135.678 L467.636 135.678 Z" fill="#000000" fill-rule="nonzero" fill-opacity="1" /><path clip-path="url(#clip840)" d="M487.01 126.21 L496.825 126.21 L496.825 129.52 L491.27 129.52 L491.27 165.168 L496.825 165.168 L496.825 168.479 L487.01 168.479 L487.01 126.21 Z" fill="#000000" fill-rule="nonzero" fill-opacity="1" /><path clip-path="url(#clip840)" d="M507.311 158.293 L514.95 158.293 L514.95 131.928 L506.64 133.595 L506.64 129.335 L514.904 127.669 L519.58 127.669 L519.58 158.293 L527.219 158.293 L527.219 162.229 L507.311 162.229 L507.311 158.293 Z" fill="#000000" fill-rule="nonzero" fill-opacity="1" /><path clip-path="url(#clip840)" d="M546.015 126.21 L546.015 168.479 L536.2 168.479 L536.2 165.168 L541.732 165.168 L541.732 129.52 L536.2 129.52 L536.2 126.21 L546.015 126.21 Z" fill="#000000" fill-rule="nonzero" fill-opacity="1" /><polyline clip-path="url(#clip840)" style="stroke:#e26f46; stroke-linecap:round; stroke-linejoin:round; stroke-width:4; stroke-opacity:1; fill:none" points="288.932,196.789 432.92,196.789 "/>
<path clip-path="url(#clip840)" d="M456.918 203.837 L456.918 188.143 L461.177 188.143 L461.177 203.675 Q461.177 207.356 462.612 209.208 Q464.048 211.036 466.918 211.036 Q470.367 211.036 472.358 208.837 Q474.372 206.638 474.372 202.842 L474.372 188.143 L478.631 188.143 L478.631 214.069 L474.372 214.069 L474.372 210.087 Q472.821 212.448 470.761 213.606 Q468.724 214.74 466.015 214.74 Q461.548 214.74 459.233 211.962 Q456.918 209.184 456.918 203.837 M467.636 187.518 L467.636 187.518 Z" fill="#000000" fill-rule="nonzero" fill-opacity="1" /><path clip-path="url(#clip840)" d="M487.01 178.05 L496.825 178.05 L496.825 181.36 L491.27 181.36 L491.27 217.008 L496.825 217.008 L496.825 220.319 L487.01 220.319 L487.01 178.05 Z" fill="#000000" fill-rule="nonzero" fill-opacity="1" /><path clip-path="url(#clip840)" d="M510.529 210.133 L526.848 210.133 L526.848 214.069 L504.904 214.069 L504.904 210.133 Q507.566 207.379 512.149 202.749 Q516.756 198.096 517.936 196.754 Q520.182 194.231 521.061 192.495 Q521.964 190.735 521.964 189.046 Q521.964 186.291 520.02 184.555 Q518.098 182.819 514.996 182.819 Q512.797 182.819 510.344 183.583 Q507.913 184.347 505.135 185.897 L505.135 181.175 Q507.959 180.041 510.413 179.462 Q512.867 178.884 514.904 178.884 Q520.274 178.884 523.469 181.569 Q526.663 184.254 526.663 188.745 Q526.663 190.874 525.853 192.796 Q525.066 194.694 522.959 197.286 Q522.381 197.958 519.279 201.175 Q516.177 204.37 510.529 210.133 Z" fill="#000000" fill-rule="nonzero" fill-opacity="1" /><path clip-path="url(#clip840)" d="M546.015 178.05 L546.015 220.319 L536.2 220.319 L536.2 217.008 L541.732 217.008 L541.732 181.36 L536.2 181.36 L536.2 178.05 L546.015 178.05 Z" fill="#000000" fill-rule="nonzero" fill-opacity="1" /><polyline clip-path="url(#clip840)" style="stroke:#3da44d; stroke-linecap:round; stroke-linejoin:round; stroke-width:4; stroke-opacity:1; fill:none" points="288.932,248.629 432.92,248.629 "/>
<path clip-path="url(#clip840)" d="M456.918 255.677 L456.918 239.983 L461.177 239.983 L461.177 255.515 Q461.177 259.196 462.612 261.048 Q464.048 262.876 466.918 262.876 Q470.367 262.876 472.358 260.677 Q474.372 258.478 474.372 254.682 L474.372 239.983 L478.631 239.983 L478.631 265.909 L474.372 265.909 L474.372 261.927 Q472.821 264.288 470.761 265.446 Q468.724 266.58 466.015 266.58 Q461.548 266.58 459.233 263.802 Q456.918 261.024 456.918 255.677 M467.636 239.358 L467.636 239.358 Z" fill="#000000" fill-rule="nonzero" fill-opacity="1" /><path clip-path="url(#clip840)" d="M487.01 229.89 L496.825 229.89 L496.825 233.2 L491.27 233.2 L491.27 268.848 L496.825 268.848 L496.825 272.159 L487.01 272.159 L487.01 229.89 Z" fill="#000000" fill-rule="nonzero" fill-opacity="1" /><path clip-path="url(#clip840)" d="M520.668 247.274 Q524.024 247.992 525.899 250.261 Q527.797 252.529 527.797 255.862 Q527.797 260.978 524.279 263.779 Q520.76 266.58 514.279 266.58 Q512.103 266.58 509.788 266.14 Q507.496 265.723 505.043 264.867 L505.043 260.353 Q506.987 261.487 509.302 262.066 Q511.617 262.645 514.14 262.645 Q518.538 262.645 520.83 260.909 Q523.145 259.173 523.145 255.862 Q523.145 252.807 520.992 251.094 Q518.862 249.358 515.043 249.358 L511.015 249.358 L511.015 245.515 L515.228 245.515 Q518.677 245.515 520.506 244.149 Q522.334 242.761 522.334 240.168 Q522.334 237.506 520.436 236.094 Q518.561 234.659 515.043 234.659 Q513.121 234.659 510.922 235.075 Q508.723 235.492 506.084 236.372 L506.084 232.205 Q508.746 231.464 511.061 231.094 Q513.399 230.724 515.459 230.724 Q520.783 230.724 523.885 233.154 Q526.987 235.562 526.987 239.682 Q526.987 242.552 525.344 244.543 Q523.7 246.511 520.668 247.274 Z" fill="#000000" fill-rule="nonzero" fill-opacity="1" /><path clip-path="url(#clip840)" d="M546.015 229.89 L546.015 272.159 L536.2 272.159 L536.2 268.848 L541.732 268.848 L541.732 233.2 L536.2 233.2 L536.2 229.89 L546.015 229.89 Z" fill="#000000" fill-rule="nonzero" fill-opacity="1" /><polyline clip-path="url(#clip840)" style="stroke:#c271d2; stroke-linecap:round; stroke-linejoin:round; stroke-width:4; stroke-opacity:1; fill:none" points="288.932,300.469 432.92,300.469 "/>
<path clip-path="url(#clip840)" d="M456.918 307.517 L456.918 291.823 L461.177 291.823 L461.177 307.355 Q461.177 311.036 462.612 312.888 Q464.048 314.716 466.918 314.716 Q470.367 314.716 472.358 312.517 Q474.372 310.318 474.372 306.522 L474.372 291.823 L478.631 291.823 L478.631 317.749 L474.372 317.749 L474.372 313.767 Q472.821 316.128 470.761 317.286 Q468.724 318.42 466.015 318.42 Q461.548 318.42 459.233 315.642 Q456.918 312.864 456.918 307.517 M467.636 291.198 L467.636 291.198 Z" fill="#000000" fill-rule="nonzero" fill-opacity="1" /><path clip-path="url(#clip840)" d="M487.01 281.73 L496.825 281.73 L496.825 285.04 L491.27 285.04 L491.27 320.688 L496.825 320.688 L496.825 323.999 L487.01 323.999 L487.01 281.73 Z" fill="#000000" fill-rule="nonzero" fill-opacity="1" /><path clip-path="url(#clip840)" d="M519.348 287.263 L507.543 305.712 L519.348 305.712 L519.348 287.263 M518.121 283.189 L524.001 283.189 L524.001 305.712 L528.932 305.712 L528.932 309.601 L524.001 309.601 L524.001 317.749 L519.348 317.749 L519.348 309.601 L503.747 309.601 L503.747 305.087 L518.121 283.189 Z" fill="#000000" fill-rule="nonzero" fill-opacity="1" /><path clip-path="url(#clip840)" d="M546.015 281.73 L546.015 323.999 L536.2 323.999 L536.2 320.688 L541.732 320.688 L541.732 285.04 L536.2 285.04 L536.2 281.73 L546.015 281.73 Z" fill="#000000" fill-rule="nonzero" fill-opacity="1" /></svg>
